<?xml version="1.0" encoding="UTF-8" standalone="no"?><svg xmlns="http://www.w3.org/2000/svg" xmlns:xlink="http://www.w3.org/1999/xlink"><symbol viewBox="0 0 60 60" id="Browsertool"><title>Browsertool</title><g fill="none" fill-rule="evenodd"><g transform="translate(-719 -838)" fill="#535353"><path d="M720 852h58v40h-58v-40zm2 38h54v-36h-54v36z"/><path d="M720 844h58v10h-58v-10zm2 8h54v-6h-54v6z"/><path d="M725 851c-1.102 0-2-.897-2-2s.898-2 2-2c1.102 0 2 .897 2 2s-.898 2-2 2M730 851c-1.103 0-2-.897-2-2s.897-2 2-2c1.102 0 2 .897 2 2s-.898 2-2 2M735 851c-1.102 0-2-.897-2-2s.898-2 2-2c1.102 0 2 .897 2 2s-.898 2-2 2M738.62 887.573a1 1 0 0 1-.708-.293l-4.19-4.19a1 1 0 0 1 .042-1.452l12.803-11.42c-1.813-3.468-1.188-7.813 1.626-10.628a9.02 9.02 0 0 1 6.42-2.66c.91 0 1.813.137 2.682.405a1 1 0 0 1 .412 1.663l-5.107 5.107 3.917 3.917 5.107-5.107c.248-.248.61-.348.947-.264.342.085.614.342.716.677a9.06 9.06 0 0 1-2.255 9.1 9.015 9.015 0 0 1-6.418 2.66c-1.28 0-2.546-.27-3.706-.79l-11.54 12.94a.995.995 0 0 1-.72.335h-.027zm-2.734-5.148l2.69 2.692 11.347-12.72a1 1 0 0 1 1.234-.208 7.093 7.093 0 0 0 3.455.897 7.03 7.03 0 0 0 5.005-2.073 7.062 7.062 0 0 0 2.068-5.332l-4.46 4.462a1.03 1.03 0 0 1-1.415 0l-5.33-5.332a1 1 0 0 1 0-1.414l4.458-4.46c-2-.1-3.917.653-5.33 2.066-2.355 2.356-2.745 6.086-.927 8.87a1 1 0 0 1-.17 1.293l-12.624 11.258z"/></g></g></symbol><symbol viewBox="0 0 60 60" id="Businessman"><title>Businessman</title><g fill="none" fill-rule="evenodd"><g transform="translate(-118 -951)" fill="#535353"><path d="M134 979c-4.676 0-8.77-3.283-10.343-8.23A3.996 3.996 0 0 1 121 967c0-1.587.94-3.007 2.35-3.645C124.596 957.9 128.995 954 134 954s9.405 3.9 10.65 9.355A4.007 4.007 0 0 1 147 967a3.996 3.996 0 0 1-2.657 3.77C142.77 975.716 138.676 979 134 979zm0-23c-4.213 0-7.914 3.484-8.8 8.285a1 1 0 0 1-.723.784 2.002 2.002 0 0 0 .16 3.898c.38.068.684.348.786.72 1.195 4.374 4.642 7.312 8.577 7.312 3.935 0 7.382-2.938 8.577-7.312a.998.998 0 0 1 .786-.72 2.002 2.002 0 0 0 .16-3.9 1 1 0 0 1-.724-.783c-.886-4.8-4.586-8.285-8.8-8.285zM163 998c-4.676 0-8.77-3.283-10.343-8.23A3.996 3.996 0 0 1 150 986c0-1.587.94-3.007 2.35-3.644C153.596 976.9 157.995 973 163 973s9.405 3.9 10.65 9.356A4.005 4.005 0 0 1 176 986a3.996 3.996 0 0 1-2.657 3.77C171.77 994.716 167.676 998 163 998zm0-23c-4.213 0-7.914 3.484-8.8 8.285a1 1 0 0 1-.723.784 2.002 2.002 0 0 0 .16 3.898c.38.068.684.348.786.72 1.195 4.374 4.642 7.312 8.577 7.312 3.935 0 7.382-2.938 8.577-7.312a.998.998 0 0 1 .786-.72 2.002 2.002 0 0 0 .16-3.9 1 1 0 0 1-.724-.783c-.886-4.8-4.586-8.285-8.8-8.285z"/><path d="M145 990h-22a1 1 0 0 1-1-1c0-6.617 5.383-12 12-12s12 5.383 12 12a1 1 0 0 1-1 1zm-20.95-2h19.9c-.503-5.046-4.774-9-9.95-9-5.176 0-9.447 3.954-9.95 9zM174 1009h-22a1 1 0 0 1-1-1c0-6.617 5.383-12 12-12s12 5.383 12 12a1 1 0 0 1-1 1zm-20.95-2h19.9c-.503-5.046-4.774-9-9.95-9-5.176 0-9.447 3.954-9.95 9zM147 957h17.033v2H147v-2z"/><path d="M162 957h2v13.045h-2V957z"/></g></g></symbol><symbol viewBox="0 0 60 60" id="Circuitboard"><title>Circuitboard</title><g fill="none" fill-rule="evenodd"><g transform="translate(1 2)" fill="#535353"><path d="M14 23c-3.31 0-6-2.69-6-6s2.69-6 6-6 6 2.69 6 6-2.69 6-6 6zm0-10c-2.206 0-4 1.794-4 4s1.794 4 4 4 4-1.794 4-4-1.794-4-4-4zM51 30c-3.31 0-6-2.69-6-6s2.69-6 6-6 6 2.69 6 6-2.69 6-6 6zm0-10c-2.206 0-4 1.794-4 4s1.794 4 4 4 4-1.794 4-4-1.794-4-4-4zM51 44c-3.31 0-6-2.69-6-6s2.69-6 6-6 6 2.69 6 6-2.69 6-6 6zm0-10c-2.206 0-4 1.794-4 4s1.794 4 4 4 4-1.794 4-4-1.794-4-4-4zM7 39c-3.31 0-6-2.69-6-6s2.69-6 6-6 6 2.69 6 6-2.69 6-6 6zm0-10c-2.206 0-4 1.794-4 4s1.794 4 4 4 4-1.794 4-4-1.794-4-4-4z"/><path d="M30 54h-2V23.006A4.007 4.007 0 0 0 24 19h-5v-2h5c3.31 0 6 2.694 6 6.006V54M23 54h-2V38.003A4.006 4.006 0 0 0 17 34h-5v-2h5c3.31 0 6 2.693 6 6.003V54M37 54h-2V42.997A6.005 6.005 0 0 1 41 37h5v2h-5c-2.206 0-4 1.793-4 3.997V54M45.72 25h-3.855a4.86 4.86 0 0 1-4.855-4.856V5h2v15.144A2.86 2.86 0 0 0 41.865 23h3.855v2"/></g></g></symbol><symbol viewBox="0 0 60 60" id="Effects"><title>Effects</title><g fill="none" fill-rule="evenodd"><g transform="translate(-360 -718)" fill="#535353"><path d="M400 775c-9.374 0-17-7.626-17-17 0-9.374 7.626-17 17-17 9.374 0 17 7.626 17 17 0 9.374-7.626 17-17 17zm0-32c-8.27 0-15 6.728-15 15 0 8.27 6.73 15 15 15s15-6.73 15-15c0-8.272-6.73-15-15-15z"/><path d="M374.99 743.55a.998.998 0 0 1-.94-.654A16.92 16.92 0 0 1 373 737c0-9.374 7.626-17 17-17 9.374 0 17 7.626 17 17 0 1.794-.278 3.56-.827 5.252a1 1 0 1 1-1.903-.617c.484-1.49.73-3.05.73-4.635 0-8.272-6.73-15-15-15s-15 6.728-15 15c0 1.79.312 3.54.927 5.203a1 1 0 0 1-.938 1.347"/><path d="M380 775c-9.374 0-17-7.626-17-17 0-9.374 7.626-17 17-17 3.9 0 7.57 1.285 10.61 3.717a1 1 0 0 1-1.25 1.562A14.837 14.837 0 0 0 380 743c-8.27 0-15 6.728-15 15 0 8.27 6.73 15 15 15a15.03 15.03 0 0 0 9.478-3.372 1 1 0 0 1 1.264 1.55A17.032 17.032 0 0 1 380 775"/></g></g></symbol><symbol viewBox="0 0 60 60" id="Heartarrow"><title>Heartarrow</title><g fill="none" fill-rule="evenodd"><g transform="translate(-480 -239)" fill="#535353"><path d="M511.52 288h-.043c-2.528 0-20.028-15.816-20.028-23.31 0-7.35 4.938-12.29 12.288-12.29 2.85 0 5.574.974 7.762 2.76a12.235 12.235 0 0 1 7.762-2.76c7.35 0 12.29 4.94 12.29 12.29 0 7.487-17.5 23.307-20.03 23.31zm-7.782-33.6c-7.107 0-10.29 5.168-10.29 10.29 0 2.674 3.015 7.346 8.27 12.817 4.384 4.566 8.705 7.98 9.777 8.463 2.542-1.122 18.056-15.03 18.056-21.28 0-5.122-3.18-10.29-10.288-10.29-2.644 0-5.156 1-7.075 2.817a.997.997 0 0 1-1.374 0 10.248 10.248 0 0 0-7.075-2.817z"/><path d="M527.51 285.923L511.585 270l1.414-1.414 15.923 15.923-1.414 1.413M497.512 255.926L492.586 251l1.414-1.414 4.926 4.926-1.414 1.414"/><path d="M532.975 290.975a.993.993 0 0 1-.317-.052l-7.425-2.474a1.004 1.004 0 0 1-.657-.72c-.08-.337.022-.692.267-.937l4.95-4.95a.998.998 0 0 1 1.655.39l2.414 7.246a1 1 0 0 1-.87 1.496c-.004 0-.012-.002-.018 0zm-5.574-3.912l3.994 1.33-1.332-3.992-2.66 2.663zM491 253.243c-.266 0-.52-.106-.707-.293l-4.95-4.95 1.415-1.414L491 250.83l2.828-2.83-4.242-4.243 1.414-1.414 4.95 4.95a1 1 0 0 1 0 1.414l-4.243 4.243a1 1 0 0 1-.707.293"/></g></g></symbol><symbol viewBox="0 0 60 60" id="Message"><title>Message</title><g fill="none" fill-rule="evenodd"><g transform="translate(-119 -478)" fill="#535353"><path d="M148.397 529.16a1 1 0 0 1-1-1V518h-19.39a3.003 3.003 0 0 1-3.007-2.992v-26.016c0-1.65 1.35-2.992 3.006-2.992h41.988a3.003 3.003 0 0 1 3.006 2.992v26.016c0 1.65-1.35 2.992-3.006 2.992h-8.144l-12.804 10.92a.998.998 0 0 1-.65.24zM128.007 488a1 1 0 0 0-1.007.992v26.016a1 1 0 0 0 1.006.992h20.39a1 1 0 0 1 1 1v8.993l11.436-9.754c.18-.155.41-.24.65-.24h8.512a1 1 0 0 0 1.006-.992v-26.016a1 1 0 0 0-1.006-.992h-41.988z"/><path d="M131.5 491H162v2h-30.5v-2zM131.5 496h24v2h-24v-2zM131.5 501H167v2h-35.5v-2zM131.5 506h24v2h-24v-2zM131.5 511h24v2h-24v-2z"/></g></g></symbol><symbol viewBox="0 0 60 60" id="Phonesignal"><title>Phonesignal</title><g fill="none" fill-rule="evenodd"><g transform="translate(-118 -1671)" fill="#535353"><path d="M151.198 1726.583c-2.15 0-4.225-.72-5.848-2.028-.504-.318-2.992-2.063-10.642-9.712-7.68-7.68-9.414-10.164-9.723-10.657-3.045-3.862-2.554-9.66 1.11-12.957l4.86-4.376a1 1 0 0 1 1.377.037l6.963 6.963a1 1 0 0 1 .097 1.302l-1.652 2.235c-1.6 2.163-1.352 5.472.552 7.377l6.493 6.493c1.016 1.015 2.493 1.598 4.053 1.598 1.23 0 2.41-.372 3.324-1.047l2.235-1.65a.996.996 0 0 1 1.3.097l6.964 6.963a1 1 0 0 1 .037 1.376l-4.375 4.862c-1.787 1.986-4.384 3.125-7.124 3.125zm-19.61-37.607l-4.156 3.74c-2.906 2.615-3.285 7.224-.845 10.272.033.04.062.084.088.13.048.078 1.396 2.26 9.448 10.31 8.05 8.05 10.223 9.392 10.31 9.445.043.025.092.06.13.09 1.274 1.045 2.92 1.62 4.635 1.62 2.174 0 4.23-.898 5.637-2.463l3.74-4.157-5.682-5.683-1.542 1.14c-1.254.927-2.856 1.438-4.512 1.438-2.086 0-4.08-.797-5.467-2.184l-6.492-6.493c-2.576-2.575-2.91-7.052-.746-9.98l1.14-1.542-5.684-5.682zM162.707 1700.293a1 1 0 0 1-1-1c0-3.206-1.248-6.22-3.515-8.485a11.92 11.92 0 0 0-8.485-3.515 1 1 0 0 1 0-2c3.74 0 7.255 1.456 9.9 4.1a13.902 13.902 0 0 1 4.1 9.9 1 1 0 0 1-1 1"/><path d="M169 1701a1 1 0 0 1-1-1 18.88 18.88 0 0 0-5.565-13.436A18.884 18.884 0 0 0 149 1681a1 1 0 0 1 0-2 20.87 20.87 0 0 1 14.85 6.15A20.868 20.868 0 0 1 170 1700a1 1 0 0 1-1 1M157 1701a1 1 0 0 1-1-1c0-1.87-.728-3.628-2.05-4.95A6.96 6.96 0 0 0 149 1693a1 1 0 0 1 0-2c2.404 0 4.664.935 6.364 2.636A8.94 8.94 0 0 1 158 1700a1 1 0 0 1-1 1"/></g></g></symbol><symbol viewBox="0 0 60 60" id="Pulley"><title>Pulley</title><g fill="none" fill-rule="evenodd"><g transform="translate(-239 -1079)" fill="#535353"><path d="M256 1127c-3.86 0-7-3.14-7-7s3.14-7 7-7 7 3.14 7 7-3.14 7-7 7zm0-12c-2.757 0-5 2.243-5 5s2.243 5 5 5 5-2.243 5-5-2.243-5-5-5zM283 1114c-6.065 0-11-4.935-11-11s4.935-11 11-11 11 4.935 11 11-4.935 11-11 11zm0-20c-4.962 0-9 4.037-9 9s4.038 9 9 9 9-4.037 9-9-4.038-9-9-9zM295 1090h-47c-1.655 0-3-1.348-3-3.005v-.99a3.005 3.005 0 0 1 3-3.005h47c1.655 0 3 1.348 3 3.005v.99a3.005 3.005 0 0 1-3 3.005zm-47-5c-.552 0-1 .45-1 1.005v.99c0 .554.448 1.005 1 1.005h47c.552 0 1-.45 1-1.005v-.99c0-.554-.448-1.005-1-1.005h-47zM278 1127h10v10h-10v-10zm2 8h6v-6h-6v6z"/><path d="M282 1112.5h2v16.5h-2v-16.5zM249 1089.5h2v30.5h-2v-30.5zM292 1089.5h2v14.5h-2v-14.5zM262.88 1121.477l-1.76-.954 13-24 1.76.954-13 24"/></g></g></symbol><symbol viewBox="0 0 60 60" id="Send"><title>Send</title><g fill="none" fill-rule="evenodd"><g transform="translate(-598 -2396)" fill="#535353"><path d="M621.973 2430.955a.997.997 0 0 1-.305-.048l-20.022-6.402a1 1 0 0 1 .04-1.916l53-14.554a1 1 0 0 1 .8 1.808L622.51 2430.8a1 1 0 0 1-.537.155zm-16.51-7.33l16.368 5.235 26.963-17.133-43.33 11.9z"/><path d="M634.34 2449a1 1 0 0 1-.825-.435l-12.367-18.044a1 1 0 0 1 1.65-1.13l11.43 16.68 19.838-37.537a1 1 0 1 1 1.768.934l-20.61 39a1 1 0 0 1-.826.53l-.058.003"/><path d="M619.617 2444.344a.996.996 0 0 1-.594-.197.996.996 0 0 1-.382-1.018l2.945-13.39a1 1 0 1 1 1.953.43l-2.463 11.202 6.294-3.557a1.002 1.002 0 0 1 .985 1.743l-8.246 4.657c-.154.086-.324.13-.493.13"/></g></g></symbol><symbol viewBox="0 0 60 53" id="Shakinghands"><title>Shakinghands</title><g fill="#FFF" fill-rule="evenodd"><path d="M33.535 51.577a.993.993 0 0 1-.58-.186c-.408-.29-10.016-7.167-14.268-11.42-4.253-4.252-11.13-13.86-11.42-14.268a1 1 0 0 1 .106-1.288l16.97-16.97a1 1 0 0 1 1.292-.105c.02.014 2.064 1.486 5.01 3.737a1 1 0 0 1-1.213 1.59 265.88 265.88 0 0 0-4.28-3.205L9.39 25.227c1.675 2.307 7.216 9.835 10.71 13.33 3.496 3.495 11.023 9.035 13.33 10.71l15.767-15.766c-1.676-2.307-7.218-9.834-10.712-13.328a1 1 0 0 1 1.414-1.414c4.252 4.252 11.13 13.86 11.42 14.267a1 1 0 0 1-.107 1.288l-16.97 16.97c-.194.194-.45.294-.708.294"/><path d="M46.264 38.85a.997.997 0 0 1-.707-.293l-9.9-9.9a1 1 0 0 1 1.414-1.415l9.9 9.9a1 1 0 0 1-.706 1.708M42.02 43.092a.997.997 0 0 1-.706-.293l-9.9-9.9a1 1 0 0 1 1.414-1.415l9.9 9.9a1 1 0 0 1-.707 1.707M37.778 47.335a1 1 0 0 1-.707-.293l-9.898-9.9a1 1 0 0 1 1.414-1.415l9.9 9.9a1 1 0 0 1-.708 1.708M5.96 27.418c-.8 0-1.553-.312-2.12-.88l-2.833-2.832a2.997 2.997 0 0 1-.004-4.235L19.4 1.075c1.13-1.132 3.097-1.132 4.234.003l2.832 2.832a2.997 2.997 0 0 1 .004 4.234L8.074 26.54a2.973 2.973 0 0 1-2.114.878zm15.554-25.22a.985.985 0 0 0-.7.29L2.417 20.885a.996.996 0 0 0 .004 1.407l2.832 2.83c.38.382 1.032.382 1.407.005L25.055 6.73a.997.997 0 0 0-.004-1.407l-2.83-2.83a.998.998 0 0 0-.708-.296zM54.04 27.415c-.8 0-1.55-.31-2.114-.874L33.53 8.145a2.963 2.963 0 0 1-.877-2.114c0-.8.313-1.553.88-2.12l2.832-2.832c1.13-1.132 3.108-1.132 4.236-.004L58.998 19.47c.566.566.878 1.317.877 2.115 0 .8-.313 1.553-.88 2.12l-2.832 2.832a2.98 2.98 0 0 1-2.12.878zM38.487 2.2a.993.993 0 0 0-.707.292l-2.832 2.83a.998.998 0 0 0-.295.708c0 .264.103.513.29.7L53.34 25.128c.372.37 1.032.37 1.408-.004l2.83-2.83a.994.994 0 0 0 .005-1.408L39.186 2.488a.984.984 0 0 0-.7-.288zM25.757 52.284a.995.995 0 0 1-.707-.293L8.08 35.02a1 1 0 0 1 0-1.414l3.535-3.535a1 1 0 1 1 1.414 1.415l-2.83 2.828L25.758 49.87l2.83-2.828A1 1 0 0 1 30 48.456l-3.536 3.535a.993.993 0 0 1-.707.294"/><path d="M13.03 39.97l-1.415-1.413 3.536-3.536 1.415 1.415-3.536 3.536M17.272 44.213L15.858 42.8l3.536-3.536 1.414 1.414-3.536 3.535M21.515 48.456L20.1 47.042l3.535-3.536 1.415 1.414-3.535 3.536M23.05 25.085c-.032 0-.064 0-.095-.004-3.902-.366-4.31-.775-4.53-.995-.942-.94.043-2.328.464-2.92.855-1.207 2.434-2.957 4.828-5.35 5.272-5.272 11.904-7.312 12.184-7.396a1 1 0 1 1 .577 1.914c-.063.018-6.442 1.99-11.347 6.895-3.275 3.274-4.454 4.79-4.875 5.47.648.128 1.683.268 2.618.363 1.24-.567 5.92-2.62 8.202-2.357 1.666.186 4.945-1.66 6.344-2.452.25-.14.462-.26.627-.35a1 1 0 1 1 .947 1.763c-.155.083-.355.196-.59.33-1.832 1.033-5.25 2.954-7.555 2.695-1.446-.16-5.296 1.322-7.376 2.298a.995.995 0 0 1-.425.095M47.38 30.365a1 1 0 0 1-.894-1.445l2.765-5.552a1 1 0 1 1 1.79.89l-2.764 5.553a.998.998 0 0 1-.896.555"/></g></symbol><symbol viewBox="0 0 38 38" id="icon-arrow-right"><title>icon-arrow-right</title><g transform="translate(1 1)" fill="none" fill-rule="evenodd"><circle cx="18" cy="18" r="18" fill="none" stroke="#9A9A9A" stroke-width="2" fill-opacity="0"/><path d="M15.777 27.168l-1.842-1.773 7.437-7.643-8.162-8.526 1.986-1.745 9.52 10.272-8.94 9.416z" fill="#9A9A9A"/></g></symbol><symbol viewBox="0 0 41 37" id="papersdesk"><title>Paperdesk</title><g transform="translate(.862 .5)" stroke-width="2" stroke="#FFF" fill="none" fill-rule="evenodd"><path d="M.7 21h38.438v14H.698zM14.677 24.5H25.16M7.688 7H24.46v14H7.69z"/><path d="M26.558 20.88V4.9H9.784"/><path d="M28.654 20.937V2.8H11.88"/><path d="M30.75 20.905V.7H13.98M39.073 20.925l-3.242-6.43M.7 20.925l3.24-6.43"/></g></symbol></svg>