<?xml version="1.0" encoding="UTF-8" standalone="no"?><svg xmlns="http://www.w3.org/2000/svg" xmlns:xlink="http://www.w3.org/1999/xlink"><symbol viewBox="0 0 60 60" id="Effects"><title>Effects</title><g fill="none" fill-rule="evenodd"><g transform="translate(-360 -718)" fill="#535353"><path d="M400 775c-9.374 0-17-7.626-17-17 0-9.374 7.626-17 17-17 9.374 0 17 7.626 17 17 0 9.374-7.626 17-17 17zm0-32c-8.27 0-15 6.728-15 15 0 8.27 6.73 15 15 15s15-6.73 15-15c0-8.272-6.73-15-15-15z"/><path d="M374.99 743.55a.998.998 0 0 1-.94-.654A16.92 16.92 0 0 1 373 737c0-9.374 7.626-17 17-17 9.374 0 17 7.626 17 17 0 1.794-.278 3.56-.827 5.252a1 1 0 1 1-1.903-.617c.484-1.49.73-3.05.73-4.635 0-8.272-6.73-15-15-15s-15 6.728-15 15c0 1.79.312 3.54.927 5.203a1 1 0 0 1-.938 1.347"/><path d="M380 775c-9.374 0-17-7.626-17-17 0-9.374 7.626-17 17-17 3.9 0 7.57 1.285 10.61 3.717a1 1 0 0 1-1.25 1.562A14.837 14.837 0 0 0 380 743c-8.27 0-15 6.728-15 15 0 8.27 6.73 15 15 15a15.03 15.03 0 0 0 9.478-3.372 1 1 0 0 1 1.264 1.55A17.032 17.032 0 0 1 380 775"/></g></g></symbol><symbol viewBox="0 0 60 60" id="Heartarrow"><title>Heartarrow</title><g fill="none" fill-rule="evenodd"><g transform="translate(-480 -239)" fill="#535353"><path d="M511.52 288h-.043c-2.528 0-20.028-15.816-20.028-23.31 0-7.35 4.938-12.29 12.288-12.29 2.85 0 5.574.974 7.762 2.76a12.235 12.235 0 0 1 7.762-2.76c7.35 0 12.29 4.94 12.29 12.29 0 7.487-17.5 23.307-20.03 23.31zm-7.782-33.6c-7.107 0-10.29 5.168-10.29 10.29 0 2.674 3.015 7.346 8.27 12.817 4.384 4.566 8.705 7.98 9.777 8.463 2.542-1.122 18.056-15.03 18.056-21.28 0-5.122-3.18-10.29-10.288-10.29-2.644 0-5.156 1-7.075 2.817a.997.997 0 0 1-1.374 0 10.248 10.248 0 0 0-7.075-2.817z"/><path d="M527.51 285.923L511.585 270l1.414-1.414 15.923 15.923-1.414 1.413M497.512 255.926L492.586 251l1.414-1.414 4.926 4.926-1.414 1.414"/><path d="M532.975 290.975a.993.993 0 0 1-.317-.052l-7.425-2.474a1.004 1.004 0 0 1-.657-.72c-.08-.337.022-.692.267-.937l4.95-4.95a.998.998 0 0 1 1.655.39l2.414 7.246a1 1 0 0 1-.87 1.496c-.004 0-.012-.002-.018 0zm-5.574-3.912l3.994 1.33-1.332-3.992-2.66 2.663zM491 253.243c-.266 0-.52-.106-.707-.293l-4.95-4.95 1.415-1.414L491 250.83l2.828-2.83-4.242-4.243 1.414-1.414 4.95 4.95a1 1 0 0 1 0 1.414l-4.243 4.243a1 1 0 0 1-.707.293"/></g></g></symbol><symbol viewBox="0 0 60 60" id="Message"><title>Message</title><g fill="none" fill-rule="evenodd"><g transform="translate(-119 -478)" fill="#535353"><path d="M148.397 529.16a1 1 0 0 1-1-1V518h-19.39a3.003 3.003 0 0 1-3.007-2.992v-26.016c0-1.65 1.35-2.992 3.006-2.992h41.988a3.003 3.003 0 0 1 3.006 2.992v26.016c0 1.65-1.35 2.992-3.006 2.992h-8.144l-12.804 10.92a.998.998 0 0 1-.65.24zM128.007 488a1 1 0 0 0-1.007.992v26.016a1 1 0 0 0 1.006.992h20.39a1 1 0 0 1 1 1v8.993l11.436-9.754c.18-.155.41-.24.65-.24h8.512a1 1 0 0 0 1.006-.992v-26.016a1 1 0 0 0-1.006-.992h-41.988z"/><path d="M131.5 491H162v2h-30.5v-2zM131.5 496h24v2h-24v-2zM131.5 501H167v2h-35.5v-2zM131.5 506h24v2h-24v-2zM131.5 511h24v2h-24v-2z"/></g></g></symbol><symbol viewBox="0 0 60 60" id="Pulley"><title>Pulley</title><g fill="none" fill-rule="evenodd"><g transform="translate(-239 -1079)" fill="#535353"><path d="M256 1127c-3.86 0-7-3.14-7-7s3.14-7 7-7 7 3.14 7 7-3.14 7-7 7zm0-12c-2.757 0-5 2.243-5 5s2.243 5 5 5 5-2.243 5-5-2.243-5-5-5zM283 1114c-6.065 0-11-4.935-11-11s4.935-11 11-11 11 4.935 11 11-4.935 11-11 11zm0-20c-4.962 0-9 4.037-9 9s4.038 9 9 9 9-4.037 9-9-4.038-9-9-9zM295 1090h-47c-1.655 0-3-1.348-3-3.005v-.99a3.005 3.005 0 0 1 3-3.005h47c1.655 0 3 1.348 3 3.005v.99a3.005 3.005 0 0 1-3 3.005zm-47-5c-.552 0-1 .45-1 1.005v.99c0 .554.448 1.005 1 1.005h47c.552 0 1-.45 1-1.005v-.99c0-.554-.448-1.005-1-1.005h-47zM278 1127h10v10h-10v-10zm2 8h6v-6h-6v6z"/><path d="M282 1112.5h2v16.5h-2v-16.5zM249 1089.5h2v30.5h-2v-30.5zM292 1089.5h2v14.5h-2v-14.5zM262.88 1121.477l-1.76-.954 13-24 1.76.954-13 24"/></g></g></symbol><symbol viewBox="0 0 60 53" id="Shakinghands"><title>Shakinghands</title><g fill="#FFF" fill-rule="evenodd"><path d="M33.535 51.577a.993.993 0 0 1-.58-.186c-.408-.29-10.016-7.167-14.268-11.42-4.253-4.252-11.13-13.86-11.42-14.268a1 1 0 0 1 .106-1.288l16.97-16.97a1 1 0 0 1 1.292-.105c.02.014 2.064 1.486 5.01 3.737a1 1 0 0 1-1.213 1.59 265.88 265.88 0 0 0-4.28-3.205L9.39 25.227c1.675 2.307 7.216 9.835 10.71 13.33 3.496 3.495 11.023 9.035 13.33 10.71l15.767-15.766c-1.676-2.307-7.218-9.834-10.712-13.328a1 1 0 0 1 1.414-1.414c4.252 4.252 11.13 13.86 11.42 14.267a1 1 0 0 1-.107 1.288l-16.97 16.97c-.194.194-.45.294-.708.294"/><path d="M46.264 38.85a.997.997 0 0 1-.707-.293l-9.9-9.9a1 1 0 0 1 1.414-1.415l9.9 9.9a1 1 0 0 1-.706 1.708M42.02 43.092a.997.997 0 0 1-.706-.293l-9.9-9.9a1 1 0 0 1 1.414-1.415l9.9 9.9a1 1 0 0 1-.707 1.707M37.778 47.335a1 1 0 0 1-.707-.293l-9.898-9.9a1 1 0 0 1 1.414-1.415l9.9 9.9a1 1 0 0 1-.708 1.708M5.96 27.418c-.8 0-1.553-.312-2.12-.88l-2.833-2.832a2.997 2.997 0 0 1-.004-4.235L19.4 1.075c1.13-1.132 3.097-1.132 4.234.003l2.832 2.832a2.997 2.997 0 0 1 .004 4.234L8.074 26.54a2.973 2.973 0 0 1-2.114.878zm15.554-25.22a.985.985 0 0 0-.7.29L2.417 20.885a.996.996 0 0 0 .004 1.407l2.832 2.83c.38.382 1.032.382 1.407.005L25.055 6.73a.997.997 0 0 0-.004-1.407l-2.83-2.83a.998.998 0 0 0-.708-.296zM54.04 27.415c-.8 0-1.55-.31-2.114-.874L33.53 8.145a2.963 2.963 0 0 1-.877-2.114c0-.8.313-1.553.88-2.12l2.832-2.832c1.13-1.132 3.108-1.132 4.236-.004L58.998 19.47c.566.566.878 1.317.877 2.115 0 .8-.313 1.553-.88 2.12l-2.832 2.832a2.98 2.98 0 0 1-2.12.878zM38.487 2.2a.993.993 0 0 0-.707.292l-2.832 2.83a.998.998 0 0 0-.295.708c0 .264.103.513.29.7L53.34 25.128c.372.37 1.032.37 1.408-.004l2.83-2.83a.994.994 0 0 0 .005-1.408L39.186 2.488a.984.984 0 0 0-.7-.288zM25.757 52.284a.995.995 0 0 1-.707-.293L8.08 35.02a1 1 0 0 1 0-1.414l3.535-3.535a1 1 0 1 1 1.414 1.415l-2.83 2.828L25.758 49.87l2.83-2.828A1 1 0 0 1 30 48.456l-3.536 3.535a.993.993 0 0 1-.707.294"/><path d="M13.03 39.97l-1.415-1.413 3.536-3.536 1.415 1.415-3.536 3.536M17.272 44.213L15.858 42.8l3.536-3.536 1.414 1.414-3.536 3.535M21.515 48.456L20.1 47.042l3.535-3.536 1.415 1.414-3.535 3.536M23.05 25.085c-.032 0-.064 0-.095-.004-3.902-.366-4.31-.775-4.53-.995-.942-.94.043-2.328.464-2.92.855-1.207 2.434-2.957 4.828-5.35 5.272-5.272 11.904-7.312 12.184-7.396a1 1 0 1 1 .577 1.914c-.063.018-6.442 1.99-11.347 6.895-3.275 3.274-4.454 4.79-4.875 5.47.648.128 1.683.268 2.618.363 1.24-.567 5.92-2.62 8.202-2.357 1.666.186 4.945-1.66 6.344-2.452.25-.14.462-.26.627-.35a1 1 0 1 1 .947 1.763c-.155.083-.355.196-.59.33-1.832 1.033-5.25 2.954-7.555 2.695-1.446-.16-5.296 1.322-7.376 2.298a.995.995 0 0 1-.425.095M47.38 30.365a1 1 0 0 1-.894-1.445l2.765-5.552a1 1 0 1 1 1.79.89l-2.764 5.553a.998.998 0 0 1-.896.555"/></g></symbol><symbol viewBox="0 0 40 40" id="icon-arrow-right"><title>Oval 7 Copy + Path 48 Copy 2 Copy</title><g transform="translate(2 2)" fill="none" fill-rule="evenodd"><circle stroke="#F3F6F7" stroke-width="4" fill="#FFF" cx="18" cy="18" r="18"/><path d="M26.48 18.168L16.286 28.49l-2.29-2.196 8.042-8.018-8.828-8.943 2.563-2.283L26.48 18.168z" fill="#F3F6F7"/></g></symbol><symbol viewBox="0 0 41 37" id="papersdesk"><title>Paperdesk</title><g transform="translate(.862 .5)" stroke-width="2" stroke="#FFF" fill="none" fill-rule="evenodd"><path d="M.7 21h38.438v14H.698zM14.677 24.5H25.16M7.688 7H24.46v14H7.69z"/><path d="M26.558 20.88V4.9H9.784"/><path d="M28.654 20.937V2.8H11.88"/><path d="M30.75 20.905V.7H13.98M39.073 20.925l-3.242-6.43M.7 20.925l3.24-6.43"/></g></symbol></svg>