<?xml version="1.0" encoding="UTF-8" standalone="no"?>
<svg width="55px" height="55px" viewBox="0 0 55 55" version="1.1" xmlns="http://www.w3.org/2000/svg" xmlns:xlink="http://www.w3.org/1999/xlink" xmlns:sketch="http://www.bohemiancoding.com/sketch/ns">
    <!-- Generator: Sketch 3.3.3 (12072) - http://www.bohemiancoding.com/sketch -->
    <title>Balance</title>
    <desc>Created with Sketch.</desc>
    <defs>
        <path id="path-1" d="M3,6 C4.657,6 6,4.657 6,3 C6,1.343 4.657,0 3,0 C1.343,0 0,1.343 0,3 C0,4.657 1.343,6 3,6 L3,6 Z"></path>
        <path id="path-3" d="M10,5 C10,2.239 7.761,0 5,0 C2.239,0 0,2.239 0,5 L10,5 L10,5 Z"></path>
        <path id="path-5" d="M14,0 C14,3.866 10.866,7 7,7 C3.134,7 0,3.866 0,0 L14,0 L14,0 Z"></path>
        <path id="path-7" d="M14,0 C14,3.866 10.866,7 7,7 C3.134,7 0,3.866 0,0 L14,0 L14,0 Z"></path>
    </defs>
    <g id="Page-1" stroke="none" stroke-width="1" fill="none" fill-rule="evenodd" sketch:type="MSPage">
        <g id="Balance" sketch:type="MSLayerGroup" transform="translate(4.000000, 1.000000)">
            <path d="M4,14 L42,14 M23,6 L23,48.011" id="Stroke-1" stroke="#2F4E55" stroke-width="2" stroke-linecap="round" stroke-linejoin="round" sketch:type="MSShapeGroup"></path>
            <g id="Group-5" transform="translate(20.000000, 0.000000)">
                <mask id="mask-2" sketch:name="Clip 4" fill="white">
                    <use xlink:href="#path-1"></use>
                </mask>
                <g id="Clip-4"></g>
                <path d="M-0.04,-0.1 L6.08,-0.1 L6.08,6.02 L-0.04,6.02 L-0.04,-0.1 Z" id="Fill-3" fill="#4A90E2" sketch:type="MSShapeGroup" mask="url(#mask-2)"></path>
            </g>
            <path d="M23,6 C24.657,6 26,4.657 26,3 C26,1.343 24.657,0 23,0 C21.343,0 20,1.343 20,3 C20,4.657 21.343,6 23,6 L23,6 Z" id="Stroke-6" stroke="#2F4E55" stroke-width="2" stroke-linecap="round" stroke-linejoin="round" sketch:type="MSShapeGroup"></path>
            <g id="Group-10" transform="translate(18.000000, 48.000000)">
                <mask id="mask-4" sketch:name="Clip 9" fill="white">
                    <use xlink:href="#path-3"></use>
                </mask>
                <g id="Clip-9"></g>
                <path d="M-0.08,-0.1 L10,-0.1 L10,5.06 L-0.08,5.06 L-0.08,-0.1 Z" id="Fill-8" fill="#4A90E2" sketch:type="MSShapeGroup" mask="url(#mask-4)"></path>
            </g>
            <path d="M28,53 C28,50.239 25.761,48 23,48 C20.239,48 18,50.239 18,53 L28,53 L28,53 Z" id="Stroke-11" stroke="#2F4E55" stroke-width="2" stroke-linecap="round" stroke-linejoin="round" sketch:type="MSShapeGroup"></path>
            <g id="Group-15" transform="translate(33.000000, 29.000000)">
                <mask id="mask-6" sketch:name="Clip 14" fill="white">
                    <use xlink:href="#path-5"></use>
                </mask>
                <g id="Clip-14"></g>
                <path d="M-0.08,-0.06 L14.08,-0.06 L14.08,7.02 L-0.08,7.02 L-0.08,-0.06 Z" id="Fill-13" fill="#FF8F1C" sketch:type="MSShapeGroup" mask="url(#mask-6)"></path>
            </g>
            <path d="M47,29 C47,32.866 43.866,36 40,36 C36.134,36 33,32.866 33,29 L47,29 L47,29 Z" id="Stroke-16" stroke="#2F4E55" stroke-width="2" stroke-linecap="round" stroke-linejoin="round" sketch:type="MSShapeGroup"></path>
            <path d="M39.738,14.102 L35.098,28.759" id="Stroke-18" stroke="#2F4E55" stroke-width="2" stroke-linecap="round" stroke-linejoin="round" sketch:type="MSShapeGroup"></path>
            <path d="M40.274,14.112 L44.964,28.807" id="Stroke-19" stroke="#2F4E55" stroke-width="2" stroke-linecap="round" stroke-linejoin="round" sketch:type="MSShapeGroup"></path>
            <g id="Group-23" transform="translate(0.000000, 29.000000)">
                <mask id="mask-8" sketch:name="Clip 22" fill="white">
                    <use xlink:href="#path-7"></use>
                </mask>
                <g id="Clip-22"></g>
                <path d="M-0.08,-0.06 L14.08,-0.06 L14.08,7.02 L-0.08,7.02 L-0.08,-0.06 Z" id="Fill-21" fill="#FF8F1C" sketch:type="MSShapeGroup" mask="url(#mask-8)"></path>
            </g>
            <path d="M14,29 C14,32.866 10.866,36 7,36 C3.134,36 0,32.866 0,29 L14,29 L14,29 Z" id="Stroke-24" stroke="#2F4E55" stroke-width="2" stroke-linecap="round" stroke-linejoin="round" sketch:type="MSShapeGroup"></path>
            <path d="M6.738,14.102 L2.098,28.759" id="Stroke-26" stroke="#2F4E55" stroke-width="2" stroke-linecap="round" stroke-linejoin="round" sketch:type="MSShapeGroup"></path>
            <path d="M7.274,14.112 L11.964,28.807" id="Stroke-27" stroke="#2F4E55" stroke-width="2" stroke-linecap="round" stroke-linejoin="round" sketch:type="MSShapeGroup"></path>
        </g>
    </g>
</svg>