<?xml version="1.0" encoding="UTF-8" standalone="no"?>
<svg width="60px" height="60px" viewBox="0 0 60 60" version="1.1" xmlns="http://www.w3.org/2000/svg" xmlns:xlink="http://www.w3.org/1999/xlink" xmlns:sketch="http://www.bohemiancoding.com/sketch/ns">
    <!-- Generator: Sketch 3.3.3 (12072) - http://www.bohemiancoding.com/sketch -->
    <title>outlined</title>
    <desc>Created with Sketch.</desc>
    <defs>
        <path id="path-1" d="M3.27272727,6.54545455 C5.08036364,6.54545455 6.54545455,5.08036364 6.54545455,3.27272727 C6.54545455,1.46509091 5.08036364,0 3.27272727,0 C1.46509091,0 0,1.46509091 0,3.27272727 C0,5.08036364 1.46509091,6.54545455 3.27272727,6.54545455 L3.27272727,6.54545455 L3.27272727,6.54545455 Z"></path>
        <path id="path-3" d="M10.9090909,5.45454545 C10.9090909,2.44254545 8.46654545,0 5.45454545,0 C2.44254545,0 0,2.44254545 0,5.45454545 L10.9090909,5.45454545 L10.9090909,5.45454545 Z"></path>
        <path id="path-5" d="M15.2727273,0 C15.2727273,4.21745455 11.8538182,7.63636364 7.63636364,7.63636364 C3.41890909,7.63636364 0,4.21745455 0,0 L15.2727273,0 L15.2727273,0 Z"></path>
        <path id="path-7" d="M15.2727273,0 C15.2727273,4.21745455 11.8538182,7.63636364 7.63636364,7.63636364 C3.41890909,7.63636364 0,4.21745455 0,0 L15.2727273,0 L15.2727273,0 Z"></path>
    </defs>
    <g id="Page-1" stroke="none" stroke-width="1" fill="none" fill-rule="evenodd" sketch:type="MSPage">
        <g id="Balance" sketch:type="MSLayerGroup" transform="translate(3.000000, 0.000000)">
            <g id="outlined">
                <g id="Imported-Layers">
                    <path d="M46.9090909,17.4545455 L5.45454545,17.4545455 C4.85127273,17.4545455 4.36363636,16.9658182 4.36363636,16.3636364 C4.36363636,15.7614545 4.85127273,15.2727273 5.45454545,15.2727273 L46.9090909,15.2727273 C47.5123636,15.2727273 48,15.7614545 48,16.3636364 C48,16.9658182 47.5123636,17.4545455 46.9090909,17.4545455" id="Fill-1016" fill="#333333" sketch:type="MSShapeGroup"></path>
                    <path d="M26.1818182,54.5574545 C25.5785455,54.5574545 25.0909091,54.0687273 25.0909091,53.4665455 L25.0909091,7.63636364 C25.0909091,7.03418182 25.5785455,6.54545455 26.1818182,6.54545455 C26.7850909,6.54545455 27.2727273,7.03418182 27.2727273,7.63636364 L27.2727273,53.4665455 C27.2727273,54.0687273 26.7850909,54.5574545 26.1818182,54.5574545" id="Fill-1017" fill="#333333" sketch:type="MSShapeGroup"></path>
                    <g id="Group-1020" transform="translate(22.909091, 1.090909)">
                        <g id="mask-2" fill="#FFFFFF" sketch:type="MSShapeGroup">
                            <path d="M3.27272727,6.54545455 C5.08036364,6.54545455 6.54545455,5.08036364 6.54545455,3.27272727 C6.54545455,1.46509091 5.08036364,0 3.27272727,0 C1.46509091,0 0,1.46509091 0,3.27272727 C0,5.08036364 1.46509091,6.54545455 3.27272727,6.54545455 L3.27272727,6.54545455 L3.27272727,6.54545455 Z" id="path-1"></path>
                        </g>
                        <g id="Fill-1018-Clipped">
                            <mask id="mask-2" sketch:name="path-1" fill="white">
                                <use xlink:href="#path-1"></use>
                            </mask>
                            <g id="path-1"></g>
                            <path d="M0,0 L6.54545455,0 L6.54545455,6.54545455 L0,6.54545455 L0,0 L0,0 Z" id="Fill-1018" fill="#A4D0F3" sketch:type="MSShapeGroup" mask="url(#mask-2)"></path>
                        </g>
                    </g>
                    <path d="M26.1818182,8.72727273 C23.7752727,8.72727273 21.8181818,6.77018182 21.8181818,4.36363636 C21.8181818,1.95709091 23.7752727,0 26.1818182,0 C28.5883636,0 30.5454545,1.95709091 30.5454545,4.36363636 C30.5454545,6.77018182 28.5883636,8.72727273 26.1818182,8.72727273 L26.1818182,8.72727273 L26.1818182,8.72727273 Z M26.1818182,2.18181818 C24.9796364,2.18181818 24,3.16036364 24,4.36363636 C24,5.56690909 24.9796364,6.54545455 26.1818182,6.54545455 C27.3850909,6.54545455 28.3636364,5.56690909 28.3636364,4.36363636 C28.3636364,3.16036364 27.3850909,2.18181818 26.1818182,2.18181818 L26.1818182,2.18181818 L26.1818182,2.18181818 Z" id="Fill-1021" fill="#333333" sketch:type="MSShapeGroup"></path>
                    <g id="Group-1024" transform="translate(20.727273, 53.454545)">
                        <g id="mask-4" fill="#FFFFFF" sketch:type="MSShapeGroup">
                            <path d="M10.9090909,5.45454545 C10.9090909,2.44254545 8.46654545,0 5.45454545,0 C2.44254545,0 0,2.44254545 0,5.45454545 L10.9090909,5.45454545 L10.9090909,5.45454545 Z" id="path-3"></path>
                        </g>
                        <g id="Fill-1022-Clipped">
                            <mask id="mask-4" sketch:name="path-3" fill="white">
                                <use xlink:href="#path-3"></use>
                            </mask>
                            <g id="path-3"></g>
                            <path d="M0,0 L10.9090909,0 L10.9090909,5.45454545 L0,5.45454545 L0,0 L0,0 Z" id="Fill-1022" fill="#A4D0F3" sketch:type="MSShapeGroup" mask="url(#mask-4)"></path>
                        </g>
                    </g>
                    <path d="M31.6363636,60 L20.7272727,60 C20.124,60 19.6363636,59.5112727 19.6363636,58.9090909 C19.6363636,55.2992727 22.572,52.3636364 26.1818182,52.3636364 C29.7916364,52.3636364 32.7272727,55.2992727 32.7272727,58.9090909 C32.7272727,59.5112727 32.2396364,60 31.6363636,60 L31.6363636,60 L31.6363636,60 Z M21.9567273,57.8181818 L30.4069091,57.8181818 C29.9225455,55.9385455 28.2109091,54.5454545 26.1818182,54.5454545 C24.1527273,54.5454545 22.4410909,55.9385455 21.9567273,57.8181818 L21.9567273,57.8181818 L21.9567273,57.8181818 Z" id="Fill-1025" fill="#333333" sketch:type="MSShapeGroup"></path>
                    <g id="Group-1028" transform="translate(37.090909, 32.727273)">
                        <g id="mask-6" fill="#FFFFFF" sketch:type="MSShapeGroup">
                            <path d="M15.2727273,0 C15.2727273,4.21745455 11.8538182,7.63636364 7.63636364,7.63636364 C3.41890909,7.63636364 0,4.21745455 0,0 L15.2727273,0 L15.2727273,0 Z" id="path-5"></path>
                        </g>
                        <g id="Fill-1026-Clipped">
                            <mask id="mask-6" sketch:name="path-5" fill="white">
                                <use xlink:href="#path-5"></use>
                            </mask>
                            <g id="path-5"></g>
                            <path d="M0,0 L15.2727273,0 L15.2727273,7.63636364 L0,7.63636364 L0,0 L0,0 Z" id="Fill-1026" fill="#FF8E00" sketch:type="MSShapeGroup" mask="url(#mask-6)"></path>
                        </g>
                    </g>
                    <path d="M44.7272727,41.4545455 C39.9152727,41.4545455 36,37.5392727 36,32.7272727 C36,32.1250909 36.4876364,31.6363636 37.0909091,31.6363636 L52.3636364,31.6363636 C52.9669091,31.6363636 53.4545455,32.1250909 53.4545455,32.7272727 C53.4545455,37.5392727 49.5392727,41.4545455 44.7272727,41.4545455 L44.7272727,41.4545455 L44.7272727,41.4545455 Z M38.2723636,33.8181818 C38.7927273,36.9098182 41.4894545,39.2727273 44.7272727,39.2727273 C47.9650909,39.2727273 50.6618182,36.9098182 51.1821818,33.8181818 L38.2723636,33.8181818 L38.2723636,33.8181818 Z" id="Fill-1029" fill="#333333" sketch:type="MSShapeGroup"></path>
                    <path d="M39.3796364,33.5552727 C39.2705455,33.5552727 39.1592727,33.5389091 39.0501818,33.5029091 C38.4752727,33.3218182 38.1567273,32.7087273 38.3389091,32.1349091 L43.4018182,16.1454545 C43.5829091,15.5716364 44.1938182,15.2498182 44.7709091,15.4352727 C45.3447273,15.6163636 45.6632727,16.2294545 45.4810909,16.8043636 L40.4192727,32.7927273 C40.272,33.2574545 39.8432727,33.5552727 39.3796364,33.5552727" id="Fill-1030" fill="#333333" sketch:type="MSShapeGroup"></path>
                    <path d="M50.1425455,33.6087273 C49.68,33.6087273 49.2501818,33.312 49.1029091,32.8483636 L43.9854545,16.8174545 C43.8032727,16.2436364 44.1196364,15.6294545 44.6945455,15.4461818 C45.2650909,15.264 45.8825455,15.5803636 46.0658182,16.1541818 L51.1821818,32.1850909 C51.3643636,32.7589091 51.048,33.3730909 50.4741818,33.5563636 C50.364,33.5912727 50.2527273,33.6087273 50.1425455,33.6087273" id="Fill-1031" fill="#333333" sketch:type="MSShapeGroup"></path>
                    <g id="Group-1034" transform="translate(1.090909, 32.727273)">
                        <g id="mask-8" fill="#FFFFFF" sketch:type="MSShapeGroup">
                            <path d="M15.2727273,0 C15.2727273,4.21745455 11.8538182,7.63636364 7.63636364,7.63636364 C3.41890909,7.63636364 0,4.21745455 0,0 L15.2727273,0 L15.2727273,0 Z" id="path-7"></path>
                        </g>
                        <g id="Fill-1032-Clipped">
                            <mask id="mask-8" sketch:name="path-7" fill="white">
                                <use xlink:href="#path-7"></use>
                            </mask>
                            <g id="path-7"></g>
                            <path d="M0,0 L15.2727273,0 L15.2727273,7.63636364 L0,7.63636364 L0,0 L0,0 Z" id="Fill-1032" fill="#FF8E00" sketch:type="MSShapeGroup" mask="url(#mask-8)"></path>
                        </g>
                    </g>
                    <path d="M8.72727273,41.4545455 C3.91527273,41.4545455 0,37.5392727 0,32.7272727 C0,32.1250909 0.487636364,31.6363636 1.09090909,31.6363636 L16.3636364,31.6363636 C16.9669091,31.6363636 17.4545455,32.1250909 17.4545455,32.7272727 C17.4545455,37.5392727 13.5392727,41.4545455 8.72727273,41.4545455 L8.72727273,41.4545455 L8.72727273,41.4545455 Z M2.27236364,33.8181818 C2.79272727,36.9098182 5.48945455,39.2727273 8.72727273,39.2727273 C11.9650909,39.2727273 14.6618182,36.9098182 15.1821818,33.8181818 L2.27236364,33.8181818 L2.27236364,33.8181818 Z" id="Fill-1035" fill="#333333" sketch:type="MSShapeGroup"></path>
                    <path d="M3.37963636,33.5552727 C3.27054545,33.5552727 3.15927273,33.5389091 3.05018182,33.5029091 C2.47527273,33.3218182 2.15672727,32.7087273 2.33890909,32.1349091 L7.40181818,16.1454545 C7.584,15.5716364 8.19490909,15.2498182 8.77090909,15.4352727 C9.34472727,15.6163636 9.66327273,16.2294545 9.48109091,16.8043636 L4.41927273,32.7927273 C4.272,33.2574545 3.84327273,33.5552727 3.37963636,33.5552727" id="Fill-1036" fill="#333333" sketch:type="MSShapeGroup"></path>
                    <path d="M14.1425455,33.6087273 C13.68,33.6087273 13.2501818,33.312 13.1029091,32.8483636 L7.98545455,16.8174545 C7.80327273,16.2436364 8.11963636,15.6294545 8.69454545,15.4461818 C9.26509091,15.264 9.88254545,15.5803636 10.0658182,16.1541818 L15.1821818,32.1850909 C15.3643636,32.7589091 15.048,33.3730909 14.4741818,33.5563636 C14.364,33.5912727 14.2527273,33.6087273 14.1425455,33.6087273" id="Fill-1037" fill="#333333" sketch:type="MSShapeGroup"></path>
                </g>
            </g>
        </g>
    </g>
</svg>