<?xml version="1.0" encoding="UTF-8" standalone="no"?>
<svg width="170px" height="168px" viewBox="0 0 170 168" version="1.1" xmlns="http://www.w3.org/2000/svg" xmlns:xlink="http://www.w3.org/1999/xlink" xmlns:sketch="http://www.bohemiancoding.com/sketch/ns">
    <!-- Generator: Sketch 3.3.3 (12072) - http://www.bohemiancoding.com/sketch -->
    <title>Bed Copy 2</title>
    <desc>Created with Sketch.</desc>
    <defs></defs>
    <g id="Homepage-v2" stroke="none" stroke-width="1" fill="none" fill-rule="evenodd" sketch:type="MSPage">
        <g id="Page" sketch:type="MSArtboardGroup" transform="translate(-923.000000, -2818.000000)" stroke-width="2" stroke="#314E55">
            <g id="Services-v3" sketch:type="MSLayerGroup" transform="translate(0.000000, 2818.000000)">
                <g id="Bed-Copy-2" transform="translate(924.000000, 0.000000)" sketch:type="MSShapeGroup">
                    <g id="colored">
                        <g id="Medical">
                            <g id="Bed" transform="translate(0.000000, 0.144812)">
                                <rect id="Rectangle-171" x="0" y="29.4549112" width="21.4549112" height="137.311431"></rect>
                                <rect id="Rectangle-172" x="146.258129" y="80.946698" width="21.4549112" height="85.8196447"></rect>
                                <rect id="Rectangle-173" fill="#AF272F" x="21.4549112" y="115.274556" width="124" height="21.4500008"></rect>
                                <path d="M37.5362531,108.352113 C32.0115444,106.873878 28.7370922,101.187755 30.215825,95.676899 L30.215825,95.676899 C31.6975729,90.1548068 37.3766008,86.8763919 42.9021369,88.3548487 L62.9468986,93.7181864 C68.4716073,95.1964218 71.7460595,100.882545 70.2673267,106.393401 L70.2673267,106.393401 C68.7855788,111.915493 63.1065509,115.193908 57.5810149,113.715451 L37.5362531,108.352113 L37.5362531,108.352113 Z" id="Rectangle-174" fill="#EAEAEA"></path>
                                <g id="Rectangle-126-+-Rectangle-127-+-Rectangle-128" transform="translate(91.178344, 1.000000)">
                                    <rect id="Rectangle-126" fill="#EAEAEA" x="17.4441958" y="0" width="24.4218741" height="59.2258983" rx="2"></rect>
                                    <path d="M6.97804876,41.8065164 C3.12417885,41.8065164 -2.39129537e-16,38.717869 0,34.8181425 L6.38360384e-16,24.4077558 C8.75027685e-16,20.5481835 3.10527064,17.4193819 6.97804876,17.4193819 L52.3322169,17.4193819 C56.1860868,17.4193819 59.3102657,20.5080293 59.3102657,24.4077558 L59.3102657,34.8181425 C59.3102657,38.6777148 56.204995,41.8065164 52.3322169,41.8065164 L6.97804876,41.8065164 L6.97804876,41.8065164 Z" id="Rectangle-127" fill="#EAEAEA"></path>
                                    <rect id="Rectangle-128" fill="#AF272F" x="17.4441958" y="17.4193819" width="24.4218741" height="24.3871346"></rect>
                                </g>
                            </g>
                        </g>
                    </g>
                </g>
            </g>
        </g>
    </g>
</svg>