<?xml version="1.0" encoding="UTF-8" standalone="no"?>
<svg width="54px" height="54px" viewBox="0 0 54 54" version="1.1" xmlns="http://www.w3.org/2000/svg" xmlns:xlink="http://www.w3.org/1999/xlink" xmlns:sketch="http://www.bohemiancoding.com/sketch/ns">
    <!-- Generator: Sketch 3.3.3 (12072) - http://www.bohemiancoding.com/sketch -->
    <title>Billpaid</title>
    <desc>Created with Sketch.</desc>
    <defs>
        <path id="path-1" d="M22.5789474,6 L26.0526316,0 L29.5263158,6 L33,0 L36.4736842,6 L39.9473684,0 L43.4210526,6 L44,6 L44,50 L0,50 L0,6 L0.578947368,6 L4.05263158,0 L7.52631579,6 L11,0 L14.4736842,6 L17.9473684,0 L21.4210526,6 L22.5789474,6 L22.5789474,6 Z"></path>
        <path id="path-3" d="M0,1 L16.372093,1 L15.3488372,0 L15.3488372,6 L16.372093,5 L0,5 L1.02325581,6 L1.02325581,0 L0,1 L0,1 Z"></path>
    </defs>
    <g id="Page-1" stroke="none" stroke-width="1" fill="none" fill-rule="evenodd" sketch:type="MSPage">
        <g id="Billpaid" sketch:type="MSLayerGroup" transform="translate(6.000000, 3.000000)">
            <g id="Group-3">
                <mask id="mask-2" sketch:name="Clip 2" fill="white">
                    <use xlink:href="#path-1"></use>
                </mask>
                <g id="Clip-2"></g>
                <path d="M-0.0818604651,-0.06 L43.9181395,-0.06 L43.9181395,50.0999998 L-0.0818604651,50.0999998 L-0.0818604651,-0.06 Z" id="Fill-1" fill="#F3F6F7" sketch:type="MSShapeGroup" mask="url(#mask-2)"></path>
            </g>
            <path d="M22.5789474,6 L26.0526316,0 L29.5263158,6 L33,0 L36.4736842,6 L39.9473684,0 L43.4210526,6 L44,6 L44,50 L0,50 L0,6 L0.578947368,6 L4.05263158,0 L7.52631579,6 L11,0 L14.4736842,6 L17.9473684,0 L21.4210526,6 L22.5789474,6 L22.5789474,6 Z M20.4186047,18 L34.744186,18 L20.4186047,18 Z M20.4186047,23 L34.744186,23 L20.4186047,23 Z M20.4186047,28 L34.744186,28 L20.4186047,28 Z M20.4186047,33 L34.744186,33 L20.4186047,33 Z M7.2226365,30.2014266 L11.5446113,32.4315314 L15.7688186,20.6746409" id="Stroke-4" stroke="#2F4E55" stroke-width="2" sketch:type="MSShapeGroup"></path>
            <g id="Group-8" transform="translate(19.395349, 37.000000)">
                <mask id="mask-4" sketch:name="Clip 7" fill="white">
                    <use xlink:href="#path-3"></use>
                </mask>
                <g id="Clip-7"></g>
                <path d="M0,0 L16.372093,0 L16.372093,6 L0,6 L0,0 Z" id="Fill-6" fill="#AF272F" sketch:type="MSShapeGroup" mask="url(#mask-4)"></path>
            </g>
            <path d="M19.3953488,37 L35.7674419,37 L35.7674419,43 L19.3953488,43 L19.3953488,37 Z" id="Stroke-9" stroke="#2F4E55" stroke-width="2" stroke-linecap="round" stroke-linejoin="round" sketch:type="MSShapeGroup"></path>
        </g>
    </g>
</svg>