<?xml version="1.0" encoding="UTF-8" standalone="no"?>
<svg width="170px" height="171px" viewBox="0 0 170 171" version="1.1" xmlns="http://www.w3.org/2000/svg" xmlns:xlink="http://www.w3.org/1999/xlink" xmlns:sketch="http://www.bohemiancoding.com/sketch/ns">
    <!-- Generator: Sketch 3.3.3 (12072) - http://www.bohemiancoding.com/sketch -->
    <title>billpaid</title>
    <desc>Created with Sketch.</desc>
    <defs></defs>
    <g id="Page-1" stroke="none" stroke-width="1" fill="none" fill-rule="evenodd" sketch:type="MSPage">
        <g id="billpaid" sketch:type="MSLayerGroup" transform="translate(-1.000000, 0.000000)" stroke-width="2" stroke="#333333">
            <g id="Homepage-v2" sketch:type="MSShapeGroup">
                <g id="Page">
                    <g id="Services-v3">
                        <g id="Billpaid-Copy-2">
                            <g id="colored">
                                <g id="Marketing" transform="translate(0.788833, 0.474449)">
                                    <g id="Billpaid" transform="translate(1.000000, 1.000000)">
                                        <path d="M86.7004049,21.0407101 L99.8850825,1 L113.06976,21.0407101 L126.254438,1 L139.439116,21.0407101 L152.623793,1 L165.808471,21.0407101 L168.005917,21.0407101 L168.005917,168.005917 L1,168.005917 L1,21.0407101 L3.19744628,21.0407101 L16.3821239,1 L29.5668016,21.0407101 L42.7514793,1 L55.936157,21.0407101 L69.1208346,1 L82.3055123,21.0407101 L86.7004049,21.0407101 L86.7004049,21.0407101 Z" id="Triangle-45"></path>
                                        <path d="M67.5438134,57.7305003 L141.394229,57.7305003" id="Line"></path>
                                        <path d="M67.5438134,73.4889726 L141.394229,73.4889726" id="Line"></path>
                                        <path d="M67.5438134,89.2474449 L141.394229,89.2474449" id="Line"></path>
                                        <path d="M67.5438134,105.005917 L141.394229,105.005917" id="Line"></path>
                                        <path d="M16.1162683,97.1766029 L29.5218549,103.608855 L42.9274442,66.5626818" id="Path-3636"></path>
                                        <rect id="Rectangle-1622" fill="#B20608" x="64.3992031" y="117.612695" width="80.1330184" height="18.9101668"></rect>
                                    </g>
                                </g>
                            </g>
                        </g>
                    </g>
                </g>
            </g>
        </g>
    </g>
</svg>