<?xml version="1.0" encoding="UTF-8" standalone="no"?>
<svg width="170px" height="171px" viewBox="0 0 170 171" version="1.1" xmlns="http://www.w3.org/2000/svg" xmlns:xlink="http://www.w3.org/1999/xlink" xmlns:sketch="http://www.bohemiancoding.com/sketch/ns">
    <!-- Generator: Sketch 3.3.3 (12072) - http://www.bohemiancoding.com/sketch -->
    <title>Billpaid Copy 2</title>
    <desc>Created with Sketch.</desc>
    <defs></defs>
    <g id="Homepage-v2" stroke="none" stroke-width="1" fill="none" fill-rule="evenodd" sketch:type="MSPage">
        <g id="Page" sketch:type="MSArtboardGroup" transform="translate(-1213.000000, -2816.000000)" stroke-width="2" stroke="#314E55">
            <g id="Services-v3" sketch:type="MSLayerGroup" transform="translate(0.000000, 2818.000000)">
                <g id="Billpaid-Copy-2" transform="translate(1214.000000, 0.000000)" sketch:type="MSShapeGroup">
                    <g id="colored">
                        <g id="Marketing" transform="translate(0.788833, 0.474449)">
                            <g id="Billpaid">
                                <path d="M85.7004049,20.0407101 L98.8850825,0 L112.06976,20.0407101 L125.254438,0 L138.439116,20.0407101 L151.623793,0 L164.808471,20.0407101 L167.005917,20.0407101 L167.005917,167.005917 L0,167.005917 L0,20.0407101 L2.19744628,20.0407101 L15.3821239,0 L28.5668016,20.0407101 L41.7514793,0 L54.936157,20.0407101 L68.1208346,0 L81.3055123,20.0407101 L85.7004049,20.0407101 L85.7004049,20.0407101 Z" id="Triangle-45"></path>
                                <path d="M66.5438134,56.7305003 L140.394229,56.7305003" id="Line"></path>
                                <path d="M66.5438134,72.4889726 L140.394229,72.4889726" id="Line"></path>
                                <path d="M66.5438134,88.2474449 L140.394229,88.2474449" id="Line"></path>
                                <path d="M66.5438134,104.005917 L140.394229,104.005917" id="Line"></path>
                                <path d="M15.1162683,96.1766029 L28.5218549,102.608855 L41.9274442,65.5626818" id="Path-3636"></path>
                                <rect id="Rectangle-1622" fill="#009CDE" x="63.3992031" y="116.612695" width="80.1330184" height="18.9101668"></rect>
                            </g>
                        </g>
                    </g>
                </g>
            </g>
        </g>
    </g>
</svg>