<?xml version="1.0" encoding="UTF-8" standalone="no"?>
<svg width="60px" height="60px" viewBox="0 0 60 60" version="1.1" xmlns="http://www.w3.org/2000/svg" xmlns:xlink="http://www.w3.org/1999/xlink" xmlns:sketch="http://www.bohemiancoding.com/sketch/ns">
    <!-- Generator: Sketch 3.3.3 (12072) - http://www.bohemiancoding.com/sketch -->
    <title>Browsertool</title>
    <desc>Created with Sketch.</desc>
    <defs>
        <path id="path-1" d="M16.9627569,16.6174774 C20.0929651,18.3990299 24.1268225,17.9365712 26.7889241,15.2301012 C29.0195536,12.9633291 29.7003434,9.71577205 28.8302757,6.85101081 L22.9138159,12.8671129 L17.4878503,7.35071456 L23.4053278,1.33564708 C20.5875299,0.452112915 17.3942291,1.14321458 15.1635995,3.41102124 C12.3641189,6.25715998 12.0059155,10.6437933 14.0879721,13.8851429 L0.437577868,26.2618633 L4.70040039,30.5957328 L16.9627569,16.6174774"></path>
    </defs>
    <g id="Page-1" stroke="none" stroke-width="1" fill="none" fill-rule="evenodd" sketch:type="MSPage">
        <g id="Browsertool" sketch:type="MSLayerGroup">
            <g id="Page-1">
                <g id="Browsertool">
                    <g id="colored">
                        <g id="Imported-Layers">
                            <path d="M1.01762295,9.31124997 L59.0176229,9.31124997 L59.0176229,58.6212513 L1.01762295,58.6212513 L1.01762295,9.31124997 L1.01762295,9.31124997 Z" id="Fill-1079" fill="#F3F6F7" sketch:type="MSShapeGroup"></path>
                            <path d="M0,8.27666664 L60,8.27666664 L60,59.6566677 L0,59.6566677 L0,8.27666664 L0,8.27666664 Z M2.06896552,57.0876677 L57.9310345,57.0876677 L57.9310345,10.8456667 L2.06896552,10.8456667 L2.06896552,57.0876677 L2.06896552,57.0876677 Z" id="Fill-1081" fill="#333333" sketch:type="MSShapeGroup"></path>
                            <path d="M1.01762295,1.03458333 L59.0176229,1.03458333 L59.0176229,9.31458306 L1.01762295,9.31458306 L1.01762295,1.03458333 L1.01762295,1.03458333 Z" id="Fill-1082" fill="#D4D4D4" sketch:type="MSShapeGroup"></path>
                            <path d="M0,0 L60,0 L60,10.3500004 L0,10.3500004 L0,0 L0,0 Z M2.06896552,8.28000031 L57.9310345,8.28000031 L57.9310345,2.07000008 L2.06896552,2.07000008 L2.06896552,8.28000031 L2.06896552,8.28000031 Z" id="Fill-1084" fill="#333333" sketch:type="MSShapeGroup"></path>
                            <path d="M5.08811474,7.24208331 C3.96669425,7.24208331 3.05286884,6.31406206 3.05286884,5.17291665 C3.05286884,4.03177124 3.96669425,3.10374999 5.08811474,3.10374999 C6.20953523,3.10374999 7.12336063,4.03177124 7.12336063,5.17291665 C7.12336063,6.31406206 6.20953523,7.24208331 5.08811474,7.24208331" id="Fill-1085" fill="#333333" sketch:type="MSShapeGroup"></path>
                            <path d="M10.1762295,7.24208331 C9.05480899,7.24208331 8.14098358,6.31406206 8.14098358,5.17291665 C8.14098358,4.03177124 9.05480899,3.10374999 10.1762295,3.10374999 C11.2976499,3.10374999 12.2114754,4.03177124 12.2114754,5.17291665 C12.2114754,6.31406206 11.2976499,7.24208331 10.1762295,7.24208331" id="Fill-1086" fill="#333333" sketch:type="MSShapeGroup"></path>
                            <path d="M15.2643443,7.24208331 C14.1429237,7.24208331 13.2290983,6.31406206 13.2290983,5.17291665 C13.2290983,4.03177124 14.1429237,3.10374999 15.2643443,3.10374999 C16.3857647,3.10374999 17.2995901,4.03177124 17.2995901,5.17291665 C17.2995901,6.31406206 16.3857647,7.24208331 15.2643443,7.24208331" id="Fill-1087" fill="#333333" sketch:type="MSShapeGroup"></path>
                            <g id="Group-1090" transform="translate(15.246722, 17.449583)">
                                <g id="mask-2" transform="translate(0.000000, 0.000000)" fill="#FFFFFF" sketch:type="MSShapeGroup">
                                    <path d="M16.9627569,16.6174774 C20.0929651,18.3990299 24.1268225,17.9365712 26.7889241,15.2301012 C29.0195536,12.9633291 29.7003434,9.71577205 28.8302757,6.85101081 L22.9138159,12.8671129 L17.4878503,7.35071456 L23.4053278,1.33564708 C20.5875299,0.452112915 17.3942291,1.14321458 15.1635995,3.41102124 C12.3641189,6.25715998 12.0059155,10.6437933 14.0879721,13.8851429 L0.437577868,26.2618633 L4.70040039,30.5957328 L16.9627569,16.6174774" id="path-1"></path>
                                </g>
                                <g id="Fill-1088-Clipped" transform="translate(0.000000, 0.000000)">
                                    <g id="mask-2" transform="translate(0.000000, 0.000000)" fill="#FFFFFF" sketch:type="MSShapeGroup">
                                        <path d="M16.9627569,16.6174774 C20.0929651,18.3990299 24.1268225,17.9365712 26.7889241,15.2301012 C29.0195536,12.9633291 29.7003434,9.71577205 28.8302757,6.85101081 L22.9138159,12.8671129 L17.4878503,7.35071456 L23.4053278,1.33564708 C20.5875299,0.452112915 17.3942291,1.14321458 15.1635995,3.41102124 C12.3641189,6.25715998 12.0059155,10.6437933 14.0879721,13.8851429 L0.437577868,26.2618633 L4.70040039,30.5957328 L16.9627569,16.6174774" id="path-1"></path>
                                    </g>
                                    <g transform="translate(0.000000, 0.000000)">
                                        <mask id="mask-2" sketch:name="path-1" fill="white">
                                            <use xlink:href="#path-1"></use>
                                        </mask>
                                        <use id="path-1" fill="#80BD0D" sketch:type="MSShapeGroup" xlink:href="#path-1"></use>
                                    </g>
                                </g>
                            </g>
                            <path d="M19.9471216,49.0798994 C19.6774515,49.0798994 19.4189754,48.9712682 19.2276622,48.7767665 L14.9648397,44.442897 C14.7664032,44.2411532 14.6585352,43.965954 14.6666762,43.6814436 C14.6737995,43.3969332 14.7979496,43.1289761 15.0065623,42.9396474 L28.0351888,31.1257403 C26.1902385,27.5367708 26.8262528,23.0415062 29.6898437,20.1291541 C31.4350671,18.3548437 33.7552474,17.378197 36.2219654,17.378197 C37.1490199,17.378197 38.0679335,17.5189004 38.9522478,17.7961687 C39.2931515,17.9027308 39.553663,18.1831029 39.6401609,18.5358958 C39.7256412,18.8876541 39.623879,19.2601041 39.3715085,19.5166808 L34.1745081,24.8002979 L38.1605372,28.8527608 L43.3575375,23.5691437 C43.6099081,23.312567 43.9782876,23.2091087 44.3212265,23.2960137 C44.668236,23.3829187 44.9450293,23.6488066 45.0488269,23.995392 C46.0623793,27.3339924 45.1831531,30.9426191 42.7540871,33.4111349 C41.0098814,35.1854453 38.6897011,36.162092 36.2219654,36.162092 C34.9204257,36.162092 33.6310975,35.8817199 32.4506548,35.3458057 L20.7062684,48.733314 C20.521061,48.9464382 20.2564791,49.0705882 19.9766327,49.0788649 C19.9664565,49.0798994 19.9572979,49.0798994 19.9471216,49.0798994 L19.9471216,49.0798994 L19.9471216,49.0798994 Z M17.1659582,43.7538645 L19.9043815,46.5389628 L31.4503315,33.3780282 C31.7688475,33.0159241 32.2919056,32.9279845 32.7060782,33.1638695 C33.7745823,33.7711699 34.9896241,34.0929253 36.2219654,34.0929253 C38.1462905,34.0929253 39.9546065,33.331472 41.3151683,31.9482341 C42.7713867,30.4677453 43.5132339,28.4637574 43.4196126,26.4318358 L38.8799966,31.0481466 C38.498388,31.4361153 37.8226864,31.4361153 37.4410778,31.0481466 L32.0161298,25.5317483 C31.6182392,25.1272262 31.6182392,24.4733695 32.0161298,24.0688474 L36.5526929,19.4556404 C34.5184646,19.352182 32.5676815,20.1301887 31.1287627,21.5920549 C28.7332782,24.0295333 28.3364052,27.8885291 30.1864438,30.7688091 C30.461202,31.1971266 30.3879331,31.7651128 30.0124302,32.1065253 L17.1659582,43.7538645 L17.1659582,43.7538645 Z" id="Fill-1091" fill="#333333" sketch:type="MSShapeGroup"></path>
                        </g>
                    </g>
                </g>
            </g>
        </g>
    </g>
</svg>