<?xml version="1.0" encoding="UTF-8" standalone="no"?>
<svg width="60px" height="60px" viewBox="0 0 60 60" version="1.1" xmlns="http://www.w3.org/2000/svg" xmlns:xlink="http://www.w3.org/1999/xlink" xmlns:sketch="http://www.bohemiancoding.com/sketch/ns">
    <!-- Generator: Sketch 3.3.3 (12072) - http://www.bohemiancoding.com/sketch -->
    <title>colored</title>
    <desc>Created with Sketch.</desc>
    <defs>
        <path id="path-1" d="M17.2454695,16.6174774 C20.4278479,18.3990299 24.5289362,17.9365712 27.2354062,15.2301012 C29.5032128,12.9633291 30.1953491,9.71577205 29.3107803,6.85101081 L23.2957128,12.8671129 L17.7793145,7.35071456 L23.7954166,1.33564708 C20.9306554,0.452112915 17.6841329,1.14321458 15.4163262,3.41102124 C12.5701875,6.25715998 12.2060141,10.6437933 14.3227716,13.8851429 L0.444870832,26.2618633 L4.7787404,30.5957328 L17.2454695,16.6174774"></path>
    </defs>
    <g id="Page-1" stroke="none" stroke-width="1" fill="none" fill-rule="evenodd" sketch:type="MSPage">
        <g id="Browsertool" sketch:type="MSLayerGroup">
            <g id="colored" transform="translate(0.000000, 5.000000)">
                <g id="Imported-Layers">
                    <path d="M1.03458333,9.31124997 L58.9712498,9.31124997 L58.9712498,48.6254165 L1.03458333,48.6254165 L1.03458333,9.31124997 L1.03458333,9.31124997 Z" id="Fill-1079" fill="#F3F6F7" sketch:type="MSShapeGroup"></path>
                    <path d="M0,8.27666664 L60.0058331,8.27666664 L60.0058331,49.6599998 L0,49.6599998 L0,8.27666664 L0,8.27666664 Z M2.06916666,47.5908332 L57.9366665,47.5908332 L57.9366665,10.3458333 L2.06916666,10.3458333 L2.06916666,47.5908332 L2.06916666,47.5908332 Z" id="Fill-1081" fill="#333333" sketch:type="MSShapeGroup"></path>
                    <path d="M1.03458333,1.03458333 L58.9712498,1.03458333 L58.9712498,9.31124997 L1.03458333,9.31124997 L1.03458333,1.03458333 L1.03458333,1.03458333 Z" id="Fill-1082" fill="#D4D4D4" sketch:type="MSShapeGroup"></path>
                    <path d="M0,0 L60.0058331,0 L60.0058331,10.3458333 L0,10.3458333 L0,0 L0,0 Z M2.06916666,8.27666664 L57.9366665,8.27666664 L57.9366665,2.06916666 L2.06916666,2.06916666 L2.06916666,8.27666664 L2.06916666,8.27666664 Z" id="Fill-1084" fill="#333333" sketch:type="MSShapeGroup"></path>
                    <path d="M5.17291665,7.24208331 C4.03280582,7.24208331 3.10374999,6.31406206 3.10374999,5.17291665 C3.10374999,4.03177124 4.03280582,3.10374999 5.17291665,3.10374999 C6.31302748,3.10374999 7.24208331,4.03177124 7.24208331,5.17291665 C7.24208331,6.31406206 6.31302748,7.24208331 5.17291665,7.24208331" id="Fill-1085" fill="#333333" sketch:type="MSShapeGroup"></path>
                    <path d="M10.3458333,7.24208331 C9.20572247,7.24208331 8.27666664,6.31406206 8.27666664,5.17291665 C8.27666664,4.03177124 9.20572247,3.10374999 10.3458333,3.10374999 C11.4859441,3.10374999 12.415,4.03177124 12.415,5.17291665 C12.415,6.31406206 11.4859441,7.24208331 10.3458333,7.24208331" id="Fill-1086" fill="#333333" sketch:type="MSShapeGroup"></path>
                    <path d="M15.51875,7.24208331 C14.3786391,7.24208331 13.4495833,6.31406206 13.4495833,5.17291665 C13.4495833,4.03177124 14.3786391,3.10374999 15.51875,3.10374999 C16.6588608,3.10374999 17.5879166,4.03177124 17.5879166,5.17291665 C17.5879166,6.31406206 16.6588608,7.24208331 15.51875,7.24208331" id="Fill-1087" fill="#333333" sketch:type="MSShapeGroup"></path>
                    <g id="Group-1090" transform="translate(14.484167, 13.449583)">
                        <g id="mask-2" transform="translate(0.000000, 0.000000)" fill="#FFFFFF" sketch:type="MSShapeGroup">
                            <path d="M17.2454695,16.6174774 C20.4278479,18.3990299 24.5289362,17.9365712 27.2354062,15.2301012 C29.5032128,12.9633291 30.1953491,9.71577205 29.3107803,6.85101081 L23.2957128,12.8671129 L17.7793145,7.35071456 L23.7954166,1.33564708 C20.9306554,0.452112915 17.6841329,1.14321458 15.4163262,3.41102124 C12.5701875,6.25715998 12.2060141,10.6437933 14.3227716,13.8851429 L0.444870832,26.2618633 L4.7787404,30.5957328 L17.2454695,16.6174774" id="path-1"></path>
                        </g>
                        <g id="Fill-1088-Clipped" transform="translate(0.000000, 0.000000)">
                            <mask id="mask-2" sketch:name="path-1" fill="white">
                                <use xlink:href="#path-1"></use>
                            </mask>
                            <g id="path-1"></g>
                            <path d="M20.6440758,-9.13226706 L39.7786945,10.0023516 L8.32425747,41.4567886 L-10.8103612,22.3221699 L20.6440758,-9.13226706" id="Fill-1088" fill="#80BD0D" sketch:type="MSShapeGroup" mask="url(#mask-2)"></path>
                        </g>
                    </g>
                    <path d="M19.262907,45.0798994 C18.9887424,45.0798994 18.7259583,44.9712682 18.5314566,44.7767665 L14.197587,40.442897 C13.9958433,40.2411532 13.8861775,39.965954 13.8944541,39.6814436 C13.9016962,39.3969332 14.0279154,39.1289761 14.240005,38.9396474 L27.4857753,27.1257403 C25.6100758,23.5367708 26.2566903,19.0415062 29.1680078,16.1291541 C30.9423182,14.3548437 33.3011682,13.378197 35.8089982,13.378197 C36.7515036,13.378197 37.6857324,13.5189004 38.5847853,13.7961687 C38.9313707,13.9027308 39.196224,14.1831029 39.2841636,14.5358958 C39.3710686,14.8876541 39.2676103,15.2601041 39.0110336,15.5166808 L33.7274166,20.8002979 L37.7798795,24.8527608 L43.0634965,19.5691437 C43.3200732,19.312567 43.6945924,19.2091087 44.0432469,19.2960137 C44.3960399,19.3829187 44.6774465,19.6488066 44.782974,19.995392 C45.813419,23.3339924 44.919539,26.9426191 42.4499886,29.4111349 C40.6767128,31.1854453 38.3178628,32.162092 35.8089982,32.162092 C34.4857661,32.162092 33.1749491,31.8817199 31.9748324,31.3458057 L20.0347062,44.733314 C19.846412,44.9464382 19.5774204,45.0705882 19.2929099,45.0788649 C19.2825641,45.0798994 19.2732529,45.0798994 19.262907,45.0798994 L19.262907,45.0798994 L19.262907,45.0798994 Z M16.4353908,39.7538645 L19.2194545,42.5389628 L30.957837,29.3780282 C31.2816616,29.0159241 31.8134374,28.9279845 32.2345128,29.1638695 C33.3208253,29.7711699 34.5561178,30.0929253 35.8089982,30.0929253 C37.7653953,30.0929253 39.6038499,29.331472 40.9870878,27.9482341 C42.4675765,26.4677453 43.2217878,24.4637574 43.1266061,22.4318358 L38.5113299,27.0481466 C38.1233611,27.4361153 37.4363978,27.4361153 37.0484291,27.0481466 L31.5330653,21.5317483 C31.1285432,21.1272262 31.1285432,20.4733695 31.5330653,20.0688474 L36.1452378,15.4556404 C34.0771057,15.352182 32.0938095,16.1301887 30.6309087,17.5920549 C28.1954995,20.0295333 27.792012,23.8885291 29.6728845,26.7688091 C29.952222,27.1971266 29.877732,27.7651128 29.4959707,28.1065253 L16.4353908,39.7538645 L16.4353908,39.7538645 Z" id="Fill-1091" fill="#333333" sketch:type="MSShapeGroup"></path>
                </g>
            </g>
        </g>
    </g>
</svg>