<?xml version="1.0" encoding="UTF-8" standalone="no"?>
<svg width="56px" height="60px" viewBox="0 0 56 60" version="1.1" xmlns="http://www.w3.org/2000/svg" xmlns:xlink="http://www.w3.org/1999/xlink" xmlns:sketch="http://www.bohemiancoding.com/sketch/ns">
    <!-- Generator: Sketch 3.3.3 (12072) - http://www.bohemiancoding.com/sketch -->
    <title>datawork</title>
    <desc>Created with Sketch.</desc>
    <defs>
        <path d="M14.1947368,16 C15.8808071,16 17.2473685,14.657 17.2473685,13 C17.2473685,11.343 15.8808071,10 14.1947368,10 C12.5086667,10 11.1421053,11.343 11.1421053,13 C11.1421053,14.657 12.5086667,16 14.1947368,16 L14.1947368,16 L14.1947368,16 Z M8.58298246,21.343 L7.71705263,22.195 C6.92336842,22.974 5.64126315,22.979 4.84147368,22.192 C4.04677193,21.411 4.04575439,20.145 4.83842105,19.366 L5.70536842,18.515 C4.99817544,17.465 4.48635088,16.277 4.22280701,15 L2.99870175,15 C1.87635088,15 0.966666667,14.112 0.966666667,13 C0.966666667,11.895 1.87736842,11 2.99870175,11 L4.22280701,11 C4.48635088,9.723 4.99817544,8.535 5.70536842,7.485 L4.83842105,6.634 C4.04575439,5.854 4.04066667,4.594 4.84147368,3.808 C5.63617544,3.027 6.92438596,3.026 7.71705263,3.805 L8.58298246,4.657 C9.65140351,3.962 10.8602456,3.459 12.1596492,3.2 L12.1596492,1.997 C12.1596492,0.894 13.0632281,0 14.1947368,0 C15.3191228,0 16.2298246,0.895 16.2298246,1.997 L16.2298246,3.2 C17.5292281,3.459 18.7380701,3.962 19.8064912,4.657 L20.6724211,3.805 C21.4661053,3.026 22.7482105,3.021 23.548,3.808 C24.3427018,4.589 24.3437193,5.855 23.5510526,6.634 L22.6841053,7.485 C23.3912982,8.535 23.9031228,9.723 24.1666667,11 L25.3907719,11 C26.5131228,11 27.4228071,11.888 27.4228071,13 C27.4228071,14.105 26.5121053,15 25.3907719,15 L24.1666667,15 C23.9031228,16.277 23.3912982,17.465 22.6841053,18.515 L23.5510526,19.366 C24.3437193,20.146 24.3488071,21.406 23.548,22.192 C22.7532982,22.973 21.4650878,22.974 20.6724211,22.195 L19.8064912,21.343 C18.7380701,22.038 17.5292281,22.541 16.2298246,22.8 L16.2298246,24.003 C16.2298246,25.106 15.3262456,26 14.1947368,26 C13.0703508,26 12.1596492,25.105 12.1596492,24.003 L12.1596492,22.8 C10.8602456,22.541 9.65140351,22.038 8.58298246,21.343 L8.58298246,21.343 L8.58298246,21.343 Z" id="path-1"></path>
        <path d="M15.0884211,16.918 C16.8694737,16.496 17.9526316,14.783 17.5084211,13.092 C17.0642105,11.401 15.2610526,10.372 13.4810526,10.793 C11.7010526,11.215 10.6178947,12.928 11.0621053,14.619 C11.5052632,16.31 13.3084211,17.34 15.0884211,16.918 M10.5947368,23.776 L9.90842105,24.861 C9.27894737,25.856 7.92631579,26.181 6.87052632,25.578 C5.82210526,24.98 5.48315789,23.688 6.11157895,22.694 L6.79789474,21.608 C5.76947368,20.714 4.91157895,19.629 4.29157895,18.391 L2.99894737,18.697 C1.81368421,18.978 0.614736842,18.3 0.316842105,17.164 C0.0210526316,16.037 0.743157895,14.895 1.92736842,14.614 L3.21894737,14.308 C3.15578947,12.939 3.37684211,11.598 3.84315789,10.35 L2.7,9.698 C1.65368421,9.1 1.31052632,7.815 1.94526316,6.812 C2.57578947,5.816 3.93578947,5.493 4.98210526,6.091 L6.12421053,6.743 C7.06631579,5.766 8.20842105,4.951 9.51052632,4.361 L9.18842105,3.133 C8.89263158,2.008 9.60736842,0.869 10.8021053,0.586 C11.9894737,0.305 13.1915789,0.99 13.4863158,2.115 L13.8084211,3.343 C15.2494737,3.283 16.6610526,3.493 17.9757895,3.936 L18.6621053,2.85 C19.2915789,1.856 20.6442105,1.53 21.7,2.133 C22.7473684,2.732 23.0873684,4.024 22.4589474,5.017 L21.7726316,6.103 C22.8,6.998 23.6589474,8.083 24.2789474,9.32 L25.5715789,9.014 C26.7568421,8.733 27.9547368,9.412 28.2536842,10.547 C28.5494737,11.675 27.8273684,12.816 26.6431579,13.097 L25.3505263,13.403 C25.4136842,14.772 25.1926316,16.113 24.7273684,17.362 L25.8694737,18.014 C26.9168421,18.611 27.2589474,19.896 26.6242105,20.899 C25.9947368,21.895 24.6347368,22.218 23.5884211,21.621 L22.4452632,20.969 C21.5042105,21.945 20.3621053,22.761 19.0589474,23.35 L19.3821053,24.578 C19.6768421,25.704 18.9631579,26.842 17.7673684,27.125 C16.5810526,27.407 15.3789474,26.721 15.0842105,25.596 L14.7610526,24.368 C13.32,24.428 11.9084211,24.218 10.5947368,23.776" id="path-3"></path>
        <path d="M14.2915789,12.969 C15.1589474,11.835 14.8936842,10.247 13.7,9.423 C12.5063158,8.599 10.8357895,8.851 9.96736842,9.985 C9.1,11.119 9.36526316,12.707 10.5589474,13.531 C11.7526316,14.355 13.4242105,14.103 14.2915789,12.969 M15.2547368,19.402 L15.4221053,20.408 C15.5757895,21.33 14.9189474,22.194 13.9410526,22.341 C12.9694737,22.488 12.0568421,21.858 11.9031579,20.937 L11.7357895,19.931 C10.6147368,19.885 9.49578947,19.638 8.44,19.18 L7.81052632,20.004 C7.23263158,20.759 6.12526316,20.929 5.32421053,20.376 C4.52736842,19.827 4.35052632,18.769 4.92842105,18.014 L5.55789474,17.191 C4.77368421,16.378 4.18,15.443 3.78736842,14.445 L2.72842105,14.605 C1.75789474,14.751 0.848421053,14.127 0.693684211,13.198 C0.538947368,12.275 1.20210526,11.408 2.17157895,11.262 L3.23052632,11.103 C3.27894737,10.038 3.53894737,8.975 4.02105263,7.972 L3.15368421,7.374 C2.35894737,6.825 2.18,5.773 2.76210526,5.011 C3.34,4.255 4.45368421,4.087 5.24842105,4.635 L6.11473684,5.234 C6.97052632,4.489 7.95473684,3.925 9.00526316,3.552 L8.83684211,2.546 C8.68315789,1.624 9.34,0.76 10.3178947,0.612 C11.2905263,0.466 12.2021053,1.096 12.3557895,2.017 L12.5242105,3.023 C13.6442105,3.069 14.7631579,3.316 15.8189474,3.774 L16.4484211,2.95 C17.0263158,2.195 18.1336842,2.025 18.9357895,2.578 C19.7315789,3.127 19.9084211,4.185 19.3315789,4.939 L18.7010526,5.763 C19.4852632,6.575 20.0789474,7.51 20.4715789,8.508 L21.5305263,8.349 C22.5010526,8.203 23.4105263,8.827 23.5663158,9.756 C23.72,10.679 23.0568421,11.546 22.0873684,11.692 L21.0284211,11.851 C20.98,12.916 20.72,13.979 20.2378947,14.982 L21.1052632,15.58 C21.9,16.129 22.08,17.181 21.4968421,17.943 C20.9189474,18.699 19.8052632,18.867 19.0105263,18.318 L18.1442105,17.72 C17.2894737,18.465 16.3052632,19.029 15.2547368,19.402" id="path-5"></path>
    </defs>
    <g id="Page-1" stroke="none" stroke-width="1" fill="none" fill-rule="evenodd" sketch:type="MSPage">
        <g id="datawork" sketch:type="MSLayerGroup" transform="translate(-2.000000, 0.000000)">
            <g id="Page-1">
                <g id="Datawork">
                    <g id="colored">
                        <g id="Imported-Layers">
                            <g id="Group-684" transform="translate(0.052632, 33.000000)">
                                <g id="Fill-682-Clipped" transform="translate(0.967742, 0.000000)">
                                    <g id="mask-2" transform="translate(1.933333, 0.000000)" fill="#FFFFFF" sketch:type="MSShapeGroup">
                                        <path d="M13.2280702,16 C14.9141404,16 16.2807018,14.657 16.2807018,13 C16.2807018,11.343 14.9141404,10 13.2280702,10 C11.542,10 10.1754386,11.343 10.1754386,13 C10.1754386,14.657 11.542,16 13.2280702,16 L13.2280702,16 L13.2280702,16 Z M7.61631579,21.343 L6.75038596,22.195 C5.95670175,22.974 4.67459649,22.979 3.87480701,22.192 C3.08010526,21.411 3.07908772,20.145 3.87175439,19.366 L4.73870175,18.515 C4.03150878,17.465 3.51968421,16.277 3.25614035,15 L2.03203508,15 C0.909684211,15 0,14.112 0,13 C0,11.895 0.910701754,11 2.03203508,11 L3.25614035,11 C3.51968421,9.723 4.03150878,8.535 4.73870175,7.485 L3.87175439,6.634 C3.07908772,5.854 3.074,4.594 3.87480701,3.808 C4.66950878,3.027 5.95771929,3.026 6.75038596,3.805 L7.61631579,4.657 C8.68473685,3.962 9.89357891,3.459 11.1929825,3.2 L11.1929825,1.997 C11.1929825,0.894 12.0965614,0 13.2280701,0 C14.3524561,0 15.2631579,0.895 15.2631579,1.997 L15.2631579,3.2 C16.5625614,3.459 17.7714035,3.962 18.8398246,4.657 L19.7057544,3.805 C20.4994386,3.026 21.7815439,3.021 22.5813333,3.808 C23.3760351,4.589 23.3770526,5.855 22.584386,6.634 L21.7174386,7.485 C22.4246315,8.535 22.9364561,9.723 23.2,11 L24.4241053,11 C25.5464561,11 26.4561404,11.888 26.4561404,13 C26.4561404,14.105 25.5454386,15 24.4241053,15 L23.2,15 C22.9364561,16.277 22.4246315,17.465 21.7174386,18.515 L22.584386,19.366 C23.3770526,20.146 23.3821404,21.406 22.5813333,22.192 C21.7866315,22.973 20.4984211,22.974 19.7057544,22.195 L18.8398246,21.343 C17.7714035,22.038 16.5625614,22.541 15.2631579,22.8 L15.2631579,24.003 C15.2631579,25.106 14.3595789,26 13.2280701,26 C12.1036842,26 11.1929825,25.105 11.1929825,24.003 L11.1929825,22.8 C9.89357891,22.541 8.68473685,22.038 7.61631579,21.343 L7.61631579,21.343 L7.61631579,21.343 Z" id="path-1"></path>
                                    </g>
                                    <g transform="translate(0.966667, 0.000000)">
                                        <mask id="mask-2" sketch:name="path-1" fill="white">
                                            <use xlink:href="#path-1"></use>
                                        </mask>
                                        <g id="path-1"></g>
                                        <path d="M0.966666667,0 L27.4228071,0 L27.4228071,26 L0.966666667,26 L0.966666667,0 L0.966666667,0 Z" id="Fill-682" fill="#80BD0D" sketch:type="MSShapeGroup" mask="url(#mask-2)"></path>
                                    </g>
                                </g>
                            </g>
                            <path d="M16.7368421,60 C14.9957895,60 13.5789474,58.656 13.5789474,57.003 L13.5789474,56.586 C12.7115789,56.354 11.8789474,56.025 11.091579,55.606 L10.78,55.902 C9.58526316,57.036 7.51263158,57.036 6.31684211,55.899 C5.08526316,54.73 5.08421053,52.828 6.31473684,51.659 L6.62526316,51.364 C6.18421053,50.615 5.83894737,49.824 5.59368421,49 L5.15473684,49 C3.41578947,49 2,47.654 2,46 C2,44.346 3.41578947,43 5.15473684,43 L5.59368421,43 C5.83894737,42.176 6.18421053,41.385 6.62526316,40.636 L6.31473684,40.34 C5.71789474,39.775 5.38947368,39.022 5.38947368,38.224 C5.38842105,37.424 5.71789474,36.669 6.31684211,36.101 C7.50736842,34.968 9.58842105,34.965 10.78,36.099 L11.091579,36.394 C11.8789474,35.975 12.7115789,35.646 13.5789474,35.414 L13.5789474,34.997 C13.5789474,33.344 14.9957895,32 16.7368421,32 C18.4778947,32 19.8947368,33.344 19.8947368,34.997 L19.8947368,35.414 C20.7621053,35.646 21.5947368,35.975 22.3821053,36.394 L22.6936842,36.098 C23.8863158,34.965 25.9610526,34.964 27.1568421,36.101 C28.3884211,37.27 28.3894737,39.172 27.1589474,40.341 L26.8484211,40.636 C27.2894737,41.385 27.6357895,42.176 27.88,43 L28.3189474,43 C30.0578947,43 31.4736842,44.346 31.4736842,46 C31.4736842,47.654 30.0578947,49 28.3189474,49 L27.88,49 C27.6357895,49.824 27.2894737,50.615 26.8484211,51.364 L27.1589474,51.659 C27.7557895,52.225 28.0842105,52.978 28.0842105,53.776 C28.0852632,54.576 27.7557895,55.331 27.1568421,55.899 C25.9673684,57.032 23.8863158,57.034 22.6936842,55.901 L22.3821053,55.606 C21.5947368,56.025 20.7621053,56.354 19.8947368,56.586 L19.8947368,57.003 C19.8947368,58.656 18.4778947,60 16.7368421,60 L16.7368421,60 L16.7368421,60 Z M10.931579,53.343 C11.1336842,53.343 11.3357895,53.398 11.5126316,53.51 C12.5305263,54.149 13.6494737,54.59 14.84,54.82 C15.3315789,54.914 15.6842105,55.324 15.6842105,55.8 L15.6842105,57.003 C15.6842105,57.553 16.1557895,58 16.7368421,58 C17.3263158,58 17.7894737,57.562 17.7894737,57.003 L17.7894737,55.8 C17.7894737,55.324 18.1421053,54.914 18.6336842,54.82 C19.8242105,54.59 20.9431579,54.149 21.9610526,53.51 C22.3757895,53.248 22.9315789,53.3 23.2863158,53.636 L24.1821053,54.487 C24.5789474,54.865 25.2715789,54.862 25.6684211,54.485 C25.8694737,54.294 25.98,54.043 25.9789474,53.777 C25.9789474,53.512 25.8705263,53.262 25.6705263,53.074 L24.7747368,52.222 C24.4210526,51.885 24.3642105,51.359 24.6410526,50.962 C25.3147368,49.996 25.78,48.932 26.02,47.801 C26.12,47.335 26.5515789,47 27.0526316,47 L28.3189474,47 C28.8978947,47 29.3684211,46.551 29.3684211,46 C29.3684211,45.449 28.8978947,45 28.3189474,45 L27.0526316,45 C26.5515789,45 26.12,44.665 26.02,44.199 C25.78,43.068 25.3147368,42.004 24.6410526,41.038 C24.3642105,40.641 24.4210526,40.115 24.7747368,39.778 L25.6705263,38.927 C26.08,38.538 26.0789474,37.904 25.6684211,37.515 C25.2673684,37.134 24.58,37.134 24.1831579,37.512 L23.2863158,38.364 C22.9315789,38.701 22.3757895,38.753 21.9610526,38.49 C20.9431579,37.851 19.8242105,37.41 18.6336842,37.18 C18.1421053,37.086 17.7894737,36.676 17.7894737,36.2 L17.7894737,34.997 C17.7894737,34.447 17.3178947,34 16.7368421,34 C16.1473684,34 15.6842105,34.438 15.6842105,34.997 L15.6842105,36.2 C15.6842105,36.676 15.3315789,37.086 14.84,37.18 C13.6494737,37.41 12.5305263,37.851 11.5126316,38.49 C11.0978947,38.753 10.5421053,38.701 10.1873684,38.364 L9.29157895,37.513 C8.89473684,37.134 8.20210526,37.138 7.80526316,37.515 C7.60421053,37.706 7.49368421,37.957 7.49473684,38.223 C7.49473684,38.488 7.60315789,38.738 7.80315789,38.926 L8.69789474,39.779 C9.05157895,40.115 9.10736842,40.641 8.83157895,41.037 C8.15894737,42.004 7.69368421,43.068 7.45368421,44.199 C7.35368421,44.665 6.92210526,45 6.42105263,45 L5.15473684,45 C4.57578947,45 4.10526316,45.449 4.10526316,46 C4.10526316,46.551 4.57578947,47 5.15473684,47 L6.42105263,47 C6.92210526,47 7.35368421,47.335 7.45368421,47.801 C7.69368421,48.932 8.15894737,49.996 8.83157895,50.963 C9.10736842,51.359 9.05157895,51.885 8.69789474,52.221 L7.80315789,53.073 C7.39368421,53.462 7.39473684,54.096 7.80526316,54.485 C8.20631579,54.867 8.89263158,54.866 9.29157895,54.487 L10.1873684,53.636 C10.3915789,53.443 10.66,53.343 10.931579,53.343 L10.931579,53.343 L10.931579,53.343 Z M16.7368421,50 C14.4147368,50 12.5263158,48.206 12.5263158,46 C12.5263158,43.794 14.4147368,42 16.7368421,42 C19.0589474,42 20.9473684,43.794 20.9473684,46 C20.9473684,48.206 19.0589474,50 16.7368421,50 L16.7368421,50 L16.7368421,50 Z M16.7368421,44 C15.5768421,44 14.6315789,44.897 14.6315789,46 C14.6315789,47.103 15.5768421,48 16.7368421,48 C17.8968421,48 18.8421053,47.103 18.8421053,46 C18.8421053,44.897 17.8968421,44 16.7368421,44 L16.7368421,44 L16.7368421,44 Z" id="Fill-685" fill="#333333" sketch:type="MSShapeGroup"></path>
                            <g id="Group-688" transform="translate(28.526316, 16.000000)">
                                <g id="mask-4" transform="translate(0.000000, 0.000000)" fill="#FFFFFF" sketch:type="MSShapeGroup">
                                    <path d="M15.0884211,16.918 C16.8694737,16.496 17.9526316,14.783 17.5084211,13.092 C17.0642105,11.401 15.2610526,10.372 13.4810526,10.793 C11.7010526,11.215 10.6178947,12.928 11.0621053,14.619 C11.5052632,16.31 13.3084211,17.34 15.0884211,16.918 M10.5947368,23.776 L9.90842105,24.861 C9.27894737,25.856 7.92631579,26.181 6.87052632,25.578 C5.82210526,24.98 5.48315789,23.688 6.11157895,22.694 L6.79789474,21.608 C5.76947368,20.714 4.91157895,19.629 4.29157895,18.391 L2.99894737,18.697 C1.81368421,18.978 0.614736842,18.3 0.316842105,17.164 C0.0210526316,16.037 0.743157895,14.895 1.92736842,14.614 L3.21894737,14.308 C3.15578947,12.939 3.37684211,11.598 3.84315789,10.35 L2.7,9.698 C1.65368421,9.1 1.31052632,7.815 1.94526316,6.812 C2.57578947,5.816 3.93578947,5.493 4.98210526,6.091 L6.12421053,6.743 C7.06631579,5.766 8.20842105,4.951 9.51052632,4.361 L9.18842105,3.133 C8.89263158,2.008 9.60736842,0.869 10.8021053,0.586 C11.9894737,0.305 13.1915789,0.99 13.4863158,2.115 L13.8084211,3.343 C15.2494737,3.283 16.6610526,3.493 17.9757895,3.936 L18.6621053,2.85 C19.2915789,1.856 20.6442105,1.53 21.7,2.133 C22.7473684,2.732 23.0873684,4.024 22.4589474,5.017 L21.7726316,6.103 C22.8,6.998 23.6589474,8.083 24.2789474,9.32 L25.5715789,9.014 C26.7568421,8.733 27.9547368,9.412 28.2536842,10.547 C28.5494737,11.675 27.8273684,12.816 26.6431579,13.097 L25.3505263,13.403 C25.4136842,14.772 25.1926316,16.113 24.7273684,17.362 L25.8694737,18.014 C26.9168421,18.611 27.2589474,19.896 26.6242105,20.899 C25.9947368,21.895 24.6347368,22.218 23.5884211,21.621 L22.4452632,20.969 C21.5042105,21.945 20.3621053,22.761 19.0589474,23.35 L19.3821053,24.578 C19.6768421,25.704 18.9631579,26.842 17.7673684,27.125 C16.5810526,27.407 15.3789474,26.721 15.0842105,25.596 L14.7610526,24.368 C13.32,24.428 11.9084211,24.218 10.5947368,23.776" id="path-3"></path>
                                </g>
                                <g id="Fill-686-Clipped" transform="translate(0.000000, 0.000000)">
                                    <g id="mask-4" fill="#FFFFFF" sketch:type="MSShapeGroup">
                                        <path d="M15.0884211,16.918 C16.8694737,16.496 17.9526316,14.783 17.5084211,13.092 C17.0642105,11.401 15.2610526,10.372 13.4810526,10.793 C11.7010526,11.215 10.6178947,12.928 11.0621053,14.619 C11.5052632,16.31 13.3084211,17.34 15.0884211,16.918 M10.5947368,23.776 L9.90842105,24.861 C9.27894737,25.856 7.92631579,26.181 6.87052632,25.578 C5.82210526,24.98 5.48315789,23.688 6.11157895,22.694 L6.79789474,21.608 C5.76947368,20.714 4.91157895,19.629 4.29157895,18.391 L2.99894737,18.697 C1.81368421,18.978 0.614736842,18.3 0.316842105,17.164 C0.0210526316,16.037 0.743157895,14.895 1.92736842,14.614 L3.21894737,14.308 C3.15578947,12.939 3.37684211,11.598 3.84315789,10.35 L2.7,9.698 C1.65368421,9.1 1.31052632,7.815 1.94526316,6.812 C2.57578947,5.816 3.93578947,5.493 4.98210526,6.091 L6.12421053,6.743 C7.06631579,5.766 8.20842105,4.951 9.51052632,4.361 L9.18842105,3.133 C8.89263158,2.008 9.60736842,0.869 10.8021053,0.586 C11.9894737,0.305 13.1915789,0.99 13.4863158,2.115 L13.8084211,3.343 C15.2494737,3.283 16.6610526,3.493 17.9757895,3.936 L18.6621053,2.85 C19.2915789,1.856 20.6442105,1.53 21.7,2.133 C22.7473684,2.732 23.0873684,4.024 22.4589474,5.017 L21.7726316,6.103 C22.8,6.998 23.6589474,8.083 24.2789474,9.32 L25.5715789,9.014 C26.7568421,8.733 27.9547368,9.412 28.2536842,10.547 C28.5494737,11.675 27.8273684,12.816 26.6431579,13.097 L25.3505263,13.403 C25.4136842,14.772 25.1926316,16.113 24.7273684,17.362 L25.8694737,18.014 C26.9168421,18.611 27.2589474,19.896 26.6242105,20.899 C25.9947368,21.895 24.6347368,22.218 23.5884211,21.621 L22.4452632,20.969 C21.5042105,21.945 20.3621053,22.761 19.0589474,23.35 L19.3821053,24.578 C19.6768421,25.704 18.9631579,26.842 17.7673684,27.125 C16.5810526,27.407 15.3789474,26.721 15.0842105,25.596 L14.7610526,24.368 C13.32,24.428 11.9084211,24.218 10.5947368,23.776" id="path-3"></path>
                                    </g>
                                    <g>
                                        <mask id="mask-4" sketch:name="path-3" fill="white">
                                            <use xlink:href="#path-3"></use>
                                        </mask>
                                        <g id="path-3"></g>
                                        <path d="M-9.54631579,0.253 L28.6042105,-8.784 L38.1157895,27.459 L-0.0336842105,36.495 L-9.54631579,0.253" id="Fill-686" fill="#F3F6F7" sketch:type="MSShapeGroup" mask="url(#mask-4)"></path>
                                    </g>
                                </g>
                            </g>
                            <path d="M45.7557895,44.188 C44.2536842,44.188 42.9515789,43.222 42.5884211,41.837 L42.4673684,41.374 C41.4947368,41.348 40.5326316,41.211 39.5968421,40.965 L39.3378947,41.375 C38.7410526,42.318 37.6957895,42.881 36.54,42.881 C35.9494737,42.881 35.3663158,42.727 34.8547368,42.435 C33.3115789,41.554 32.8084211,39.645 33.7347368,38.179 L33.9947368,37.768 C33.3252632,37.096 32.7473684,36.355 32.2684211,35.552 L31.78,35.667 C30.0484211,36.077 28.2494737,35.039 27.8210526,33.406 C27.6105263,32.602 27.7410526,31.767 28.1905263,31.057 C28.6389474,30.346 29.3526316,29.844 30.1978947,29.644 L30.6873684,29.528 C30.7126316,28.604 30.8568421,27.692 31.1168421,26.801 L30.6852632,26.555 C29.9368421,26.127 29.4084211,25.451 29.1978947,24.649 C28.9863158,23.846 29.1178947,23.01 29.5684211,22.296 C30.1568421,21.368 31.2305263,20.791 32.3726316,20.791 C32.9631579,20.791 33.5431579,20.943 34.0505263,21.233 L34.4821053,21.479 C35.1894737,20.843 35.9694737,20.294 36.8147368,19.839 L36.6936842,19.375 C36.2578947,17.716 37.3263158,16.029 39.0747368,15.615 C39.3347368,15.554 39.6010526,15.522 39.8663158,15.522 C41.3673684,15.522 42.6705263,16.489 43.0336842,17.872 L43.1557895,18.337 C44.1284211,18.363 45.0894737,18.5 46.0263158,18.746 L46.2852632,18.334 C46.8810526,17.392 47.9273684,16.83 49.0821053,16.83 C49.6736842,16.83 50.2568421,16.984 50.7684211,17.276 C52.3115789,18.156 52.8136842,20.066 51.8873684,21.532 L51.6273684,21.942 C52.2978947,22.614 52.8757895,23.355 53.3557895,24.159 L53.8431579,24.043 C55.5747368,23.634 57.3726316,24.672 57.8021053,26.305 C58.2378947,27.965 57.1715789,29.652 55.4252632,30.067 L54.9357895,30.183 C54.9105263,31.106 54.7663158,32.019 54.5063158,32.91 L54.9378947,33.156 C55.6863158,33.583 56.2147368,34.26 56.4252632,35.062 C56.6368421,35.865 56.5042105,36.701 56.0515789,37.415 C55.4663158,38.343 54.3915789,38.92 53.2494737,38.92 C52.66,38.92 52.08,38.767 51.5726316,38.478 L51.14,38.231 C50.4336842,38.867 49.6526316,39.417 48.8073684,39.872 L48.9294737,40.336 C49.14,41.14 49.0105263,41.973 48.5621053,42.682 C48.1136842,43.392 47.3989474,43.894 46.5484211,44.095 C46.2884211,44.157 46.0221053,44.188 45.7557895,44.188 L45.7557895,44.188 L45.7557895,44.188 Z M43.2873684,39.368 C43.7694737,39.368 44.1915789,39.679 44.3094737,40.125 L44.6315789,41.354 C44.7831579,41.932 45.4189474,42.301 46.0389474,42.155 C46.3431579,42.083 46.5978947,41.904 46.7568421,41.653 C46.9157895,41.402 46.9621053,41.106 46.8863158,40.82 L46.5642105,39.591 C46.4431579,39.13 46.6810526,38.651 47.1336842,38.447 C48.2926316,37.922 49.3242105,37.197 50.1957895,36.293 C50.5347368,35.942 51.0863158,35.867 51.5136842,36.111 L52.6568421,36.763 C53.1947368,37.071 53.9294737,36.888 54.2473684,36.384 C54.4105263,36.128 54.4578947,35.831 54.3821053,35.546 C54.3084211,35.263 54.1210526,35.022 53.8547368,34.871 L52.7115789,34.219 C52.2810526,33.974 52.0936842,33.475 52.2610526,33.027 C52.6926316,31.873 52.8821053,30.668 52.8252632,29.447 C52.8021053,28.972 53.1368421,28.547 53.6221053,28.433 L54.9147368,28.126 C55.5347368,27.979 55.9136842,27.379 55.7578947,26.789 C55.6052632,26.207 54.9694737,25.833 54.3526316,25.984 L53.0610526,26.29 C52.5736842,26.405 52.0715789,26.18 51.8557895,25.75 C51.3021053,24.647 50.5389474,23.668 49.5873684,22.84 C49.2178947,22.519 49.1378947,21.995 49.3957895,21.587 L50.0831579,20.502 C50.4115789,19.982 50.2326316,19.303 49.6842105,18.99 C49.1410526,18.678 48.4105263,18.857 48.0905263,19.365 L47.4042105,20.451 C47.1442105,20.858 46.6210526,21.038 46.1494737,20.878 C44.9389474,20.47 43.6715789,20.292 42.3810526,20.342 C41.8863158,20.37 41.4347368,20.046 41.3136842,19.584 L40.9915789,18.356 C40.84,17.779 40.2063158,17.41 39.5842105,17.556 C38.9621053,17.703 38.5810526,18.302 38.7357895,18.891 L39.0578947,20.119 C39.18,20.58 38.9410526,21.059 38.4894737,21.264 C37.3294737,21.789 36.2989474,22.513 35.4273684,23.417 C35.0884211,23.769 34.5389474,23.845 34.1094737,23.6 L32.9663158,22.948 C32.4263158,22.639 31.6915789,22.822 31.3736842,23.327 C31.2126316,23.582 31.1642105,23.879 31.2389474,24.164 C31.3136842,24.448 31.5021053,24.688 31.7684211,24.84 L32.9115789,25.492 C33.3410526,25.737 33.5294737,26.236 33.3621053,26.685 C32.9305263,27.838 32.7410526,29.042 32.7978947,30.264 C32.82,30.738 32.4863158,31.163 32.0010526,31.278 L30.7073684,31.584 C30.4073684,31.656 30.1547368,31.833 29.9957895,32.086 C29.8357895,32.338 29.7884211,32.635 29.8642105,32.921 C30.0178947,33.505 30.6505263,33.87 31.2705263,33.727 L32.5621053,33.42 C33.0536842,33.306 33.5515789,33.531 33.7673684,33.96 C34.3210526,35.063 35.0831579,36.042 36.0357895,36.871 C36.4042105,37.192 36.4842105,37.715 36.2263158,38.123 L35.54,39.208 C35.2115789,39.729 35.3905263,40.407 35.9389474,40.72 C36.4821053,41.031 37.2115789,40.853 37.5326316,40.346 L38.2178947,39.261 C38.4757895,38.852 39.0021053,38.674 39.4715789,38.833 C40.6831579,39.241 41.9484211,39.422 43.2410526,39.369 C43.2568421,39.368 43.2726316,39.368 43.2873684,39.368 L43.2873684,39.368 L43.2873684,39.368 Z M42.8084211,34.012 C42.8084211,34.012 42.8084211,34.012 42.8073684,34.012 C40.7978947,34.012 39.0536842,32.716 38.5663158,30.861 C38.2831579,29.784 38.46,28.667 39.0621053,27.715 C39.6631579,26.763 40.6189474,26.091 41.7526316,25.823 C42.1010526,25.74 42.4578947,25.698 42.8136842,25.698 C44.8242105,25.698 46.5694737,26.994 47.0568421,28.85 C47.3389474,29.927 47.1631579,31.044 46.5610526,31.996 C45.96,32.947 45.0031579,33.619 43.8694737,33.888 C43.5210526,33.97 43.1642105,34.012 42.8084211,34.012 L42.8084211,34.012 L42.8084211,34.012 Z M42.8136842,27.698 C42.6294737,27.698 42.4442105,27.72 42.2631579,27.763 C41.6736842,27.903 41.1778947,28.251 40.8663158,28.745 C40.5547368,29.239 40.4631579,29.818 40.6094737,30.376 C40.8621053,31.339 41.7663158,32.012 42.8073684,32.012 L42.8084211,32.012 C42.9926316,32.012 43.1789474,31.99 43.36,31.947 C43.9484211,31.808 44.4442105,31.459 44.7568421,30.966 C45.0694737,30.472 45.16,29.893 45.0126316,29.334 C44.7610526,28.371 43.8557895,27.698 42.8136842,27.698 L42.8136842,27.698 L42.8136842,27.698 Z" id="Fill-689" fill="#333333" sketch:type="MSShapeGroup"></path>
                            <g id="Group-692" transform="translate(7.368421, 1.000000)">
                                <g id="Fill-690-Clipped">
                                    <g id="mask-6" fill="#FFFFFF" sketch:type="MSShapeGroup">
                                        <path d="M14.2915789,12.969 C15.1589474,11.835 14.8936842,10.247 13.7,9.423 C12.5063158,8.599 10.8357895,8.851 9.96736842,9.985 C9.1,11.119 9.36526316,12.707 10.5589474,13.531 C11.7526316,14.355 13.4242105,14.103 14.2915789,12.969 M15.2547368,19.402 L15.4221053,20.408 C15.5757895,21.33 14.9189474,22.194 13.9410526,22.341 C12.9694737,22.488 12.0568421,21.858 11.9031579,20.937 L11.7357895,19.931 C10.6147368,19.885 9.49578947,19.638 8.44,19.18 L7.81052632,20.004 C7.23263158,20.759 6.12526316,20.929 5.32421053,20.376 C4.52736842,19.827 4.35052632,18.769 4.92842105,18.014 L5.55789474,17.191 C4.77368421,16.378 4.18,15.443 3.78736842,14.445 L2.72842105,14.605 C1.75789474,14.751 0.848421053,14.127 0.693684211,13.198 C0.538947368,12.275 1.20210526,11.408 2.17157895,11.262 L3.23052632,11.103 C3.27894737,10.038 3.53894737,8.975 4.02105263,7.972 L3.15368421,7.374 C2.35894737,6.825 2.18,5.773 2.76210526,5.011 C3.34,4.255 4.45368421,4.087 5.24842105,4.635 L6.11473684,5.234 C6.97052632,4.489 7.95473684,3.925 9.00526316,3.552 L8.83684211,2.546 C8.68315789,1.624 9.34,0.76 10.3178947,0.612 C11.2905263,0.466 12.2021053,1.096 12.3557895,2.017 L12.5242105,3.023 C13.6442105,3.069 14.7631579,3.316 15.8189474,3.774 L16.4484211,2.95 C17.0263158,2.195 18.1336842,2.025 18.9357895,2.578 C19.7315789,3.127 19.9084211,4.185 19.3315789,4.939 L18.7010526,5.763 C19.4852632,6.575 20.0789474,7.51 20.4715789,8.508 L21.5305263,8.349 C22.5010526,8.203 23.4105263,8.827 23.5663158,9.756 C23.72,10.679 23.0568421,11.546 22.0873684,11.692 L21.0284211,11.851 C20.98,12.916 20.72,13.979 20.2378947,14.982 L21.1052632,15.58 C21.9,16.129 22.08,17.181 21.4968421,17.943 C20.9189474,18.699 19.8052632,18.867 19.0105263,18.318 L18.1442105,17.72 C17.2894737,18.465 16.3052632,19.029 15.2547368,19.402" id="path-5"></path>
                                    </g>
                                    <g id="path-5" fill="#009AE1" sketch:type="MSShapeGroup">
                                        <path d="M14.2915789,12.969 C15.1589474,11.835 14.8936842,10.247 13.7,9.423 C12.5063158,8.599 10.8357895,8.851 9.96736842,9.985 C9.1,11.119 9.36526316,12.707 10.5589474,13.531 C11.7526316,14.355 13.4242105,14.103 14.2915789,12.969 M15.2547368,19.402 L15.4221053,20.408 C15.5757895,21.33 14.9189474,22.194 13.9410526,22.341 C12.9694737,22.488 12.0568421,21.858 11.9031579,20.937 L11.7357895,19.931 C10.6147368,19.885 9.49578947,19.638 8.44,19.18 L7.81052632,20.004 C7.23263158,20.759 6.12526316,20.929 5.32421053,20.376 C4.52736842,19.827 4.35052632,18.769 4.92842105,18.014 L5.55789474,17.191 C4.77368421,16.378 4.18,15.443 3.78736842,14.445 L2.72842105,14.605 C1.75789474,14.751 0.848421053,14.127 0.693684211,13.198 C0.538947368,12.275 1.20210526,11.408 2.17157895,11.262 L3.23052632,11.103 C3.27894737,10.038 3.53894737,8.975 4.02105263,7.972 L3.15368421,7.374 C2.35894737,6.825 2.18,5.773 2.76210526,5.011 C3.34,4.255 4.45368421,4.087 5.24842105,4.635 L6.11473684,5.234 C6.97052632,4.489 7.95473684,3.925 9.00526316,3.552 L8.83684211,2.546 C8.68315789,1.624 9.34,0.76 10.3178947,0.612 C11.2905263,0.466 12.2021053,1.096 12.3557895,2.017 L12.5242105,3.023 C13.6442105,3.069 14.7631579,3.316 15.8189474,3.774 L16.4484211,2.95 C17.0263158,2.195 18.1336842,2.025 18.9357895,2.578 C19.7315789,3.127 19.9084211,4.185 19.3315789,4.939 L18.7010526,5.763 C19.4852632,6.575 20.0789474,7.51 20.4715789,8.508 L21.5305263,8.349 C22.5010526,8.203 23.4105263,8.827 23.5663158,9.756 C23.72,10.679 23.0568421,11.546 22.0873684,11.692 L21.0284211,11.851 C20.98,12.916 20.72,13.979 20.2378947,14.982 L21.1052632,15.58 C21.9,16.129 22.08,17.181 21.4968421,17.943 C20.9189474,18.699 19.8052632,18.867 19.0105263,18.318 L18.1442105,17.72 C17.2894737,18.465 16.3052632,19.029 15.2547368,19.402"></path>
                                    </g>
                                    <g>
                                        <mask id="mask-6" sketch:name="path-5" fill="white">
                                            <use xlink:href="#path-5"></use>
                                        </mask>
                                        <g id="path-5"></g>
                                        <path d="M-11.3957895,15.017 L8.40315789,-10.872 L35.6547368,7.937 L15.8557895,33.826 L-11.3957895,15.017" id="Fill-690" fill="#009AE1" sketch:type="MSShapeGroup" mask="url(#mask-6)"></path>
                                    </g>
                                </g>
                            </g>
                            <path d="M21.0284211,24.362 C19.6273684,24.362 18.4505263,23.408 18.2326316,22.092 L18.1926316,21.858 C17.5052632,21.773 16.8305263,21.619 16.1768421,21.399 L16.0305263,21.591 C15.1442105,22.75 13.3,23.03 12.0736842,22.185 C10.8094737,21.312 10.5273684,19.626 11.4442105,18.426 L11.5915789,18.234 C11.1684211,17.711 10.8073684,17.15 10.5084211,16.555 L10.2610526,16.592 C8.68421053,16.829 7.26315789,15.809 7.02210526,14.354 C6.77789474,12.887 7.83368421,11.505 9.37473684,11.273 L9.62315789,11.236 C9.71263158,10.582 9.87473684,9.942 10.1063158,9.322 L9.90315789,9.182 C9.29157895,8.76 8.88842105,8.137 8.77052632,7.429 C8.65157895,6.719 8.83263158,6.006 9.27894737,5.422 C10.1642105,4.266 12.0168421,3.984 13.2347368,4.826 L13.4378947,4.965 C13.9873684,4.564 14.5789474,4.22 15.2052632,3.937 L15.1663158,3.702 C15.0473684,2.992 15.2263158,2.281 15.6705263,1.701 C16.1147368,1.12 16.7726316,0.737 17.5221053,0.624 C19.0915789,0.385 20.52,1.407 20.7642105,2.859 L20.8031579,3.095 C21.4915789,3.18 22.1663158,3.333 22.82,3.554 L22.9663158,3.362 C23.8505263,2.205 25.6989474,1.922 26.9221053,2.769 C27.5347368,3.191 27.9378947,3.815 28.0557895,4.526 C28.1757895,5.236 27.9957895,5.947 27.5505263,6.527 L27.4042105,6.718 C27.8263158,7.241 28.1884211,7.802 28.4873684,8.398 L28.7347368,8.361 C30.3126316,8.125 31.7326316,9.144 31.9736842,10.599 C32.0926316,11.309 31.9126316,12.021 31.4694737,12.603 C31.0242105,13.184 30.3684211,13.566 29.6210526,13.679 L29.3736842,13.716 C29.2831579,14.37 29.1221053,15.01 28.8905263,15.631 L29.0926316,15.771 C29.7052632,16.193 30.1073684,16.816 30.2252632,17.524 C30.3442105,18.234 30.1631579,18.946 29.7168421,19.53 C28.8347368,20.685 26.98,20.97 25.7610526,20.126 L25.5589474,19.988 C25.0094737,20.389 24.4178947,20.732 23.7915789,21.016 L23.8305263,21.251 C24.0736842,22.716 23.0168421,24.097 21.4736842,24.329 C21.3242105,24.351 21.1747368,24.362 21.0284211,24.362 L21.0284211,24.362 L21.0284211,24.362 Z M15.8094737,19.18 C15.9557895,19.18 16.1052632,19.209 16.2463158,19.27 C17.1631579,19.667 18.1389474,19.89 19.1494737,19.932 C19.6494737,19.952 20.0652632,20.304 20.1431579,20.773 L20.3115789,21.779 C20.3726316,22.147 20.7294737,22.414 21.1452632,22.353 C21.5484211,22.292 21.8147368,21.945 21.7515789,21.563 L21.5842105,20.558 C21.5063158,20.088 21.7852632,19.631 22.2547368,19.465 C23.2021053,19.128 24.0589474,18.629 24.8021053,17.983 C25.1715789,17.661 25.7284211,17.632 26.1315789,17.911 L26.9978947,18.509 C27.1557895,18.618 27.3157895,18.64 27.4221053,18.64 C27.6589474,18.64 27.8747368,18.536 28.0126316,18.354 C28.1294737,18.203 28.1768421,18.02 28.1463158,17.838 C28.1157895,17.657 28.0115789,17.498 27.8547368,17.388 L26.9884211,16.791 C26.5831579,16.511 26.4410526,16 26.6484211,15.567 C27.0684211,14.694 27.3021053,13.765 27.3463158,12.808 C27.3673684,12.332 27.7389474,11.937 28.2326316,11.863 L29.2915789,11.704 C29.4831579,11.675 29.6505263,11.577 29.7642105,11.428 C29.8789474,11.278 29.9252632,11.095 29.8947368,10.913 C29.8326316,10.538 29.4831579,10.274 29.0631579,10.336 L28.0042105,10.496 C27.52,10.571 27.0305263,10.304 26.8547368,9.858 C26.5,8.958 25.9757895,8.144 25.2936842,7.438 C24.9557895,7.088 24.9242105,6.56 25.2178947,6.175 L25.8473684,5.352 C25.9610526,5.202 26.0073684,5.021 25.9778947,4.839 C25.9463158,4.656 25.8431579,4.495 25.6852632,4.386 C25.3610526,4.164 24.8978947,4.237 24.6705263,4.537 L24.0389474,5.361 C23.7452632,5.746 23.2073684,5.881 22.7505263,5.683 C21.8336842,5.285 20.8557895,5.063 19.8463158,5.021 C19.3463158,5.001 18.9305263,4.648 18.8526316,4.179 L18.6852632,3.172 C18.6231579,2.806 18.2526316,2.543 17.8515789,2.6 C17.6568421,2.629 17.4873684,2.727 17.3736842,2.876 C17.2610526,3.024 17.2147368,3.206 17.2452632,3.388 L17.4126316,4.396 C17.4915789,4.865 17.2105263,5.322 16.7410526,5.489 C15.7957895,5.824 14.9378947,6.323 14.1947368,6.97 C13.8263158,7.292 13.2694737,7.323 12.8652632,7.042 L11.9978947,6.444 C11.84,6.335 11.6810526,6.312 11.5736842,6.312 C11.3378947,6.312 11.1210526,6.417 10.9821053,6.599 C10.8663158,6.75 10.8189474,6.933 10.8494737,7.115 C10.88,7.295 10.9831579,7.455 11.1410526,7.564 L12.0084211,8.163 C12.4136842,8.442 12.5557895,8.955 12.3473684,9.387 C11.9284211,10.257 11.6936842,11.185 11.6505263,12.145 C11.6294737,12.621 11.2578947,13.016 10.7642105,13.09 L9.70421053,13.249 C9.30947368,13.309 9.03894737,13.664 9.10105263,14.042 C9.16315789,14.415 9.51789474,14.679 9.93263158,14.617 L10.9915789,14.457 C11.4831579,14.385 11.9673684,14.649 12.1431579,15.096 C12.4947368,15.994 13.02,16.808 13.7031579,17.515 C14.0410526,17.865 14.0726316,18.394 13.7778947,18.778 L13.1473684,19.602 C12.9136842,19.909 12.9863158,20.342 13.3115789,20.566 C13.6336842,20.788 14.0989474,20.716 14.3273684,20.416 L14.9578947,19.592 C15.16,19.326 15.4810526,19.18 15.8094737,19.18 L15.8094737,19.18 L15.8094737,19.18 Z M19.4957895,16.015 L19.4957895,16.015 C18.7063158,16.015 17.9494737,15.781 17.3084211,15.339 C16.5042105,14.784 15.9747368,13.963 15.8189474,13.03 C15.6642105,12.097 15.9010526,11.161 16.4852632,10.396 C17.1831579,9.483 18.3115789,8.938 19.5,8.938 C20.2894737,8.938 21.0463158,9.171 21.6884211,9.614 C23.3494737,10.76 23.7178947,12.977 22.5126316,14.556 C21.8136842,15.47 20.6852632,16.015 19.4957895,16.015 L19.4957895,16.015 L19.4957895,16.015 Z M19.5,10.938 C18.9747368,10.938 18.4957895,11.169 18.1873684,11.572 C17.9336842,11.905 17.8315789,12.312 17.8989474,12.717 C17.9652632,13.123 18.1957895,13.479 18.5463158,13.721 C19.2473684,14.205 20.3031579,14.041 20.8094737,13.38 C21.3336842,12.694 21.1726316,11.73 20.4505263,11.232 C20.1715789,11.04 19.8431579,10.938 19.5,10.938 L19.5,10.938 L19.5,10.938 Z" id="Fill-693" fill="#333333" sketch:type="MSShapeGroup"></path>
                        </g>
                    </g>
                </g>
            </g>
        </g>
    </g>
</svg>