<?xml version="1.0" encoding="UTF-8" standalone="no"?>
<svg width="57px" height="54px" viewBox="0 0 57 54" version="1.1" xmlns="http://www.w3.org/2000/svg" xmlns:xlink="http://www.w3.org/1999/xlink" xmlns:sketch="http://www.bohemiancoding.com/sketch/ns">
    <!-- Generator: Sketch 3.3.3 (12072) - http://www.bohemiancoding.com/sketch -->
    <title>Datawork</title>
    <desc>Created with Sketch.</desc>
    <defs>
        <path d="M7.485,21.343 L6.634,22.195 C5.854,22.974 4.594,22.979 3.808,22.192 C3.027,21.411 3.026,20.145 3.805,19.366 L4.657,18.515 C3.962,17.465 3.459,16.277 3.2,15 L1.997,15 C0.894,15 0,14.112 0,13 C0,11.895 0.895,11 1.997,11 L3.2,11 C3.459,9.723 3.962,8.535 4.657,7.485 L3.805,6.634 C3.026,5.854 3.021,4.594 3.808,3.808 C4.589,3.027 5.855,3.026 6.634,3.805 L7.485,4.657 C8.535,3.962 9.723,3.459 11,3.2 L11,1.997 C11,0.894 11.888,0 13,0 C14.105,0 15,0.895 15,1.997 L15,3.2 C16.277,3.459 17.465,3.962 18.515,4.657 L19.366,3.805 C20.146,3.026 21.406,3.021 22.192,3.808 C22.973,4.589 22.974,5.855 22.195,6.634 L21.343,7.485 C22.038,8.535 22.541,9.723 22.8,11 L24.003,11 C25.106,11 26,11.888 26,13 C26,14.105 25.105,15 24.003,15 L22.8,15 C22.541,16.277 22.038,17.465 21.343,18.515 L22.195,19.366 C22.974,20.146 22.979,21.406 22.192,22.192 C21.411,22.973 20.145,22.974 19.366,22.195 L18.515,21.343 C17.465,22.038 16.277,22.541 15,22.8 L15,24.003 C15,25.106 14.112,26 13,26 C11.895,26 11,25.105 11,24.003 L11,22.8 C9.723,22.541 8.535,22.038 7.485,21.343 L7.485,21.343 Z M13,16 C14.657,16 16,14.657 16,13 C16,11.343 14.657,10 13,10 C11.343,10 10,11.343 10,13 C10,14.657 11.343,16 13,16 L13,16 Z" id="path-1"></path>
        <path d="M10.065,23.776 L9.413,24.861 C8.815,25.856 7.53,26.181 6.527,25.578 C5.531,24.98 5.209,23.688 5.806,22.694 L6.458,21.608 C5.481,20.714 4.666,19.629 4.076,18.391 L2.848,18.697 C1.723,18.978 0.584,18.3 0.301,17.164 C0.02,16.037 0.706,14.895 1.83,14.614 L3.058,14.308 C2.998,12.939 3.208,11.598 3.651,10.35 L2.565,9.698 C1.571,9.1 1.246,7.815 1.848,6.812 C2.447,5.816 3.739,5.493 4.733,6.091 L5.818,6.743 C6.713,5.766 7.798,4.951 9.035,4.361 L8.729,3.133 C8.448,2.008 9.127,0.869 10.262,0.586 C11.39,0.305 12.532,0.99 12.812,2.115 L13.118,3.343 C14.487,3.283 15.828,3.493 17.077,3.936 L17.729,2.85 C18.327,1.856 19.611,1.53 20.614,2.133 C21.611,2.732 21.933,4.024 21.336,5.017 L20.684,6.103 C21.66,6.998 22.476,8.083 23.065,9.32 L24.293,9.014 C25.419,8.733 26.558,9.412 26.841,10.547 C27.122,11.675 26.436,12.816 25.311,13.097 L24.083,13.403 C24.144,14.772 23.933,16.113 23.491,17.362 L24.576,18.014 C25.571,18.611 25.896,19.896 25.293,20.899 C24.695,21.895 23.403,22.218 22.409,21.621 L21.323,20.969 C20.429,21.945 19.344,22.761 18.106,23.35 L18.413,24.578 C18.693,25.704 18.015,26.842 16.879,27.125 C15.752,27.407 14.61,26.721 14.33,25.596 L14.023,24.368 C12.654,24.428 11.313,24.218 10.065,23.776 M14.334,16.918 C16.026,16.496 17.055,14.783 16.633,13.092 C16.211,11.401 14.499,10.372 12.807,10.793 C11.116,11.215 10.087,12.928 10.509,14.619 C10.93,16.31 12.643,17.34 14.334,16.918" id="path-3"></path>
        <path d="M14.492,19.402 L14.651,20.408 C14.797,21.33 14.173,22.194 13.244,22.341 C12.321,22.488 11.454,21.858 11.308,20.937 L11.149,19.931 C10.084,19.885 9.021,19.638 8.018,19.18 L7.42,20.004 C6.871,20.759 5.819,20.929 5.057,20.376 C4.301,19.827 4.133,18.769 4.682,18.014 L5.28,17.191 C4.535,16.378 3.971,15.443 3.598,14.445 L2.592,14.605 C1.67,14.751 0.806,14.127 0.659,13.198 C0.512,12.275 1.142,11.408 2.063,11.262 L3.069,11.103 C3.115,10.038 3.362,8.975 3.82,7.972 L2.996,7.374 C2.241,6.825 2.071,5.773 2.624,5.011 C3.173,4.255 4.231,4.087 4.986,4.635 L5.809,5.234 C6.622,4.489 7.557,3.925 8.555,3.552 L8.395,2.546 C8.249,1.624 8.873,0.76 9.802,0.612 C10.725,0.466 11.592,1.096 11.738,2.017 L11.897,3.023 C12.962,3.069 14.025,3.316 15.028,3.774 L15.626,2.95 C16.175,2.195 17.227,2.025 17.989,2.578 C18.745,3.127 18.913,4.185 18.365,4.939 L17.766,5.763 C18.511,6.575 19.075,7.51 19.448,8.508 L20.454,8.349 C21.376,8.203 22.24,8.827 22.388,9.756 C22.534,10.679 21.904,11.546 20.983,11.692 L19.977,11.851 C19.931,12.916 19.684,13.979 19.226,14.982 L20.05,15.58 C20.805,16.129 20.975,17.181 20.422,17.943 C19.873,18.699 18.815,18.867 18.061,18.318 L17.237,17.72 C16.425,18.465 15.49,19.029 14.492,19.402 M13.577,12.969 C14.401,11.835 14.149,10.247 13.015,9.423 C11.881,8.599 10.293,8.851 9.469,9.985 C8.645,11.119 8.897,12.707 10.031,13.531 C11.165,14.355 12.753,14.103 13.577,12.969" id="path-5"></path>
    </defs>
    <g id="Page-1" stroke="none" stroke-width="1" fill="none" fill-rule="evenodd" sketch:type="MSPage">
        <g id="Datawork" sketch:type="MSLayerGroup" transform="translate(1.000000, 1.000000)">
            <g id="Group-3" transform="translate(0.000000, 26.000000)">
                <mask id="mask-2" sketch:name="Clip 2" fill="white">
                    <use xlink:href="#path-1"></use>
                </mask>
                <g id="Clip-2"></g>
                <path d="M-0.08,-0.02 L26.08,-0.02 L26.08,26.02 L-0.08,26.02 L-0.08,-0.02 Z" id="Fill-1" fill="#78BE20" sketch:type="MSShapeGroup" mask="url(#mask-2)"></path>
            </g>
            <path d="M7.485,47.343 L6.634,48.195 C5.854,48.974 4.594,48.979 3.808,48.192 C3.027,47.411 3.026,46.145 3.805,45.366 L4.657,44.515 C3.962,43.465 3.459,42.277 3.2,41 L1.997,41 C0.894,41 0,40.112 0,39 C0,37.895 0.895,37 1.997,37 L3.2,37 C3.459,35.723 3.962,34.535 4.657,33.485 L3.805,32.634 C3.026,31.854 3.021,30.594 3.808,29.808 C4.589,29.027 5.855,29.026 6.634,29.805 L7.485,30.657 C8.535,29.962 9.723,29.459 11,29.2 L11,27.997 C11,26.894 11.888,26 13,26 C14.105,26 15,26.895 15,27.997 L15,29.2 C16.277,29.459 17.465,29.962 18.515,30.657 L19.366,29.805 C20.146,29.026 21.406,29.021 22.192,29.808 C22.973,30.589 22.974,31.855 22.195,32.634 L21.343,33.485 C22.038,34.535 22.541,35.723 22.8,37 L24.003,37 C25.106,37 26,37.888 26,39 C26,40.105 25.105,41 24.003,41 L22.8,41 C22.541,42.277 22.038,43.465 21.343,44.515 L22.195,45.366 C22.974,46.146 22.979,47.406 22.192,48.192 C21.411,48.973 20.145,48.974 19.366,48.195 L18.515,47.343 C17.465,48.038 16.277,48.541 15,48.8 L15,50.003 C15,51.106 14.112,52 13,52 C11.895,52 11,51.105 11,50.003 L11,48.8 C9.723,48.541 8.535,48.038 7.485,47.343 L7.485,47.343 Z M13,42 C14.657,42 16,40.657 16,39 C16,37.343 14.657,36 13,36 C11.343,36 10,37.343 10,39 C10,40.657 11.343,42 13,42 L13,42 Z" id="Stroke-4" stroke="#2F4E55" stroke-width="2" stroke-linecap="round" stroke-linejoin="round" sketch:type="MSShapeGroup"></path>
            <g id="Group-8" transform="translate(28.000000, 14.000000)">
                <mask id="mask-4" sketch:name="Clip 7" fill="white">
                    <use xlink:href="#path-3"></use>
                </mask>
                <g id="Clip-7"></g>
                <path d="M-9.069,0.253 L27.174,-8.784 L36.21,27.459 L-0.032,36.495" id="Fill-6" fill="#F3F6F7" sketch:type="MSShapeGroup" mask="url(#mask-4)"></path>
            </g>
            <path d="M38.065,37.776 L37.413,38.861 C36.815,39.856 35.53,40.181 34.527,39.578 C33.531,38.98 33.209,37.688 33.806,36.694 L34.458,35.608 C33.481,34.714 32.666,33.629 32.076,32.391 L30.848,32.697 C29.723,32.978 28.584,32.3 28.301,31.164 C28.02,30.037 28.706,28.895 29.83,28.614 L31.058,28.308 C30.998,26.939 31.208,25.598 31.651,24.35 L30.565,23.698 C29.571,23.1 29.246,21.815 29.848,20.812 C30.447,19.816 31.739,19.493 32.733,20.091 L33.818,20.743 C34.713,19.766 35.798,18.951 37.035,18.361 L36.729,17.133 C36.448,16.008 37.127,14.869 38.262,14.586 C39.39,14.305 40.532,14.99 40.812,16.115 L41.118,17.343 C42.487,17.283 43.828,17.493 45.077,17.936 L45.729,16.85 C46.327,15.856 47.612,15.53 48.614,16.133 C49.611,16.732 49.933,18.024 49.336,19.017 L48.684,20.103 C49.66,20.998 50.476,22.083 51.065,23.32 L52.293,23.014 C53.419,22.733 54.558,23.412 54.841,24.547 C55.122,25.675 54.436,26.816 53.311,27.097 L52.083,27.403 C52.144,28.772 51.933,30.113 51.491,31.362 L52.576,32.014 C53.571,32.611 53.896,33.896 53.293,34.899 C52.695,35.895 51.403,36.218 50.409,35.621 L49.323,34.969 C48.429,35.945 47.344,36.761 46.106,37.35 L46.413,38.578 C46.693,39.704 46.015,40.842 44.879,41.125 C43.752,41.407 42.61,40.721 42.33,39.596 L42.023,38.368 C40.654,38.428 39.313,38.218 38.065,37.776 L38.065,37.776 Z M42.334,30.918 C44.026,30.496 45.055,28.783 44.633,27.092 C44.211,25.401 42.499,24.372 40.807,24.793 C39.116,25.215 38.087,26.928 38.509,28.619 C38.93,30.31 40.643,31.34 42.334,30.918 L42.334,30.918 Z" id="Stroke-9" stroke="#2F4E55" stroke-width="2" stroke-linecap="round" stroke-linejoin="round" sketch:type="MSShapeGroup"></path>
            <g id="Group-13" transform="translate(6.000000, 0.000000)">
                <mask id="mask-6" sketch:name="Clip 12" fill="white">
                    <use xlink:href="#path-5"></use>
                </mask>
                <g id="Clip-12"></g>
                <path d="M-10.826,15.017 L7.983,-10.872 L33.872,7.937 L15.063,33.826" id="Fill-11" fill="#4990E2" sketch:type="MSShapeGroup" mask="url(#mask-6)"></path>
            </g>
            <path d="M20.492,19.402 L20.651,20.408 C20.797,21.33 20.173,22.194 19.244,22.341 C18.321,22.488 17.454,21.858 17.308,20.937 L17.149,19.931 C16.084,19.885 15.021,19.638 14.018,19.18 L13.42,20.004 C12.871,20.759 11.819,20.929 11.057,20.376 C10.301,19.827 10.133,18.769 10.682,18.014 L11.28,17.191 C10.535,16.378 9.971,15.443 9.598,14.445 L8.592,14.605 C7.67,14.751 6.806,14.127 6.659,13.198 C6.512,12.275 7.142,11.408 8.063,11.262 L9.069,11.103 C9.115,10.038 9.362,8.975 9.82,7.972 L8.996,7.374 C8.241,6.825 8.071,5.773 8.624,5.011 C9.173,4.255 10.231,4.087 10.986,4.635 L11.809,5.234 C12.622,4.489 13.557,3.925 14.555,3.552 L14.395,2.546 C14.249,1.624 14.873,0.76 15.802,0.612 C16.725,0.466 17.592,1.096 17.738,2.017 L17.897,3.023 C18.962,3.069 20.025,3.316 21.028,3.774 L21.626,2.95 C22.175,2.195 23.227,2.025 23.989,2.578 C24.745,3.127 24.913,4.185 24.365,4.939 L23.766,5.763 C24.511,6.575 25.075,7.51 25.448,8.508 L26.454,8.349 C27.376,8.203 28.24,8.827 28.388,9.756 C28.534,10.679 27.904,11.546 26.983,11.692 L25.977,11.851 C25.931,12.916 25.684,13.979 25.226,14.982 L26.05,15.58 C26.805,16.129 26.975,17.181 26.422,17.943 C25.873,18.699 24.815,18.867 24.061,18.318 L23.237,17.72 C22.425,18.465 21.49,19.029 20.492,19.402 L20.492,19.402 Z M19.577,12.969 C20.401,11.835 20.149,10.247 19.015,9.423 C17.881,8.599 16.293,8.851 15.469,9.985 C14.645,11.119 14.897,12.707 16.031,13.531 C17.165,14.355 18.753,14.103 19.577,12.969 L19.577,12.969 Z" id="Stroke-14" stroke="#2F4E55" stroke-width="2" stroke-linecap="round" stroke-linejoin="round" sketch:type="MSShapeGroup"></path>
        </g>
    </g>
</svg>