<?xml version="1.0" encoding="UTF-8" standalone="no"?>
<svg width="60px" height="60px" viewBox="0 0 60 60" version="1.1" xmlns="http://www.w3.org/2000/svg" xmlns:xlink="http://www.w3.org/1999/xlink" xmlns:sketch="http://www.bohemiancoding.com/sketch/ns">
    <!-- Generator: Sketch 3.3.3 (12072) - http://www.bohemiancoding.com/sketch -->
    <title>outlined</title>
    <desc>Created with Sketch.</desc>
    <defs>
        <path id="path-1" d="M0,5.65471698 C0,2.53245283 2.54037736,0 5.66037736,0 L11.3207547,0 L11.3207547,22.6415094 L5.66037736,22.6415094 C2.53471698,22.6415094 0,20.1101887 0,16.9867925 L0,5.65471698 L0,5.65471698 Z"></path>
        <path id="path-3" d="M11.3207547,5.65471698 C11.3207547,2.53245283 8.78037736,0 5.66037736,0 L0,0 L0,22.6415094 L5.66037736,22.6415094 C8.78603774,22.6415094 11.3207547,20.1101887 11.3207547,16.9867925 L11.3207547,5.65471698 L11.3207547,5.65471698 Z"></path>
        <path id="path-5" d="M0,24.9056604 L0,12.4528302 C0,5.5754717 5.57207547,0 12.4550943,0 L27.1675472,0 C34.0460377,0 39.6226415,5.57320755 39.6226415,12.4528302 L39.6226415,24.9056604"></path>
        <path id="path-7" d="M0,2.26415094 C0,1.01320755 1.01660377,0 2.26188679,0 L4.53056604,0 C5.78037736,0 6.79245283,1.00528302 6.79245283,2.26415094 C6.79245283,3.51509434 5.77584906,4.52830189 4.53056604,4.52830189 L2.26188679,4.52830189 C1.01320755,4.52830189 0,3.52301887 0,2.26415094 L0,2.26415094 L0,2.26415094 Z"></path>
    </defs>
    <g id="Page-1" stroke="none" stroke-width="1" fill="none" fill-rule="evenodd" sketch:type="MSPage">
        <g id="Headset" sketch:type="MSLayerGroup" transform="translate(2.000000, 0.000000)">
            <g id="outlined">
                <g id="Imported-Layers">
                    <g id="Group-2392" transform="translate(1.132075, 24.905660)">
                        <g id="mask-2" fill="#FFFFFF" sketch:type="MSShapeGroup">
                            <path d="M0,5.65471698 C0,2.53245283 2.54037736,0 5.66037736,0 L11.3207547,0 L11.3207547,22.6415094 L5.66037736,22.6415094 C2.53471698,22.6415094 0,20.1101887 0,16.9867925 L0,5.65471698 L0,5.65471698 Z" id="path-1"></path>
                        </g>
                        <g id="Fill-2390-Clipped">
                            <mask id="mask-2" sketch:name="path-1" fill="white">
                                <use xlink:href="#path-1"></use>
                            </mask>
                            <g id="path-1"></g>
                            <path d="M0,0 L11.3207547,0 L11.3207547,22.6415094 L0,22.6415094 L0,0 L0,0 Z" id="Fill-2390" fill="#009AE1" sketch:type="MSShapeGroup" mask="url(#mask-2)"></path>
                        </g>
                    </g>
                    <path d="M12.4528302,48.6792453 L6.79245283,48.6792453 C3.04641509,48.6792453 0,45.6339623 0,41.8924528 L0,30.5603774 C0,26.8177358 3.04641509,23.7735849 6.79245283,23.7735849 L12.4528302,23.7735849 C13.0777358,23.7735849 13.5849057,24.2796226 13.5849057,24.9056604 L13.5849057,47.5471698 C13.5849057,48.1732075 13.0777358,48.6792453 12.4528302,48.6792453 L12.4528302,48.6792453 L12.4528302,48.6792453 Z M6.79245283,26.0377358 C4.29509434,26.0377358 2.26415094,28.0664151 2.26415094,30.5603774 L2.26415094,41.8924528 C2.26415094,44.3864151 4.29509434,46.4150943 6.79245283,46.4150943 L11.3207547,46.4150943 L11.3207547,26.0377358 L6.79245283,26.0377358 L6.79245283,26.0377358 Z" id="Fill-2393" fill="#333333" sketch:type="MSShapeGroup"></path>
                    <g id="Group-2396" transform="translate(43.018868, 24.905660)">
                        <g id="mask-4" fill="#FFFFFF" sketch:type="MSShapeGroup">
                            <path d="M11.3207547,5.65471698 C11.3207547,2.53245283 8.78037736,0 5.66037736,0 L0,0 L0,22.6415094 L5.66037736,22.6415094 C8.78603774,22.6415094 11.3207547,20.1101887 11.3207547,16.9867925 L11.3207547,5.65471698 L11.3207547,5.65471698 Z" id="path-3"></path>
                        </g>
                        <g id="Fill-2394-Clipped">
                            <mask id="mask-4" sketch:name="path-3" fill="white">
                                <use xlink:href="#path-3"></use>
                            </mask>
                            <g id="path-3"></g>
                            <path d="M0,0 L11.3207547,0 L11.3207547,22.6415094 L0,22.6415094 L0,0 L0,0 Z" id="Fill-2394" fill="#009AE1" sketch:type="MSShapeGroup" mask="url(#mask-4)"></path>
                        </g>
                    </g>
                    <path d="M48.6792453,48.6792453 L43.0188679,48.6792453 C42.3939623,48.6792453 41.8867925,48.1732075 41.8867925,47.5471698 L41.8867925,24.9056604 C41.8867925,24.2796226 42.3939623,23.7735849 43.0188679,23.7735849 L48.6792453,23.7735849 C52.425283,23.7735849 55.4716981,26.8177358 55.4716981,30.5603774 L55.4716981,41.8924528 C55.4716981,45.6339623 52.425283,48.6792453 48.6792453,48.6792453 L48.6792453,48.6792453 L48.6792453,48.6792453 Z M44.1509434,46.4150943 L48.6792453,46.4150943 C51.1766038,46.4150943 53.2075472,44.3864151 53.2075472,41.8924528 L53.2075472,30.5603774 C53.2075472,28.0664151 51.1766038,26.0377358 48.6792453,26.0377358 L44.1509434,26.0377358 L44.1509434,46.4150943 L44.1509434,46.4150943 Z" id="Fill-2397" fill="#333333" sketch:type="MSShapeGroup"></path>
                    <g id="Group-2400" transform="translate(7.924528, 0.000000)">
                        <g id="mask-6" fill="#FFFFFF" sketch:type="MSShapeGroup">
                            <path d="M0,24.9056604 L0,12.4528302 C0,5.5754717 5.57207547,0 12.4550943,0 L27.1675472,0 C34.0460377,0 39.6226415,5.57320755 39.6226415,12.4528302 L39.6226415,24.9056604" id="path-5"></path>
                        </g>
                        <g id="Fill-2398-Clipped">
                            <mask id="mask-6" sketch:name="path-5" fill="white">
                                <use xlink:href="#path-5"></use>
                            </mask>
                            <g id="path-5"></g>
                            <path d="M39.6226415,27.1698113 C38.3728302,27.1698113 37.3584906,26.1554717 37.3584906,24.9056604 L37.3584906,12.4528302 C37.3584906,6.83433962 32.7871698,2.26415094 27.1675472,2.26415094 L12.4550943,2.26415094 C6.8354717,2.26415094 2.26415094,6.83433962 2.26415094,12.4528302 L2.26415094,24.9056604 C2.26415094,26.1554717 1.24981132,27.1698113 -4.4408921e-16,27.1698113 C-1.24981132,27.1698113 -2.26415094,26.1554717 -2.26415094,24.9056604 L-2.26415094,12.4528302 C-2.26415094,4.33811321 4.33924528,-2.26415094 12.4550943,-2.26415094 L27.1675472,-2.26415094 C35.2845283,-2.26415094 41.8867925,4.33811321 41.8867925,12.4528302 L41.8867925,24.9056604 C41.8867925,26.1554717 40.8724528,27.1698113 39.6226415,27.1698113" id="Fill-2398" fill="#333333" sketch:type="MSShapeGroup" mask="url(#mask-6)"></path>
                        </g>
                    </g>
                    <path d="M31.1320755,58.3018868 C30.5071698,58.3018868 30,57.7958491 30,57.1698113 C30,56.5437736 30.5071698,56.0377358 31.1320755,56.0377358 C37.3335849,56.0377358 41.7430189,54.689434 43.8849057,52.1366038 C45.645283,50.0377358 45.3045283,47.7656604 45.3,47.7441509 C45.1913208,47.1283019 45.6022642,46.5407547 46.2181132,46.4332075 C46.8328302,46.3166038 47.4215094,46.7343396 47.5301887,47.3501887 C47.5539623,47.4837736 48.0792453,50.6592453 45.6192453,53.5913208 C42.9973585,56.7169811 38.1226415,58.3018868 31.1320755,58.3018868" id="Fill-2401" fill="#333333" sketch:type="MSShapeGroup"></path>
                    <g id="Group-2404" transform="translate(23.773585, 54.339623)">
                        <g id="mask-8" fill="#FFFFFF" sketch:type="MSShapeGroup">
                            <path d="M0,2.26415094 C0,1.01320755 1.01660377,0 2.26188679,0 L4.53056604,0 C5.78037736,0 6.79245283,1.00528302 6.79245283,2.26415094 C6.79245283,3.51509434 5.77584906,4.52830189 4.53056604,4.52830189 L2.26188679,4.52830189 C1.01320755,4.52830189 0,3.52301887 0,2.26415094 L0,2.26415094 L0,2.26415094 Z" id="path-7"></path>
                        </g>
                        <g id="Fill-2402-Clipped">
                            <mask id="mask-8" sketch:name="path-7" fill="white">
                                <use xlink:href="#path-7"></use>
                            </mask>
                            <g id="path-7"></g>
                            <path d="M0,0 L6.79245283,0 L6.79245283,4.52830189 L0,4.52830189 L0,0 L0,0 Z" id="Fill-2402" fill="#B20608" sketch:type="MSShapeGroup" mask="url(#mask-8)"></path>
                        </g>
                    </g>
                    <path d="M28.3041509,60 L26.0354717,60 C24.1641509,60 22.6415094,58.4762264 22.6415094,56.6037736 C22.6415094,54.7313208 24.1641509,53.2075472 26.0354717,53.2075472 L28.3041509,53.2075472 C30.1754717,53.2075472 31.6981132,54.7313208 31.6981132,56.6037736 C31.6981132,58.4762264 30.1754717,60 28.3041509,60 L28.3041509,60 L28.3041509,60 Z M26.0354717,55.4716981 C25.4128302,55.4716981 24.9056604,55.9788679 24.9056604,56.6037736 C24.9056604,57.2377358 25.4026415,57.7358491 26.0354717,57.7358491 L28.3041509,57.7358491 C28.9267925,57.7358491 29.4339623,57.2286792 29.4339623,56.6037736 C29.4339623,55.9698113 28.9381132,55.4716981 28.3041509,55.4716981 L26.0354717,55.4716981 L26.0354717,55.4716981 Z" id="Fill-2405" fill="#333333" sketch:type="MSShapeGroup"></path>
                </g>
            </g>
        </g>
    </g>
</svg>