<?xml version="1.0" encoding="UTF-8" standalone="no"?>
<svg width="53px" height="53px" viewBox="0 0 53 53" version="1.1" xmlns="http://www.w3.org/2000/svg" xmlns:xlink="http://www.w3.org/1999/xlink" xmlns:sketch="http://www.bohemiancoding.com/sketch/ns">
    <!-- Generator: Sketch 3.3.3 (12072) - http://www.bohemiancoding.com/sketch -->
    <title>Headset</title>
    <desc>Created with Sketch.</desc>
    <defs>
        <path id="path-1" d="M0,4.995 C0,2.236 2.244,0 5,0 L10,0 L10,20 L5,20 C2.239,20 0,17.764 0,15.005 L0,4.995 L0,4.995 Z"></path>
        <path id="path-3" d="M10,4.995 C10,2.236 7.756,0 5,0 L0,0 L0,20 L5,20 C7.761,20 10,17.764 10,15.005 L10,4.995 L10,4.995 Z"></path>
        <path id="path-5" d="M0,22 L0,11 C0,4.925 4.922,0 11.002,0 L23.998,0 C30.074,0 35,4.924 35,11 L35,22 L0,22"></path>
        <path id="path-7" d="M0,2 C0,0.895 0.898,0 1.998,0 L4.002,0 C5.106,0 6,0.888 6,2 C6,3.105 5.102,4 4.002,4 L1.998,4 C0.894,4 0,3.112 0,2 L0,2 Z"></path>
    </defs>
    <g id="Page-1" stroke="none" stroke-width="1" fill="none" fill-rule="evenodd" sketch:type="MSPage">
        <g id="Headset" sketch:type="MSLayerGroup" transform="translate(3.000000, 0.000000)">
            <g id="Group-3" transform="translate(0.000000, 22.000000)">
                <mask id="mask-2" sketch:name="Clip 2" fill="white">
                    <use xlink:href="#path-1"></use>
                </mask>
                <g id="Clip-2"></g>
                <path d="M-0.08,-0.06 L10,-0.06 L10,20.1 L-0.08,20.1 L-0.08,-0.06 Z" id="Fill-1" fill="#009CDE" sketch:type="MSShapeGroup" mask="url(#mask-2)"></path>
            </g>
            <path d="M0,26.995 C0,24.236 2.244,22 5,22 L10,22 L10,42 L5,42 C2.239,42 0,39.764 0,37.005 L0,26.995 L0,26.995 Z" id="Stroke-4" stroke="#2F4E55" stroke-width="2" stroke-linecap="round" stroke-linejoin="round" sketch:type="MSShapeGroup"></path>
            <g id="Group-8" transform="translate(37.000000, 22.000000)">
                <mask id="mask-4" sketch:name="Clip 7" fill="white">
                    <use xlink:href="#path-3"></use>
                </mask>
                <g id="Clip-7"></g>
                <path d="M0,-0.06 L10.08,-0.06 L10.08,20.1 L0,20.1 L0,-0.06 Z" id="Fill-6" fill="#009CDE" sketch:type="MSShapeGroup" mask="url(#mask-4)"></path>
            </g>
            <path d="M47,26.995 C47,24.236 44.756,22 42,22 L37,22 L37,42 L42,42 C44.761,42 47,39.764 47,37.005 L47,26.995 L47,26.995 Z" id="Stroke-9" stroke="#2F4E55" stroke-width="2" stroke-linecap="round" stroke-linejoin="round" sketch:type="MSShapeGroup"></path>
            <g id="Group-13" transform="translate(6.000000, 0.000000)">
                <mask id="mask-6" sketch:name="Clip 12" fill="white">
                    <use xlink:href="#path-5"></use>
                </mask>
                <g id="Clip-12"></g>
                <path d="M0,22 L0,11 C0,4.925 4.922,0 11.002,0 L23.998,0 C30.074,0 35,4.924 35,11 L35,22" id="Stroke-11" stroke="#2F4E55" stroke-width="4" stroke-linecap="round" stroke-linejoin="round" sketch:type="MSShapeGroup" mask="url(#mask-6)"></path>
            </g>
            <path d="M40,42 C40,42 41.5,50.5 26.5,50.5" id="Stroke-14" stroke="#2F4E55" stroke-width="2" stroke-linecap="round" stroke-linejoin="round" sketch:type="MSShapeGroup"></path>
            <g id="Group-18" transform="translate(20.000000, 48.000000)">
                <mask id="mask-8" sketch:name="Clip 17" fill="white">
                    <use xlink:href="#path-7"></use>
                </mask>
                <g id="Clip-17"></g>
                <path d="M-0.04,-0.02 L6.08,-0.02 L6.08,4.06 L-0.04,4.06 L-0.04,-0.02 Z" id="Fill-16" fill="#AF272F" sketch:type="MSShapeGroup" mask="url(#mask-8)"></path>
            </g>
            <path d="M20,50 C20,48.895 20.898,48 21.998,48 L24.002,48 C25.106,48 26,48.888 26,50 C26,51.105 25.102,52 24.002,52 L21.998,52 C20.894,52 20,51.112 20,50 L20,50 Z" id="Stroke-19" stroke="#2F4E55" stroke-width="2" stroke-linecap="round" stroke-linejoin="round" sketch:type="MSShapeGroup"></path>
        </g>
    </g>
</svg>