<?xml version="1.0" encoding="UTF-8" standalone="no"?>
<svg width="222px" height="222px" viewBox="0 0 222 222" version="1.1" xmlns="http://www.w3.org/2000/svg" xmlns:xlink="http://www.w3.org/1999/xlink" xmlns:sketch="http://www.bohemiancoding.com/sketch/ns">
    <!-- Generator: Sketch 3.3.3 (12072) - http://www.bohemiancoding.com/sketch -->
    <title>hewlett-packard_company</title>
    <desc>Created with Sketch.</desc>
    <defs>
        <path id="path-1" d="M0,0.0238961481 L220.799383,0.0238961481 L220.799383,221.116324 L0,221.116324"></path>
    </defs>
    <g id="Managed-IT" stroke="none" stroke-width="1" fill="none" fill-rule="evenodd" sketch:type="MSPage">
        <g id="Page" sketch:type="MSArtboardGroup" transform="translate(-892.000000, -2121.000000)">
            <g id="partners" sketch:type="MSLayerGroup" transform="translate(-80.000000, 1778.000000)">
                <g id="hewlett-packard_company" transform="translate(971.212470, 343.712089)">
                    <g id="Group-3" transform="translate(1.000000, 0.000000)">
                        <mask id="mask-2" sketch:name="Clip 2" fill="white">
                            <use xlink:href="#path-1"></use>
                        </mask>
                        <g id="Clip-2"></g>
                        <path d="M220.799383,110.582058 C220.799383,49.5225394 171.37178,0.0238961481 110.399489,0.0238961481 C110.24378,0.0238961481 110.089689,0.0291614011 109.933981,0.02997144 C102.146119,22.3566692 94.0638267,44.5764417 86.2177261,66.8796483 C91.9316287,66.9804982 97.6459357,66.7966193 103.359838,66.9626773 C107.532831,67.1352156 111.907639,68.8800394 114.213341,72.5426304 C116.850682,76.6681586 116.708725,81.963383 115.042844,86.4388481 C107.278035,108.324885 99.435979,130.187025 91.6828992,152.091287 C84.8305032,152.186062 77.972445,152.079137 71.1143868,152.138675 C70.1603172,152.120449 69.1641859,152.233449 68.2574355,151.865287 C76.9649895,127.806726 85.4707288,103.671211 94.0537158,79.5709331 C89.9636325,79.505725 85.8678871,79.5948292 81.7778038,79.5292161 C81.1497113,80.8354038 80.7052337,82.2242156 80.2308278,83.607357 C72.3353857,105.83766 64.374829,128.061888 56.5032488,150.310012 C56.1299524,150.879874 56.2306575,152.114779 55.3356358,152.120449 C48.8096214,152.15042 42.2714738,152.103033 35.7450549,152.132194 C34.5657132,152.120449 33.3681718,152.257345 32.2244206,151.906599 C50.0880504,102.276324 67.5452199,52.4925471 85.4181518,2.86713276 C36.4795147,14.2040325 0,58.1267728 0,110.582058 C0,162.081092 35.1602373,205.354587 82.7520954,217.644497 C100.559104,167.777691 118.265812,117.874433 136.002448,67.9837314 C136.174739,67.6277193 136.535497,66.8974692 136.713855,66.5297115 C147.679791,66.6362316 158.65139,66.5532026 169.634718,66.5827691 C173.233004,66.6423069 176.925525,66.2506531 180.429173,67.3369153 C184.453737,68.4231775 188.20571,71.325952 189.444504,75.427584 C190.357321,78.6685497 189.723162,82.1172904 188.57294,85.2043488 C181.566857,105.683348 174.15755,126.01411 166.926195,146.404409 C165.129681,151.717049 159.736093,155.047119 154.282649,155.230593 C145.729591,155.391386 137.176128,155.177941 128.623069,155.337518 C120.777373,177.213429 113.021057,199.118097 105.246542,221.016689 C106.954889,221.095668 108.671729,221.140625 110.399489,221.140625 C171.37178,221.140625 220.799383,171.641982 220.799383,110.582058" id="Fill-1" fill="#2390C3" sketch:type="MSShapeGroup" mask="url(#mask-2)"></path>
                    </g>
                    <path d="M146.39148,142.652714 C153.658425,121.509078 161.388048,100.52502 168.767831,79.422696 C165.602294,79.3514125 162.425027,79.4344415 159.259894,79.3749037 C158.347077,79.5113952 157.138211,79.0427877 156.456329,79.8143498 C148.958045,100.780182 141.537009,121.775581 134.044387,142.741818 C138.15267,142.771385 142.289668,142.943518 146.39148,142.652714" id="Fill-4" fill="#2390C3" sketch:type="MSShapeGroup"></path>
                </g>
            </g>
        </g>
    </g>
</svg>