<?xml version="1.0" encoding="UTF-8" standalone="no"?>
<svg width="60px" height="60px" viewBox="0 0 60 60" version="1.1" xmlns="http://www.w3.org/2000/svg" xmlns:xlink="http://www.w3.org/1999/xlink" xmlns:sketch="http://www.bohemiancoding.com/sketch/ns">
    <!-- Generator: Sketch 3.3.3 (12081) - http://www.bohemiancoding.com/sketch -->
    <title>Key</title>
    <desc>Created with Sketch.</desc>
    <defs>
        <path d="M38,11.004 C38,7.688 40.693,5 44,5 C47.314,5 50,7.681 50,11.004 L50,19.996 C50,23.312 47.307,26 44,26 C40.686,26 38,23.319 38,19.996 L38,11.004 L38,11.004 Z M34,10 C34,4.477 38.476,0 44,0 C49.523,0 54,4.475 54,10.001 L54,20.999 C54,26.523 49.524,31 44,31 C38.477,31 34,26.525 34,20.999 L34,15 L0,15 L0,10 L34,10 L34,10 Z" id="path-1"></path>
    </defs>
    <g id="colored" stroke="none" stroke-width="1" fill="none" fill-rule="evenodd" sketch:type="MSPage">
        <g id="Tech_sliced" sketch:type="MSLayerGroup" transform="translate(-720.000000, -720.000000)"></g>
        <g id="Imported-Layers" sketch:type="MSLayerGroup" transform="translate(-719.000000, -718.000000)">
            <g id="Group-987" transform="translate(722.000000, 731.000000)">
                <mask id="mask-2" sketch:name="Clip 986" fill="white">
                    <use xlink:href="#path-1"></use>
                </mask>
                <g id="Clip-986"></g>
                <path d="M0,0 L54,0 L54,31 L0,31 L0,0 Z" id="Fill-985" fill="#EBEBEB" sketch:type="MSShapeGroup" mask="url(#mask-2)"></path>
            </g>
            <path d="M766,763 C759.935,763 755,758.065 755,752 L755,747 L721,747 L721,740 L755.045,740 C755.552,734.401 760.271,730 766,730 C772.065,730 777,734.935 777,741 L777,752 C777,758.065 772.065,763 766,763 L766,763 Z M723,745 L757,745 L757,752 C757,756.962 761.037,761 766,761 C770.963,761 775,756.962 775,752 L775,741 C775,736.038 770.963,732 766,732 C761.037,732 757,736.038 757,741 L757,742 L723,742 L723,745 L723,745 Z M766,758 C762.141,758 759,754.858 759,750.996 L759,742.004 C759,738.142 762.141,735 766,735 C769.859,735 773,738.142 773,742.004 L773,750.996 C773,754.858 769.859,758 766,758 L766,758 Z M766,737 C763.243,737 761,739.245 761,742.004 L761,750.996 C761,753.755 763.243,756 766,756 C768.757,756 771,753.755 771,750.996 L771,742.004 C771,739.245 768.757,737 766,737 L766,737 Z" id="Fill-988" fill="#314E55" sketch:type="MSShapeGroup"></path>
            <path d="M726,746 L732,746 L732,756 L726,756 L726,746 Z" id="Fill-989" fill="#E4AD40" sketch:type="MSShapeGroup"></path>
            <path d="M725,745 L733,745 L733,757 L725,757 L725,745 Z M727,755 L731,755 L731,747 L727,747 L727,755 Z" id="Fill-991" fill="#314E55" sketch:type="MSShapeGroup"></path>
            <path d="M736,746 L742,746 L742,756 L736,756 L736,746 Z" id="Fill-992" fill="#E4AD40" sketch:type="MSShapeGroup"></path>
            <path d="M735,745 L743,745 L743,757 L735,757 L735,745 Z M737,755 L741,755 L741,747 L737,747 L737,755 Z" id="Fill-994" fill="#314E55" sketch:type="MSShapeGroup"></path>
        </g>
    </g>
</svg>