<?xml version="1.0" encoding="UTF-8" standalone="no"?>
<svg width="56px" height="56px" viewBox="0 0 56 56" version="1.1" xmlns="http://www.w3.org/2000/svg" xmlns:xlink="http://www.w3.org/1999/xlink" xmlns:sketch="http://www.bohemiancoding.com/sketch/ns">
    <!-- Generator: Sketch 3.3.3 (12072) - http://www.bohemiancoding.com/sketch -->
    <title>Key</title>
    <desc>Created with Sketch.</desc>
    <defs>
        <path d="M34,10 C34,4.477 38.476,0 44,0 C49.523,0 54,4.475 54,10.001 L54,20.999 C54,26.523 49.524,31 44,31 C38.477,31 34,26.525 34,20.999 L34,15 L0,15 L0,10 L34,10 L34,10 Z M38,11.004 C38,7.688 40.693,5 44,5 C47.314,5 50,7.681 50,11.004 L50,19.996 C50,23.312 47.307,26 44,26 C40.686,26 38,23.319 38,19.996 L38,11.004 L38,11.004 Z" id="path-1"></path>
        <path id="path-3" d="M0,0 L6,0 L6,10 L0,10 L0,0 L0,0 Z"></path>
        <path id="path-5" d="M0,0 L6,0 L6,10 L0,10 L0,0 L0,0 Z"></path>
    </defs>
    <g id="Page-1" stroke="none" stroke-width="1" fill="none" fill-rule="evenodd" sketch:type="MSPage">
        <g id="Key" sketch:type="MSLayerGroup" transform="translate(1.000000, 13.000000)">
            <g id="Group-3">
                <mask id="mask-2" sketch:name="Clip 2" fill="white">
                    <use xlink:href="#path-1"></use>
                </mask>
                <g id="Clip-2"></g>
                <path d="M0,-0.1 L54,-0.1 L54,31.1 L0,31.1 L0,-0.1 Z" id="Fill-1" fill="#F3F6F7" sketch:type="MSShapeGroup" mask="url(#mask-2)"></path>
            </g>
            <path d="M34,10 C34,4.477 38.476,0 44,0 C49.523,0 54,4.475 54,10.001 L54,20.999 C54,26.523 49.524,31 44,31 C38.477,31 34,26.525 34,20.999 L34,15 L0,15 L0,10 L34,10 L34,10 Z M38,11.004 C38,7.688 40.693,5 44,5 C47.314,5 50,7.681 50,11.004 L50,19.996 C50,23.312 47.307,26 44,26 C40.686,26 38,23.319 38,19.996 L38,11.004 L38,11.004 Z" id="Stroke-4" stroke="#2F4E55" stroke-width="2" stroke-linecap="square" sketch:type="MSShapeGroup"></path>
            <g id="Group-8" transform="translate(4.000000, 15.000000)">
                <mask id="mask-4" sketch:name="Clip 7" fill="white">
                    <use xlink:href="#path-3"></use>
                </mask>
                <g id="Clip-7"></g>
                <path d="M-0.04,-0.1 L6.08,-0.1 L6.08,10.1 L-0.04,10.1 L-0.04,-0.1 Z" id="Fill-6" fill="#FF8F1C" sketch:type="MSShapeGroup" mask="url(#mask-4)"></path>
            </g>
            <path d="M4,15 L10,15 L10,25 L4,25 L4,15 Z" id="Stroke-9" stroke="#2F4E55" stroke-width="2" stroke-linecap="square" sketch:type="MSShapeGroup"></path>
            <g id="Group-13" transform="translate(14.000000, 15.000000)">
                <mask id="mask-6" sketch:name="Clip 12" fill="white">
                    <use xlink:href="#path-5"></use>
                </mask>
                <g id="Clip-12"></g>
                <path d="M-0.08,-0.1 L6.04,-0.1 L6.04,10.1 L-0.08,10.1 L-0.08,-0.1 Z" id="Fill-11" fill="#FF8F1C" sketch:type="MSShapeGroup" mask="url(#mask-6)"></path>
            </g>
            <path d="M14,15 L20,15 L20,25 L14,25 L14,15 Z" id="Stroke-14" stroke="#2F4E55" stroke-width="2" stroke-linecap="square" sketch:type="MSShapeGroup"></path>
        </g>
    </g>
</svg>