<?xml version="1.0" encoding="UTF-8" standalone="no"?>
<svg width="60px" height="60px" viewBox="0 0 60 60" version="1.1" xmlns="http://www.w3.org/2000/svg" xmlns:xlink="http://www.w3.org/1999/xlink" xmlns:sketch="http://www.bohemiancoding.com/sketch/ns">
    <!-- Generator: Sketch 3.3.3 (12072) - http://www.bohemiancoding.com/sketch -->
    <title>Page-1</title>
    <desc>Created with Sketch.</desc>
    <defs>
        <path d="M39.4080127,11.4117308 C39.4080127,7.9728632 42.2007963,5.18526483 45.6303305,5.18526483 C49.067124,5.18526483 51.8526483,7.96560382 51.8526483,11.4117308 L51.8526483,20.7369111 C51.8526483,24.1757787 49.0598646,26.9633771 45.6303305,26.9633771 C42.1935369,26.9633771 39.4080127,24.183038 39.4080127,20.7369111 L39.4080127,11.4117308 L39.4080127,11.4117308 Z M35.2598008,10.3705297 C35.2598008,4.64288613 39.9016499,0 45.6303305,0 C51.357974,0 56.0008601,4.64081202 56.0008601,10.3715667 L56.0008601,21.7770753 C56.0008601,27.5057558 51.3590111,32.1486419 45.6303305,32.1486419 C39.9026869,32.1486419 35.2598008,27.5078299 35.2598008,21.7770753 L35.2598008,15.5557945 L0,15.5557945 L0,10.3705297 L35.2598008,10.3705297 L35.2598008,10.3705297 Z" id="path-1"></path>
    </defs>
    <g id="Page-1" stroke="none" stroke-width="1" fill="none" fill-rule="evenodd" sketch:type="MSPage">
        <g id="Key" sketch:type="MSLayerGroup" transform="translate(0.000000, 10.000000)">
            <g id="Page-1">
                <g id="Key">
                    <g id="colored">
                        <g id="Imported-Layers">
                            <g id="Group-987" transform="translate(0.069215, 0.069215)">
                                <g id="mask-2" transform="translate(0.967838, 0.967838)" fill="#FFFFFF" sketch:type="MSShapeGroup">
                                    <path d="M40.3758506,12.3795687 C40.3758506,8.94070107 43.1686342,6.1531027 46.5981684,6.1531027 C50.0349619,6.1531027 52.8204861,8.9334417 52.8204861,12.3795687 L52.8204861,21.7047489 C52.8204861,25.1436166 50.0277024,27.9312149 46.5981684,27.9312149 C43.1613748,27.9312149 40.3758506,25.1508759 40.3758506,21.7047489 L40.3758506,12.3795687 L40.3758506,12.3795687 Z M36.2276387,11.3383675 C36.2276387,5.610724 40.8694878,0.967837875 46.5981684,0.967837875 C52.3258119,0.967837875 56.968698,5.6086499 56.968698,11.3394046 L56.968698,22.7449131 C56.968698,28.4735937 52.3268489,33.1164798 46.5981684,33.1164798 C40.8705248,33.1164798 36.2276387,28.4756678 36.2276387,22.7449131 L36.2276387,16.5236324 L0.967837875,16.5236324 L0.967837875,11.3383675 L36.2276387,11.3383675 L36.2276387,11.3383675 Z" id="path-1"></path>
                                </g>
                                <g id="Fill-985-Clipped" transform="translate(0.967838, 0.967838)">
                                    <g id="mask-2" transform="translate(0.967838, 0.967838)" fill="#FFFFFF" sketch:type="MSShapeGroup">
                                        <path d="M39.4080127,11.4117308 C39.4080127,7.9728632 42.2007963,5.18526483 45.6303305,5.18526483 C49.067124,5.18526483 51.8526483,7.96560382 51.8526483,11.4117308 L51.8526483,20.7369111 C51.8526483,24.1757787 49.0598646,26.9633771 45.6303305,26.9633771 C42.1935369,26.9633771 39.4080127,24.183038 39.4080127,20.7369111 L39.4080127,11.4117308 L39.4080127,11.4117308 Z M35.2598008,10.3705297 C35.2598008,4.64288613 39.9016499,0 45.6303305,0 C51.357974,0 56.0008601,4.64081202 56.0008601,10.3715667 L56.0008601,21.7770753 C56.0008601,27.5057558 51.3590111,32.1486419 45.6303305,32.1486419 C39.9026869,32.1486419 35.2598008,27.5078299 35.2598008,21.7770753 L35.2598008,15.5557945 L0,15.5557945 L0,10.3705297 L35.2598008,10.3705297 L35.2598008,10.3705297 Z" id="path-1"></path>
                                    </g>
                                    <g transform="translate(0.967838, 0.967838)">
                                        <mask id="mask-2" sketch:name="path-1" fill="white">
                                            <use xlink:href="#path-1"></use>
                                        </mask>
                                        <g id="path-1"></g>
                                        <path d="M0,0 L56.0008601,0 L56.0008601,32.1486419 L0,32.1486419 L0,0 L0,0 Z" id="Fill-985" fill="#F3F6F7" sketch:type="MSShapeGroup" mask="url(#mask-2)"></path>
                                    </g>
                                </g>
                            </g>
                            <path d="M47.6352214,35.1905857 C41.345495,35.1905857 36.2276387,30.0727293 36.2276387,23.7830031 L36.2276387,18.5977383 L0.967837875,18.5977383 L0.967837875,11.3383675 L36.2743061,11.3383675 C36.800092,5.53190797 41.6939448,0.967837875 47.6352214,0.967837875 C53.9249476,0.967837875 59.0428039,6.08569425 59.0428039,12.3754205 L59.0428039,23.7830031 C59.0428039,30.0727293 53.9249476,35.1905857 47.6352214,35.1905857 L47.6352214,35.1905857 L47.6352214,35.1905857 Z M3.04194381,16.5236324 L38.3017446,16.5236324 L38.3017446,23.7830031 C38.3017446,28.9288599 42.4883275,33.1164798 47.6352214,33.1164798 C52.7821151,33.1164798 56.968698,28.9288599 56.968698,23.7830031 L56.968698,12.3754205 C56.968698,7.22956368 52.7821151,3.04194381 47.6352214,3.04194381 C42.4883275,3.04194381 38.3017446,7.22956368 38.3017446,12.3754205 L38.3017446,13.4124734 L3.04194381,13.4124734 L3.04194381,16.5236324 L3.04194381,16.5236324 Z M47.6352214,30.0053209 C43.6332339,30.0053209 40.3758506,26.7469005 40.3758506,22.7418019 L40.3758506,13.4166217 C40.3758506,9.41152311 43.6332339,6.1531027 47.6352214,6.1531027 C51.6372087,6.1531027 54.894592,9.41152311 54.894592,13.4166217 L54.894592,22.7418019 C54.894592,26.7469005 51.6372087,30.0053209 47.6352214,30.0053209 L47.6352214,30.0053209 L47.6352214,30.0053209 Z M47.6352214,8.22720863 C44.7760663,8.22720863 42.4499565,10.5553925 42.4499565,13.4166217 L42.4499565,22.7418019 C42.4499565,25.6030311 44.7760663,27.9312149 47.6352214,27.9312149 C50.4943764,27.9312149 52.8204861,25.6030311 52.8204861,22.7418019 L52.8204861,13.4166217 C52.8204861,10.5553925 50.4943764,8.22720863 47.6352214,8.22720863 L47.6352214,8.22720863 L47.6352214,8.22720863 Z" id="Fill-988" fill="#333333" sketch:type="MSShapeGroup"></path>
                            <path d="M6.1531027,17.5606853 L12.3754205,17.5606853 L12.3754205,27.9312149 L6.1531027,27.9312149 L6.1531027,17.5606853 L6.1531027,17.5606853 Z" id="Fill-989" fill="#FF8E00" sketch:type="MSShapeGroup"></path>
                            <path d="M5.11604974,16.5236324 L13.4124734,16.5236324 L13.4124734,28.9682679 L5.11604974,28.9682679 L5.11604974,16.5236324 L5.11604974,16.5236324 Z M7.19015567,26.8941621 L11.3383675,26.8941621 L11.3383675,18.5977383 L7.19015567,18.5977383 L7.19015567,26.8941621 L7.19015567,26.8941621 Z" id="Fill-991" fill="#333333" sketch:type="MSShapeGroup"></path>
                            <path d="M16.5236324,17.5606853 L22.7459502,17.5606853 L22.7459502,27.9312149 L16.5236324,27.9312149 L16.5236324,17.5606853 L16.5236324,17.5606853 Z" id="Fill-992" fill="#FF8E00" sketch:type="MSShapeGroup"></path>
                            <path d="M15.4865794,16.5236324 L23.7830031,16.5236324 L23.7830031,28.9682679 L15.4865794,28.9682679 L15.4865794,16.5236324 L15.4865794,16.5236324 Z M17.5606853,26.8941621 L21.7088972,26.8941621 L21.7088972,18.5977383 L17.5606853,18.5977383 L17.5606853,26.8941621 L17.5606853,26.8941621 Z" id="Fill-994" fill="#333333" sketch:type="MSShapeGroup"></path>
                        </g>
                    </g>
                </g>
            </g>
        </g>
    </g>
</svg>