<?xml version="1.0" encoding="UTF-8" standalone="no"?>
<svg width="60px" height="60px" viewBox="0 0 60 60" version="1.1" xmlns="http://www.w3.org/2000/svg" xmlns:xlink="http://www.w3.org/1999/xlink" xmlns:sketch="http://www.bohemiancoding.com/sketch/ns">
    <!-- Generator: Sketch 3.3.3 (12072) - http://www.bohemiancoding.com/sketch -->
    <title>outlined</title>
    <desc>Created with Sketch.</desc>
    <defs>
        <path id="path-1" d="M17.8947368,35.8252632 C27.7778947,35.8252632 35.7894737,27.8136842 35.7894737,17.9305263 C35.7894737,8.04736842 27.7778947,0.0357894737 17.8947368,0.0357894737 C8.01157895,0.0357894737 0,8.04736842 0,17.9305263 C0,27.8136842 8.01157895,35.8252632 17.8947368,35.8252632 L17.8947368,35.8252632 L17.8947368,35.8252632 Z"></path>
        <path id="path-3" d="M5.22526316,0.0505263158 L17.8789474,12.7042105 L12.6684211,17.9147368 L0.0157894737,5.26105263 L5.22526316,0.0505263158"></path>
        <path id="path-5" d="M0.936842105,7.87473684 C-0.126315789,4.35157895 3.79263158,0.432631579 7.31578947,0.432631579 C9.53473684,0.432631579 11.4884211,1.56526316 12.6315789,3.28421053 C13.7747368,1.56526316 15.7284211,0.432631579 17.9473684,0.432631579 C21.4705263,0.432631579 25.3894737,4.35157895 24.3263158,7.87473684 C23.2631579,11.3978947 12.6315789,19.3757895 12.6315789,19.3757895 C12.6315789,19.3757895 2,11.3978947 0.936842105,7.87473684 L0.936842105,7.87473684 L0.936842105,7.87473684 Z"></path>
    </defs>
    <g id="Page-1" stroke="none" stroke-width="1" fill="none" fill-rule="evenodd" sketch:type="MSPage">
        <g id="Loopheart" sketch:type="MSLayerGroup" transform="translate(1.000000, 0.000000)">
            <g id="outlined">
                <g id="Imported-Layers">
                    <g id="Group-838" transform="translate(1.052632, 1.052632)">
                        <g id="mask-2" fill="#FFFFFF" sketch:type="MSShapeGroup">
                            <path d="M17.8947368,35.8252632 C27.7778947,35.8252632 35.7894737,27.8136842 35.7894737,17.9305263 C35.7894737,8.04736842 27.7778947,0.0357894737 17.8947368,0.0357894737 C8.01157895,0.0357894737 0,8.04736842 0,17.9305263 C0,27.8136842 8.01157895,35.8252632 17.8947368,35.8252632 L17.8947368,35.8252632 L17.8947368,35.8252632 Z" id="path-1"></path>
                        </g>
                        <g id="Fill-836-Clipped">
                            <mask id="mask-2" sketch:name="path-1" fill="white">
                                <use xlink:href="#path-1"></use>
                            </mask>
                            <g id="path-1"></g>
                            <path d="M0,0.0357894737 L35.7894737,0.0357894737 L35.7894737,35.8252632 L0,35.8252632 L0,0.0357894737 L0,0.0357894737 Z" id="Fill-836" fill="#F3F6F7" sketch:type="MSShapeGroup" mask="url(#mask-2)"></path>
                        </g>
                    </g>
                    <path d="M18.9473684,37.9305263 C8.5,37.9305263 0,29.4305263 0,18.9831579 C0,8.53578947 8.5,0.0357894737 18.9473684,0.0357894737 C29.3947368,0.0357894737 37.8947368,8.53578947 37.8947368,18.9831579 C37.8947368,29.4305263 29.3947368,37.9305263 18.9473684,37.9305263 L18.9473684,37.9305263 L18.9473684,37.9305263 Z M18.9473684,2.14105263 C9.66105263,2.14105263 2.10526316,9.69684211 2.10526316,18.9831579 C2.10526316,28.2694737 9.66105263,35.8252632 18.9473684,35.8252632 C28.2336842,35.8252632 35.7894737,28.2694737 35.7894737,18.9831579 C35.7894737,9.69684211 28.2336842,2.14105263 18.9473684,2.14105263 L18.9473684,2.14105263 L18.9473684,2.14105263 Z" id="Fill-839" fill="#333333" sketch:type="MSShapeGroup"></path>
                    <path d="M41.0663158,43.2073684 C40.7968421,43.2073684 40.5273684,43.1052632 40.3221053,42.8989474 L30.3084211,32.8852632 C29.8968421,32.4747368 29.8968421,31.8084211 30.3084211,31.3968421 C30.72,30.9863158 31.3852632,30.9863158 31.7968421,31.3968421 L41.8105263,41.4105263 C42.2221053,41.8221053 42.2221053,42.4884211 41.8105263,42.8989474 C41.6052632,43.1052632 41.3357895,43.2073684 41.0663158,43.2073684" id="Fill-840" fill="#333333" sketch:type="MSShapeGroup"></path>
                    <g id="Group-843" transform="translate(38.947368, 40.000000)">
                        <g id="mask-4" fill="#FFFFFF" sketch:type="MSShapeGroup">
                            <path d="M5.22526316,0.0505263158 L17.8789474,12.7042105 L12.6684211,17.9147368 L0.0157894737,5.26105263 L5.22526316,0.0505263158" id="path-3"></path>
                        </g>
                        <g id="Fill-841-Clipped">
                            <mask id="mask-4" sketch:name="path-3" fill="white">
                                <use xlink:href="#path-3"></use>
                            </mask>
                            <g id="path-3"></g>
                            <path d="M5.22526316,-7.39263158 L25.3221053,12.7042105 L12.6684211,25.3578947 L-7.42736842,5.26105263 L5.22526316,-7.39263158" id="Fill-841" fill="#F3F6F7" sketch:type="MSShapeGroup" mask="url(#mask-4)"></path>
                        </g>
                    </g>
                    <path d="M51.6168421,59.4031579 L37.4747368,45.2610526 L44.1726316,38.5621053 L58.3147368,52.7042105 L51.6168421,59.4031579 L51.6168421,59.4031579 Z M40.4515789,45.2610526 L51.6168421,56.4252632 L55.3378947,52.7042105 L44.1726316,41.5389474 L40.4515789,45.2610526 L40.4515789,45.2610526 Z" id="Fill-844" fill="#333333" sketch:type="MSShapeGroup"></path>
                    <g id="Group-847" transform="translate(6.315789, 10.526316)">
                        <g id="mask-6" fill="#FFFFFF" sketch:type="MSShapeGroup">
                            <path d="M0.936842105,7.87473684 C-0.126315789,4.35157895 3.79263158,0.432631579 7.31578947,0.432631579 C9.53473684,0.432631579 11.4884211,1.56526316 12.6315789,3.28421053 C13.7747368,1.56526316 15.7284211,0.432631579 17.9473684,0.432631579 C21.4705263,0.432631579 25.3894737,4.35157895 24.3263158,7.87473684 C23.2631579,11.3978947 12.6315789,19.3757895 12.6315789,19.3757895 C12.6315789,19.3757895 2,11.3978947 0.936842105,7.87473684 L0.936842105,7.87473684 L0.936842105,7.87473684 Z" id="path-5"></path>
                        </g>
                        <g id="Fill-845-Clipped">
                            <mask id="mask-6" sketch:name="path-5" fill="white">
                                <use xlink:href="#path-5"></use>
                            </mask>
                            <g id="path-5"></g>
                            <path d="M-0.126315789,0.432631579 L25.3894737,0.432631579 L25.3894737,19.3757895 L-0.126315789,19.3757895 L-0.126315789,0.432631579 L-0.126315789,0.432631579 Z" id="Fill-845" fill="#B82628" sketch:type="MSShapeGroup" mask="url(#mask-6)"></path>
                        </g>
                    </g>
                    <path d="M18.9473684,31.2178947 L18.3157895,30.7442105 C17.1989474,29.9063158 7.37473684,22.4505263 6.24526316,18.7052632 C5.71368421,16.9463158 6.13052632,15.0231579 7.41684211,13.2915789 C8.94421053,11.2347368 11.3831579,9.90631579 13.6315789,9.90631579 C15.6557895,9.90631579 17.5621053,10.7242105 18.9473684,12.1431579 C20.3326316,10.7242105 22.2389474,9.90631579 24.2631579,9.90631579 C26.5105263,9.90631579 28.9505263,11.2347368 30.4778947,13.2915789 C31.7642105,15.0231579 32.1810526,16.9463158 31.6494737,18.7052632 C30.52,22.4505263 20.6957895,29.9063158 19.5789474,30.7442105 L18.9473684,31.2178947 L18.9473684,31.2178947 Z M13.6315789,12.0115789 C12.0515789,12.0115789 10.2326316,13.0305263 9.10736842,14.5463158 C8.59789474,15.2326316 7.81052632,16.6052632 8.26105263,18.0968421 C8.92526316,20.3031579 14.9157895,25.4894737 18.9473684,28.5810526 C22.9789474,25.4894737 28.9684211,20.3031579 29.6336842,18.0968421 C30.0842105,16.6052632 29.2968421,15.2326316 28.7873684,14.5463158 C27.6621053,13.0305263 25.8431579,12.0115789 24.2631579,12.0115789 C22.4757895,12.0115789 20.8157895,12.9021053 19.8231579,14.3936842 L18.9473684,15.7115789 L18.0705263,14.3936842 C17.08,12.9021053 15.42,12.0115789 13.6315789,12.0115789 L13.6315789,12.0115789 L13.6315789,12.0115789 Z" id="Fill-848" fill="#333333" sketch:type="MSShapeGroup"></path>
                </g>
            </g>
        </g>
    </g>
</svg>