<?xml version="1.0" encoding="UTF-8" standalone="no"?>
<svg width="57px" height="57px" viewBox="0 0 57 57" version="1.1" xmlns="http://www.w3.org/2000/svg" xmlns:xlink="http://www.w3.org/1999/xlink" xmlns:sketch="http://www.bohemiancoding.com/sketch/ns">
    <!-- Generator: Sketch 3.3.3 (12072) - http://www.bohemiancoding.com/sketch -->
    <title>Loopheart</title>
    <desc>Created with Sketch.</desc>
    <defs>
        <path id="path-1" d="M17,34.034 C26.389,34.034 34,26.423 34,17.034 C34,7.645 26.389,0.034 17,0.034 C7.611,0.034 0,7.645 0,17.034 C0,26.423 7.611,34.034 17,34.034 L17,34.034 Z"></path>
        <path id="path-3" d="M4.964,0.048 L16.985,12.069 L12.036,17.019 L0.015,4.998 L4.964,0.048"></path>
        <path id="path-5" d="M0.89,7.481 C-0.12,4.134 3.603,0.411 6.95,0.411 C9.058,0.411 10.914,1.487 12,3.12 C13.086,1.487 14.942,0.411 17.05,0.411 C20.397,0.411 24.12,4.134 23.11,7.481 C22.1,10.828 12,18.407 12,18.407 C12,18.407 1.9,10.828 0.89,7.481 L0.89,7.481 Z"></path>
    </defs>
    <g id="Page-1" stroke="none" stroke-width="1" fill="none" fill-rule="evenodd" sketch:type="MSPage">
        <g id="Loopheart" sketch:type="MSLayerGroup" transform="translate(2.000000, 1.000000)">
            <g id="Group-3">
                <mask id="mask-2" sketch:name="Clip 2" fill="white">
                    <use xlink:href="#path-1"></use>
                </mask>
                <g id="Clip-2"></g>
                <path d="M-0.04,-0.02 L34.04,-0.02 L34.04,34.06 L-0.04,34.06 L-0.04,-0.02 Z" id="Fill-1" fill="#F3F6F7" sketch:type="MSShapeGroup" mask="url(#mask-2)"></path>
            </g>
            <path d="M17,34.034 C26.389,34.034 34,26.423 34,17.034 C34,7.645 26.389,0.034 17,0.034 C7.611,0.034 0,7.645 0,17.034 C0,26.423 7.611,34.034 17,34.034 L17,34.034 Z M28.5,29.534 L38.013,39.047 L28.5,29.534 Z" id="Stroke-4" stroke="#2F4E55" stroke-width="2" stroke-linecap="round" sketch:type="MSShapeGroup"></path>
            <g id="Group-8" transform="translate(36.000000, 37.000000)">
                <mask id="mask-4" sketch:name="Clip 7" fill="white">
                    <use xlink:href="#path-3"></use>
                </mask>
                <g id="Clip-7"></g>
                <path d="M4.964,-7.023 L24.056,12.069 L12.036,24.09 L-7.056,4.998" id="Fill-6" fill="#003B5C" sketch:type="MSShapeGroup" mask="url(#mask-4)"></path>
            </g>
            <path d="M40.964,37.048 L52.985,49.069 L48.036,54.019 L36.015,41.998 L40.964,37.048 L40.964,37.048 Z" id="Stroke-9" stroke="#2F4E55" stroke-width="2" stroke-linecap="round" sketch:type="MSShapeGroup"></path>
            <g id="Group-13" transform="translate(5.000000, 9.000000)">
                <mask id="mask-6" sketch:name="Clip 12" fill="white">
                    <use xlink:href="#path-5"></use>
                </mask>
                <g id="Clip-12"></g>
                <path d="M0.72,0.34 L23.28,0.34 L23.28,18.46 L0.72,18.46 L0.72,0.34 Z" id="Fill-11" fill="#E65B58" sketch:type="MSShapeGroup" mask="url(#mask-6)"></path>
            </g>
            <path d="M5.89,16.481 C4.88,13.134 8.603,9.411 11.95,9.411 C14.058,9.411 15.914,10.487 17,12.12 C18.086,10.487 19.942,9.411 22.05,9.411 C25.397,9.411 29.12,13.134 28.11,16.481 C27.1,19.828 17,27.407 17,27.407 C17,27.407 6.9,19.828 5.89,16.481 L5.89,16.481 Z" id="Stroke-14" stroke="#2F4E55" stroke-width="2" stroke-linecap="round" sketch:type="MSShapeGroup"></path>
        </g>
    </g>
</svg>