<?xml version="1.0" encoding="UTF-8" standalone="no"?>
<svg width="57px" height="57px" viewBox="0 0 57 57" version="1.1" xmlns="http://www.w3.org/2000/svg" xmlns:xlink="http://www.w3.org/1999/xlink" xmlns:sketch="http://www.bohemiancoding.com/sketch/ns">
    <!-- Generator: Sketch 3.3.3 (12072) - http://www.bohemiancoding.com/sketch -->
    <title>Lovestudy</title>
    <desc>Created with Sketch.</desc>
    <defs>
        <path id="path-1" d="M0,0 L48,0 L48,33 L0,33 L0,0 L0,0 Z"></path>
        <path id="path-3" d="M0.955,4.771 C2.808,0.611 6.752,-0.427 10.338,1.17 C12.067,1.939 13.337,3.315 14.01,4.935 C15.664,4.351 17.536,4.374 19.265,5.144 C22.851,6.741 24.72,10.367 22.867,14.527 C21.015,18.688 6.996,22.932 6.199,22.48 C5.27,22.164 -0.897,8.932 0.955,4.771"></path>
    </defs>
    <g id="Page-1" stroke="none" stroke-width="1" fill="none" fill-rule="evenodd" sketch:type="MSPage">
        <g id="Lovestudy" sketch:type="MSLayerGroup" transform="translate(-2.000000, -2.000000)">
            <g id="Group-3" transform="translate(6.000000, 7.000000)">
                <mask id="mask-2" sketch:name="Clip 2" fill="white">
                    <use xlink:href="#path-1"></use>
                </mask>
                <g id="Clip-2"></g>
                <path d="M0,-0.1 L48,-0.1 L48,33.02 L0,33.02 L0,-0.1 Z" id="Fill-1" fill="#ACD0F1" sketch:type="MSShapeGroup" mask="url(#mask-2)"></path>
            </g>
            <g id="Group-8" stroke="#2F4E55" stroke-width="2" sketch:type="MSShapeGroup" stroke-linecap="square" stroke-linejoin="round">
                <path d="M6,7 L54,7 L54,40 L6,40 L6,7 Z M30,40 L30,47.071 L30,40 Z M20,41 L14,55 L20,41 Z" id="Stroke-4"></path>
                <path d="M40,41 L46,55" id="Stroke-6"></path>
                <path d="M3,40 L57.009,40" id="Stroke-7"></path>
            </g>
            <g id="Group-11" transform="translate(20.000000, 12.000000)">
                <mask id="mask-4" sketch:name="Clip 10" fill="white">
                    <use xlink:href="#path-3"></use>
                </mask>
                <g id="Clip-10"></g>
                <path d="M1.312,-8.322 L32.359,5.501 L19.688,33.96 L-11.359,20.136" id="Fill-9" fill="#E65B58" sketch:type="MSShapeGroup" mask="url(#mask-4)"></path>
            </g>
            <path d="M20.955,16.771 C22.808,12.611 26.752,11.573 30.338,13.17 C32.067,13.939 33.337,15.315 34.01,16.935 C35.664,16.351 37.536,16.374 39.265,17.144 C42.851,18.741 44.72,22.367 42.867,26.527 C41.015,30.688 26.996,34.932 26.199,34.48 C25.27,34.164 19.103,20.932 20.955,16.771 L20.955,16.771 Z" id="Stroke-12" stroke="#2F4E55" stroke-width="2" stroke-linecap="square" stroke-linejoin="round" sketch:type="MSShapeGroup"></path>
        </g>
    </g>
</svg>