<?xml version="1.0" encoding="UTF-8" standalone="no"?>
<svg width="60px" height="61px" viewBox="0 0 60 61" version="1.1" xmlns="http://www.w3.org/2000/svg" xmlns:xlink="http://www.w3.org/1999/xlink" xmlns:sketch="http://www.bohemiancoding.com/sketch/ns">
    <!-- Generator: Sketch 3.3.3 (12072) - http://www.bohemiancoding.com/sketch -->
    <title>colored</title>
    <desc>Created with Sketch.</desc>
    <defs>
        <path id="path-1" d="M1.00526316,5.02210526 C2.95473684,0.643157895 7.10736842,-0.449473684 10.8821053,1.23157895 C12.7021053,2.04105263 14.0389474,3.48947368 14.7473684,5.19473684 C16.4884211,4.58 18.4589474,4.60421053 20.2789474,5.41473684 C24.0536842,7.09578947 26.02,10.9126316 24.0705263,15.2915789 C22.1210526,19.6715789 7.36421053,24.1389474 6.52526316,23.6631579 C5.54736842,23.3305263 -0.945263158,9.40210526 1.00526316,5.02210526"></path>
    </defs>
    <g id="Page-1" stroke="none" stroke-width="1" fill="none" fill-rule="evenodd" sketch:type="MSPage">
        <g id="Lovestudy" sketch:type="MSLayerGroup" transform="translate(0.000000, 4.000000)">
            <g id="colored" transform="translate(0.000000, -0.000000)">
                <g id="Imported-Layers">
                    <path d="M4.21052632,1.05263158 L54.7368421,1.05263158 L54.7368421,35.7894737 L4.21052632,35.7894737 L4.21052632,1.05263158 L4.21052632,1.05263158 Z" id="Fill-342" fill="#A4D0F3" sketch:type="MSShapeGroup"></path>
                    <path d="M54.7368421,36.8421053 L4.21052632,36.8421053 C3.62842105,36.8421053 3.15789474,36.3705263 3.15789474,35.7894737 L3.15789474,1.05263158 C3.15789474,0.471578947 3.62842105,0 4.21052632,0 L54.7368421,0 C55.3189474,0 55.7894737,0.471578947 55.7894737,1.05263158 L55.7894737,35.7894737 C55.7894737,36.3705263 55.3189474,36.8421053 54.7368421,36.8421053 L54.7368421,36.8421053 L54.7368421,36.8421053 Z M5.26315789,34.7368421 L53.6842105,34.7368421 L53.6842105,2.10526316 L5.26315789,2.10526316 L5.26315789,34.7368421 L5.26315789,34.7368421 Z" id="Fill-344" fill="#333333" sketch:type="MSShapeGroup"></path>
                    <path d="M28.4210526,34.7368421 L30.5263158,34.7368421 L30.5263158,44.2852632 L28.4210526,44.2852632 L28.4210526,34.7368421 L28.4210526,34.7368421 Z" id="Fill-345" fill="#333333" sketch:type="MSShapeGroup"></path>
                    <path d="M13.1842105,52.9610526 L11.2494737,52.1315789 L18.3947368,35.46 L20.3294737,36.2894737 L13.1842105,52.9610526" id="Fill-346" fill="#333333" sketch:type="MSShapeGroup"></path>
                    <path d="M45.7631579,52.9610526 L38.6178947,36.2894737 L40.5526316,35.46 L47.6978947,52.1315789 L45.7631579,52.9610526" id="Fill-347" fill="#333333" sketch:type="MSShapeGroup"></path>
                    <path d="M0,34.7368421 L58.9568421,34.7368421 L58.9568421,36.8421053 L0,36.8421053 L0,34.7368421 L0,34.7368421 Z" id="Fill-348" fill="#333333" sketch:type="MSShapeGroup"></path>
                    <g id="Group-351" transform="translate(18.947368, 6.315789)">
                        <g id="mask-2" fill="#FFFFFF" sketch:type="MSShapeGroup">
                            <path d="M1.00526316,5.02210526 C2.95473684,0.643157895 7.10736842,-0.449473684 10.8821053,1.23157895 C12.7021053,2.04105263 14.0389474,3.48947368 14.7473684,5.19473684 C16.4884211,4.58 18.4589474,4.60421053 20.2789474,5.41473684 C24.0536842,7.09578947 26.02,10.9126316 24.0705263,15.2915789 C22.1210526,19.6715789 7.36421053,24.1389474 6.52526316,23.6631579 C5.54736842,23.3305263 -0.945263158,9.40210526 1.00526316,5.02210526" id="path-1"></path>
                        </g>
                        <g id="Fill-349-Clipped">
                            <mask id="mask-2" sketch:name="path-1" fill="white">
                                <use xlink:href="#path-1"></use>
                            </mask>
                            <g id="path-1"></g>
                            <path d="M1.38105263,-8.76 L34.0621053,5.79052632 L20.7242105,35.7473684 L-11.9568421,21.1957895 L1.38105263,-8.76" id="Fill-349" fill="#B82628" sketch:type="MSShapeGroup" mask="url(#mask-2)"></path>
                        </g>
                    </g>
                    <path d="M25.6957895,31.0663158 C25.5357895,31.0663158 25.3073684,31.0526316 25.0757895,30.9547368 C24.72,30.8221053 23.9273684,30.3389474 21.8915789,25.6810526 C20.7905263,23.1610526 17.3263158,14.6494737 18.9915789,10.9105263 C20.4536842,7.62736842 23.1747368,5.74421053 26.4578947,5.74421053 C27.7252632,5.74421053 29.0042105,6.02736842 30.2568421,6.58526316 C31.9684211,7.34736842 33.3610526,8.63052632 34.2547368,10.2515789 C36.0515789,9.83368421 37.9526316,10.0115789 39.6547368,10.7684211 C44.2442105,12.8126316 46.0231579,17.4463158 43.9789474,22.0357895 C41.8305263,26.8631579 27.7736842,31.0663158 25.6957895,31.0663158 L25.6957895,31.0663158 L25.6957895,31.0663158 Z M25.6863158,28.9610526 L25.6957895,30.0136842 L25.6957895,28.9610526 L25.6863158,28.9610526 L25.6863158,28.9610526 Z M26.4578947,7.84947368 C24.0084211,7.84947368 22.0389474,9.24 20.9136842,11.7663158 C19.3852632,15.2010526 24.3557895,26.9315789 25.9136842,28.9473684 C28.3715789,28.68 40.5263158,24.6168421 42.0568421,21.18 C43.6452632,17.6126316 42.3663158,14.2810526 38.7978947,12.6926316 C37.2957895,12.0221053 35.5915789,11.9557895 34.0452632,12.5021053 C33.5136842,12.6894737 32.9357895,12.4305263 32.7221053,11.9136842 C32.0884211,10.3894737 30.9094737,9.18 29.4021053,8.50842105 C28.4189474,8.07052632 27.4284211,7.84947368 26.4578947,7.84947368 L26.4578947,7.84947368 L26.4578947,7.84947368 Z" id="Fill-352" fill="#333333" sketch:type="MSShapeGroup"></path>
                </g>
            </g>
        </g>
    </g>
</svg>