<?xml version="1.0" encoding="UTF-8" standalone="no"?>
<svg width="401px" height="218px" viewBox="0 0 401 218" version="1.1" xmlns="http://www.w3.org/2000/svg" xmlns:xlink="http://www.w3.org/1999/xlink" xmlns:sketch="http://www.bohemiancoding.com/sketch/ns">
    <!-- Generator: Sketch 3.3.3 (12072) - http://www.bohemiancoding.com/sketch -->
    <title>microstoft_partner_network</title>
    <desc>Created with Sketch.</desc>
    <defs>
        <path d="M32.4320613,117.830635 L0.0423395057,118.17934 L0.0423395057,0.546833054 L32.4320613,0.546833054 L32.4320613,117.830635 M0.0423395057,130.267785 L0.0423395057,170.257924 L32.4320613,170.257924 L32.4320613,129.916438 L0.0423395057,130.267785" id="path-1"></path>
        <linearGradient x1="3.87685421%" y1="2.0661201%" x2="104.005301%" y2="100.478959%" id="linearGradient-3">
            <stop stop-color="#0E9C91" offset="0%"></stop>
            <stop stop-color="#0E9C91" offset="10.11%"></stop>
            <stop stop-color="#9CD0D4" offset="90.72%"></stop>
            <stop stop-color="#9CD0D4" offset="100%"></stop>
        </linearGradient>
        <linearGradient x1="-49.1867979%" y1="-406.69624%" x2="120.954681%" y2="373.734428%" id="linearGradient-4">
            <stop stop-color="#00958F" offset="0%"></stop>
            <stop stop-color="#00958F" offset="10.11%"></stop>
            <stop stop-color="#54B7CE" offset="90.72%"></stop>
            <stop stop-color="#54B7CE" offset="100%"></stop>
        </linearGradient>
        <linearGradient x1="-4.42738138%" y1="12.002983%" x2="106.254951%" y2="89.6688836%" id="linearGradient-5">
            <stop stop-color="#0E9C91" offset="0%"></stop>
            <stop stop-color="#0E9C91" offset="0.28%"></stop>
            <stop stop-color="#80C56A" offset="96.23%"></stop>
            <stop stop-color="#80C56A" offset="100%"></stop>
        </linearGradient>
        <linearGradient x1="-120.681145%" y1="49.5775789%" x2="101.662529%" y2="49.5775789%" id="linearGradient-6">
            <stop stop-color="#80C56A" offset="0%"></stop>
            <stop stop-color="#80C56A" offset="15.44%"></stop>
            <stop stop-color="#E7E745" offset="92.56%"></stop>
            <stop stop-color="#E7E745" offset="100%"></stop>
        </linearGradient>
        <path d="M17.899026,13.7527192 L8.36205237,13.8557457 L17.899026,13.7527192 M16.8908165,1.68012474 L2.38424341,1.83598537 L16.8908165,1.68012474" id="path-7"></path>
        <linearGradient x1="-13.6907544%" y1="49.4285634%" x2="214.06417%" y2="49.4285634%" id="linearGradient-9">
            <stop stop-color="#80C56A" offset="0%"></stop>
            <stop stop-color="#80C56A" offset="15.44%"></stop>
            <stop stop-color="#E7E745" offset="92.56%"></stop>
            <stop stop-color="#E7E745" offset="100%"></stop>
        </linearGradient>
        <linearGradient x1="4.100064%" y1="49.6868196%" x2="542.847123%" y2="49.6868196%" id="linearGradient-10">
            <stop stop-color="#67B346" offset="0%"></stop>
            <stop stop-color="#67B346" offset="15.44%"></stop>
            <stop stop-color="#B6C935" offset="92.56%"></stop>
            <stop stop-color="#B6C935" offset="100%"></stop>
        </linearGradient>
        <path id="path-11" d="M18.4097463,2.06053035 L2.31544172,2.23488291 L13.0564451,14.1991675 L29.1507497,14.0300983 L18.4097463,2.06053035"></path>
        <linearGradient x1="-0.536020405%" y1="49.9545106%" x2="99.4623394%" y2="49.9545106%" id="linearGradient-13">
            <stop stop-color="#4F93BA" offset="0%"></stop>
            <stop stop-color="#4F93BA" offset="17%"></stop>
            <stop stop-color="#8AC3E3" offset="80.79%"></stop>
            <stop stop-color="#8AC3E3" offset="100%"></stop>
        </linearGradient>
        <linearGradient x1="-205.428365%" y1="49.6112671%" x2="384.57774%" y2="49.6112671%" id="linearGradient-14">
            <stop stop-color="#498C56" offset="0%"></stop>
            <stop stop-color="#498C56" offset="17%"></stop>
            <stop stop-color="#75B25C" offset="80.79%"></stop>
            <stop stop-color="#75B25C" offset="100%"></stop>
        </linearGradient>
    </defs>
    <g id="Managed-IT" stroke="none" stroke-width="1" fill="none" fill-rule="evenodd" sketch:type="MSPage">
        <g id="Page" sketch:type="MSArtboardGroup" transform="translate(-376.000000, -2125.000000)">
            <g id="partners" sketch:type="MSLayerGroup" transform="translate(-80.000000, 1778.000000)">
                <g id="microstoft_partner_network" transform="translate(456.500000, 343.712089)">
                    <g id="Group">
                        <path d="M0.391591837,184.668051 L8.87528571,184.668051 C15.5060816,184.668051 21.0217959,187.218591 21.0217959,195.327879 C21.0217959,203.23217 15.4129592,206.040148 9.5725102,206.040148 L5.02861224,206.040148 L5.02861224,220.268348 L0.393979592,220.268348 L0.393979592,184.668051 L0.391591837,184.668051 Z M5.02622449,201.554057 L9.6154898,201.554057 C12.4903469,201.554057 16.1077959,199.971292 16.1077959,195.277821 C16.1077959,190.789347 11.8408776,189.161292 8.96840816,189.161292 L5.02622449,189.161292 L5.02622449,201.554057 L5.02622449,201.554057 Z M26.198449,196.093041 C28.3784694,194.665215 30.9739592,193.647383 33.9873061,193.647383 C40.7542041,193.647383 43.4905714,197.318254 43.4905714,204.407325 L43.4905714,215.172035 C43.4905714,218.127801 43.5836939,219.50557 43.6768163,220.270732 L39.5985306,220.270732 L39.5985306,216.904972 L39.5054082,216.904972 C38.4858367,218.487737 36.1673265,220.885722 32.1797755,220.885722 C27.0795306,220.885722 23.5122245,218.43768 23.5122245,212.776434 C23.5122245,206.249912 30.0021429,204.207096 34.4982857,204.207096 C36.2150816,204.207096 37.4185102,204.207096 39.1353061,204.30721 C39.1353061,199.82112 37.6501224,197.525634 33.2948571,197.525634 C30.8378571,197.525634 28.1946122,198.54585 26.432449,200.176289 L26.198449,196.093041 L26.198449,196.093041 Z M39.1329184,207.875583 C38.2040816,207.875583 37.2776327,207.773085 36.3511837,207.773085 C33.9873061,207.773085 28.1444694,208.183078 28.1444694,212.77405 C28.1444694,215.527204 30.556102,217.005087 32.5498776,217.005087 C36.8621633,217.005087 39.1329184,214.049321 39.1329184,210.171069 L39.1329184,207.875583 L39.1329184,207.875583 Z M50.3959592,194.257605 L54.4766327,194.257605 L54.4766327,198.286029 L54.5697551,198.286029 C55.7278163,195.582933 58.2325714,193.647383 60.7349388,193.647383 C62.0338776,193.647383 62.6833469,193.799938 63.6097959,194.002551 L63.6097959,198.286029 C62.8218367,197.93086 61.9407551,197.828362 61.200551,197.828362 C57.3061224,197.828362 54.756,201.909226 54.756,208.438132 L54.756,220.268348 L50.3983469,220.268348 L50.3983469,194.257605 L50.3959592,194.257605 Z M82.2533878,198.135857 L75.9950816,198.135857 L75.9950816,212.366441 C75.9950816,215.377032 77.6641224,217.005087 79.657898,217.005087 C81.0022041,217.005087 81.9764082,216.549803 82.6258776,216.087369 L82.6258776,220.168233 C81.6516735,220.473345 80.3097551,220.883338 78.9176939,220.883338 C74.421551,220.883338 71.6398163,218.537795 71.6398163,213.334216 L71.6398163,198.135857 L66.3079592,198.135857 L66.3079592,194.257605 L71.6398163,194.257605 L71.6398163,188.241191 L75.9974694,186.710867 L75.9974694,194.257605 L82.2557755,194.257605 L82.2557755,198.135857 L82.2533878,198.135857 Z M87.1315714,194.257605 L91.3507347,194.257605 L91.3507347,198.388527 L91.4438571,198.388527 C92.7404082,195.430377 95.8922449,193.647383 99.1849592,193.647383 C105.302388,193.647383 108.036367,197.828362 108.036367,204.817319 L108.036367,220.268348 L103.681102,220.268348 L103.681102,206.80531 C103.681102,200.736454 102.472898,197.778304 98.6715918,197.52325 C93.7146122,197.52325 91.484449,201.909226 91.484449,208.233135 L91.484449,220.268348 L87.1291837,220.268348 L87.1291837,194.257605 L87.1315714,194.257605 Z M133.308367,219.198075 C131.639327,219.863122 129.736286,220.883338 125.841857,220.883338 C117.451286,220.883338 113.604612,215.27215 113.604612,206.80531 C113.604612,199.106015 118.007633,193.647383 124.686184,193.647383 C132.568163,193.647383 135.118286,199.968908 135.118286,208.335634 L118.241633,208.335634 C118.241633,213.484388 121.902061,217.005087 126.03049,217.005087 C128.902959,217.005087 132.243429,215.374648 133.310755,214.404489 L133.310755,219.198075 L133.308367,219.198075 Z M130.478878,204.764878 C130.478878,200.786512 128.346612,197.52325 124.593061,197.52325 C120.326143,197.52325 118.56398,201.399118 118.241633,204.764878 L130.478878,204.764878 L130.478878,204.764878 Z M140.760551,194.257605 L144.836449,194.257605 L144.836449,198.286029 L144.929571,198.286029 C146.09002,195.582933 148.594776,193.647383 151.094755,193.647383 C152.396082,193.647383 153.043163,193.799938 153.972,194.002551 L153.972,198.286029 C153.184041,197.93086 152.302959,197.828362 151.560367,197.828362 C147.665939,197.828362 145.115816,201.909226 145.115816,208.438132 L145.115816,220.268348 L140.760551,220.268348 L140.760551,194.257605 L140.760551,194.257605 Z M172.044918,184.668051 L178.35098,184.668051 L192.627367,213.331832 L192.72049,213.331832 L192.72049,184.668051 L197.359898,184.668051 L197.359898,220.268348 L191.423939,220.268348 L176.775061,190.994344 L176.681939,190.994344 L176.681939,220.268348 L172.047306,220.268348 L172.047306,184.668051 L172.044918,184.668051 Z M223.31002,219.198075 C221.64098,219.863122 219.742714,220.883338 215.84351,220.883338 C207.452939,220.883338 203.606265,215.27215 203.606265,206.80531 C203.606265,199.106015 208.009286,193.647383 214.687837,193.647383 C222.569816,193.647383 225.115163,199.968908 225.115163,208.335634 L208.243286,208.335634 C208.243286,213.484388 211.903714,217.005087 216.032143,217.005087 C218.904612,217.005087 222.245082,215.374648 223.312408,214.404489 L223.312408,219.198075 L223.31002,219.198075 Z M220.485306,204.764878 C220.485306,200.786512 218.348265,197.52325 214.594714,197.52325 C210.332571,197.52325 208.565633,201.399118 208.243286,204.764878 L220.485306,204.764878 L220.485306,204.764878 Z M243.448347,198.135857 L237.185265,198.135857 L237.185265,212.366441 C237.185265,215.377032 238.854306,217.005087 240.850469,217.005087 C242.192388,217.005087 243.16898,216.549803 243.816061,216.087369 L243.816061,220.168233 C242.841857,220.473345 241.497551,220.883338 240.107878,220.883338 C235.606959,220.883338 232.827612,218.537795 232.827612,213.334216 L232.827612,198.135857 L227.498143,198.135857 L227.498143,194.257605 L232.827612,194.257605 L232.827612,188.241191 L237.182878,186.710867 L237.182878,194.257605 L243.445959,194.257605 L243.445959,198.135857 L243.448347,198.135857 Z M276.480551,220.268348 L271.430449,220.268348 L265.308245,198.440968 L265.215122,198.440968 L259.236184,220.268348 L254.186082,220.268348 L246.578694,194.257605 L251.354204,194.257605 L256.776796,215.779874 L256.869918,215.779874 L262.894224,194.257605 L268.042224,194.257605 L273.973408,215.779874 L274.066531,215.779874 L279.816245,194.257605 L284.083163,194.257605 L276.480551,220.268348 L276.480551,220.268348 Z M298.156592,193.647383 C305.343735,193.647383 310.164612,199.358686 310.164612,207.26536 C310.164612,214.709601 305.248224,220.883338 298.156592,220.883338 C291.017204,220.883338 286.100816,214.709601 286.100816,207.26536 C286.100816,199.361069 290.924082,193.647383 298.156592,193.647383 L298.156592,193.647383 Z M298.156592,217.005087 C303.259224,217.005087 305.52998,211.904006 305.52998,207.26536 C305.52998,202.316836 302.793612,197.52325 298.156592,197.52325 C293.474204,197.52325 290.742612,202.316836 290.742612,207.26536 C290.742612,211.904006 293.013367,217.005087 298.156592,217.005087 L298.156592,217.005087 Z M315.751959,194.257605 L319.832633,194.257605 L319.832633,198.286029 L319.925755,198.286029 C321.086204,195.582933 323.586184,193.647383 326.090939,193.647383 C327.392265,193.647383 328.039347,193.799938 328.968184,194.002551 L328.968184,198.286029 C328.175449,197.93086 327.299143,197.828362 326.556551,197.828362 C322.662122,197.828362 320.112,201.909226 320.112,208.438132 L320.112,220.268348 L315.751959,220.268348 L315.751959,194.257605 L315.751959,194.257605 Z M333.335388,182.017396 L337.690653,182.017396 L337.690653,204.814935 L347.193918,194.255222 L353.129878,194.255222 L342.141429,205.78271 L354.519551,220.265964 L348.261245,220.265964 L337.688265,206.905424 L337.688265,220.265964 L333.333,220.265964 L333.333,182.017396 L333.335388,182.017396 Z" id="Shape" fill="#000000" sketch:type="MSShapeGroup"></path>
                        <path d="M47.1369388,134.914833 L39.1379592,170.72251 L28.8109184,170.72251 L33.085,151.467123 L23.4790612,170.72251 L16.0579184,170.72251 L15.6830408,151.467123 L10.8932041,170.72251 L0.465877551,170.72251 L8.43142857,134.914833 L22.6576735,134.914833 L23.3047551,154.918695 L32.8772653,134.914833 L47.1369388,134.914833 L47.1369388,134.914833 Z M59.2762857,134.914833 L49.6321429,134.914833 L48.3666327,140.754855 L57.9749592,140.754855 L59.2762857,134.914833 L59.2762857,134.914833 Z M47.5452449,144.196892 L41.6331633,170.72251 L51.3083469,170.755881 L57.2252041,144.196892 L47.5452449,144.196892 L47.5452449,144.196892 Z M72.8482857,160.927959 C72.5760816,161.364173 71.1720816,164.849116 68.1635102,164.746618 C61.6306122,164.613132 65.8378367,149.970171 71.7570816,149.798546 C74.9327959,149.729419 74.5913469,153.691099 74.4552449,154.067721 L84.438449,154.067721 C84.5411224,153.657727 85.1237347,144.068173 73.5646122,143.488938 C53.228102,142.459187 48.5719796,171.13012 66.4873061,171.506741 C79.8563469,171.776098 82.9007347,161.128188 82.9007347,160.927959 L72.8482857,160.927959 L72.8482857,160.927959 Z M168.685612,171.611623 C149.230184,170.789253 155.077796,142.18268 175.044204,143.143304 C193.811959,144.063406 188.480102,172.393471 168.685612,171.611623 L168.685612,171.611623 Z M174.392347,149.390936 C167.931082,148.089445 163.110204,163.580997 169.268224,164.846733 C176.10198,166.28171 180.684082,150.651904 174.392347,149.390936 L174.392347,149.390936 Z M217.20002,137.780019 L208.382041,137.780019 L206.980429,144.196892 L201.338163,144.196892 L201.510082,143.310162 C201.954204,141.293567 202.465184,140.278118 205.134694,140.278118 L206.197245,135.258083 C206.197245,135.258083 198.635224,134.335598 195.729327,136.69306 C193.611388,138.466519 192.859245,140.795377 192.002041,144.199276 L187.250408,144.199276 L185.882224,150.308654 L190.774735,150.308654 L186.328735,170.72251 L195.834388,170.72251 L200.311429,150.308654 L205.612245,150.342025 L202.637102,163.724018 C201.849143,167.242334 203.114653,168.875156 204.27749,169.661771 C206.877755,171.47337 214.602143,170.584256 214.602143,170.584256 L216.075388,164.50825 C216.075388,164.50825 212.281245,164.949231 211.90398,163.89326 C211.662816,163.180539 211.90398,162.594153 212.006653,161.945791 L214.499469,150.308654 L219.048143,150.308654 L220.38051,144.199276 L215.834224,144.199276 L217.20002,137.780019 L217.20002,137.780019 Z M156.648939,151.915256 L147.420265,151.915256 C147.420265,151.915256 148.408796,148.497055 144.237388,148.497055 C140.445633,148.497055 139.519184,151.915256 143.895939,152.83059 C149.230184,153.986676 155.347612,154.26795 155.689061,161.123421 C155.794122,163.037518 154.66949,171.981094 140.715449,171.704587 C127.92902,171.435231 127.040776,165.423584 127.382224,162.620373 C125.056551,167.506922 119.242367,171.838073 111.484551,171.571101 C99.7009796,171.194479 97.2415918,160.496512 101.546714,152.337167 C99.4550408,152.346702 94.9183061,153.207211 93.2588163,161.29743 L91.1122245,170.751114 L81.9790612,170.751114 L87.9627755,144.192125 L96.6112245,144.192125 L95.8590816,147.472072 C97.0553469,146.006107 98.4903878,145.081238 100.302694,144.468632 C101.773551,143.989512 103.177551,143.746376 104.815551,143.746376 L103.304102,149.634072 C106.432061,145.674775 111.408143,142.84296 117.878959,143.169525 C126.935714,143.617657 130.393184,150.477895 129.294816,157.233251 C129.125286,158.425092 129.025,158.596717 128.678776,158.694448 L119.791551,161.631145 L137.840592,161.600157 C137.840592,161.600157 136.305265,165.592825 141.978571,165.623813 C145.911204,165.623813 147.448918,161.149641 142.145714,160.234307 C139.722143,159.786175 130.321551,158.215328 131.381714,150.978468 C132.269959,145.045483 138.454245,142.962144 145.228306,143.067026 C159.074898,143.245803 156.479408,151.364625 156.648939,151.915256 L156.648939,151.915256 Z M117.162633,149.352797 C110.763449,148.089445 105.978388,163.516638 112.10298,164.813361 C118.869878,166.210199 123.416163,150.611381 117.162633,149.352797 L117.162633,149.352797 Z M226.328408,147.989331 L227.013694,149.352797 L226.192306,149.352797 L225.64551,147.989331 L225.163184,147.989331 L224.962612,149.452912 L224.24151,149.452912 L224.82651,145.805878 L226.500327,145.805878 C226.500327,145.805878 227.424388,146.039478 227.355143,146.933359 C227.252469,147.989331 226.397653,147.989331 226.328408,147.989331 L226.328408,147.989331 Z M226.74149,146.89522 C226.74149,146.282614 226.158878,146.282614 226.158878,146.282614 L225.473592,146.282614 L225.304061,147.476839 L225.986959,147.476839 C225.989347,147.476839 226.672245,147.57457 226.74149,146.89522 L226.74149,146.89522 Z M225.714755,151.023758 C221.099224,151.023758 221.099224,144.161137 225.714755,144.161137 C230.332673,144.161137 230.332673,151.023758 225.714755,151.023758 L225.714755,151.023758 Z M225.714755,144.780894 C221.853755,144.780894 221.853755,150.373013 225.714755,150.373013 C229.611571,150.373013 229.611571,144.780894 225.714755,144.780894 L225.714755,144.780894 Z" id="Shape" fill="#000000" sketch:type="MSShapeGroup"></path>
                        <g transform="translate(227.226233, 0.000000)">
                            <g id="Clipped" transform="translate(89.971450, 0.000000)">
                                <mask id="mask-2" sketch:name="SVGID_1_" fill="white">
                                    <use xlink:href="#path-1"></use>
                                </mask>
                                <g id="SVGID_1_"></g>
                                <path d="M25.8376833,129.987764 L16.3007097,130.090791 L11.3231715,130.143625 L12.4901542,144.136739 L28.502426,161.976177 L25.8376833,129.987764 M9.15327188,104.080558 L10.3202545,118.068389 L24.8268276,117.912528 L24.046193,108.600516 L9.15327188,104.080558 M17.6767436,56.7200603 L6.03337956,66.6660818 L7.86191696,88.6239385 L22.7627767,93.1438968 L19.9313223,59.2323223 L17.6767436,56.7200603 M15.31367,3.89123231 L1.05848764,7.05335388 L4.55149686,48.9692962 L11.3231715,43.1892444 L13.9217587,34.4372738 L17.2401175,38.1330199 L18.1080773,37.3933424 L15.31367,3.89123231" id="Shape" fill="url(#linearGradient-3)" sketch:type="MSShapeGroup" mask="url(#mask-2)"></path>
                            </g>
                            <path d="M135.597559,100.086299 L134.70843,114.882492 L169.238943,125.362138 L172.996574,111.437708 L169.238943,125.362138 L150.662485,104.661733 L135.597559,100.086299 M112.734226,93.1438968 L114.020289,108.603158 L122.800444,111.265997 L123.689573,96.4698041 L112.734226,93.1438968 M77.5104038,82.4529143 L64.4910058,93.5692114 L99.1247214,104.080558 L97.8333665,88.6212968 L77.5104038,82.4529143 M6.18686027,60.8094206 L1.74121217,74.5304393 L32.6384664,83.9058524 L46.0971368,81.3354729 L50.6618647,86.4181144 L61.1329537,77.4812244 L6.18686027,60.8094206" id="Shape" fill="#92CFF1" sketch:type="MSShapeGroup"></path>
                            <path d="M97.8333665,88.6239385 L99.1247214,104.080558 L114.020289,108.603158 L112.734226,93.1438968 L97.8333665,88.6239385" id="Shape" fill="url(#linearGradient-4)" sketch:type="MSShapeGroup"></path>
                            <path d="M12.487508,119.014119 L20.6537401,130.999538 L139.863265,29.2172636 L128.299287,20.1350799 L12.487508,119.014119" id="Shape" fill="#CBD039" sketch:type="MSShapeGroup"></path>
                            <path d="M90.013789,130.265143 L73.9194845,130.434213 L104.134014,164.097467 L118.476522,161.973535 L102.46425,144.134098 L90.013789,130.265143 M46.0971368,81.3354729 L32.6384664,83.9058524 L32.2309487,83.9824619 L41.4662534,94.2745468 L51.1011371,105.005155 L63.1784811,118.469928 L79.2727857,118.298217 L60.2941023,97.1540058 L50.6592185,86.4233978 L46.0971368,81.3354729" id="Shape" fill="url(#linearGradient-5)" sketch:type="MSShapeGroup"></path>
                            <path d="M104.134014,164.097467 L118.473876,161.973535 L102.46425,144.136739 L104.134014,164.097467 Z" id="Shape" fill="#00B47C" sketch:type="MSShapeGroup"></path>
                            <path d="M122.403511,117.830635 L114.800923,117.91517 L100.291704,118.068389 L79.2727857,118.295576 L90.013789,130.265143 L106.272159,130.090791 L115.809133,129.987764 L133.808715,129.797562 L122.403511,117.830635" id="Shape" fill="url(#linearGradient-6)" sketch:type="MSShapeGroup"></path>
                            <g id="Clipped" transform="translate(97.910107, 116.235045)">
                                <mask id="mask-8" sketch:name="SVGID_7_" fill="white">
                                    <use xlink:href="#path-7"></use>
                                </mask>
                                <g id="SVGID_7_"></g>
                                <g id="Group" mask="url(#mask-8)">
                                    <g transform="translate(-656.262338, -137.368690)"></g>
                                </g>
                            </g>
                            <path d="M63.1784811,118.469928 L34.9803703,118.771083 L20.6537401,130.999538 L73.9194845,130.434213 L63.1784811,118.469928" id="Shape" fill="url(#linearGradient-9)" sketch:type="MSShapeGroup"></path>
                            <path d="M34.9803703,118.771083 L12.487508,119.014119 L20.6537401,130.999538 L34.9803703,118.771083" id="Shape" fill="url(#linearGradient-10)" sketch:type="MSShapeGroup"></path>
                            <g id="Clipped" transform="translate(60.863039, 116.235045)">
                                <mask id="mask-12" sketch:name="SVGID_11_" fill="white">
                                    <use xlink:href="#path-11"></use>
                                </mask>
                                <g id="SVGID_11_"></g>
                                <g id="Group" mask="url(#mask-12)">
                                    <g transform="translate(-619.215270, -137.368690)"></g>
                                </g>
                            </g>
                            <path d="M79.2780781,118.292934 L63.189066,118.47257 L73.9194845,130.426288 L90.013789,130.267785 L79.2780781,118.292934 Z" id="Shape" fill="#80C56A" sketch:type="MSShapeGroup"></path>
                            <path d="M137.309663,71.6668305 L137.309663,71.6773973 L137.12972,74.6493161 L136.288223,88.629222 L150.667777,104.653808 L169.244235,125.354213 L173.001866,111.429783 L137.309663,71.6668305 M103.895854,34.4372738 L101.297267,43.1892444 L99.8603703,48.0341324 L107.648193,56.7174186 L109.902772,59.2323223 L124.922711,75.9701689 L125.952091,59.0183442 L125.957383,59.0236276 L125.957383,59.0157025 L116.851743,48.8662697 L107.216859,38.1356616 L103.895854,34.4372738" id="Shape" fill="url(#linearGradient-13)" sketch:type="MSShapeGroup"></path>
                            <path d="M150.67307,104.661733 L169.238943,125.359496 L172.996574,111.437708 L150.67307,104.661733 Z" id="Shape" fill="#52C2F0" sketch:type="MSShapeGroup"></path>
                            <path d="M128.299287,20.1350799 L139.876496,29.0059272 L133.808715,129.797562 L122.403511,117.830635 L128.299287,20.1350799" id="Shape" fill="#C2D955" sketch:type="MSShapeGroup"></path>
                            <path d="M128.299287,20.1350799 L128.299287,20.1350799 L127.089965,40.1354328 L139.863265,29.2172636 L128.299287,20.1350799" id="Shape" fill="#92C842" sketch:type="MSShapeGroup"></path>
                            <path id="Shape" fill="#C2D955" sketch:type="MSShapeGroup" d="M124.920065,75.9701689 L124.920065,75.978094 L124.925358,75.9860191 L124.93065,75.978094 L124.920065,75.9701689"></path>
                            <path d="M137.309663,71.680039 L137.12972,74.6519578 L137.309663,71.680039 M125.949444,59.0183442 L124.920065,75.9701689 L124.93065,75.978094 L125.954737,59.0236276 L125.949444,59.0183442" id="Shape" fill="url(#linearGradient-14)" sketch:type="MSShapeGroup"></path>
                            <path d="M125.954737,59.0236276 L124.93065,75.978094 L124.925358,75.9860191 L136.280284,88.6371471 L137.127074,74.6519578 L137.309663,71.680039 L125.954737,59.0236276" id="Shape" fill="#92C842" sketch:type="MSShapeGroup"></path>
                            <path d="M103.895854,34.4372738 L99.8577241,48.0367741 L1.74121217,74.5277976 L6.18686027,60.8094206 L103.895854,34.4372738 Z" id="Shape" fill="#00B2D9" sketch:type="MSShapeGroup"></path>
                            <path d="M6.18686027,60.8094206 L1.74121217,74.5277976 L28.0022906,67.4374599 L6.18686027,60.8094206 Z" id="Shape" fill="#52C2F0" sketch:type="MSShapeGroup"></path>
                            <path d="M91.0299372,7.05335388 L32.2309487,83.9824619 L46.0971368,81.3354729 L105.285119,3.89123231 L91.0299372,7.05335388 Z" id="Shape" fill="#6DC177" sketch:type="MSShapeGroup"></path>
                            <path d="M91.0299372,7.05335388 L92.1942736,21.0253347 L105.285119,3.89123231 L91.0299372,7.05335388 Z" id="Shape" fill="#1EB57A" sketch:type="MSShapeGroup"></path>
                            <path d="M61.3128966,45.9313348 L49.2646611,61.6970336 L64.191983,57.6684326 L76.2402186,41.9000921 L61.3128966,45.9313348 Z" id="Shape" fill="#0A9B7F" sketch:type="MSShapeGroup"></path>
                        </g>
                    </g>
                </g>
            </g>
        </g>
    </g>
</svg>