<?xml version="1.0" encoding="UTF-8" standalone="no"?>
<svg width="60px" height="60px" viewBox="0 0 60 60" version="1.1" xmlns="http://www.w3.org/2000/svg" xmlns:xlink="http://www.w3.org/1999/xlink" xmlns:sketch="http://www.bohemiancoding.com/sketch/ns">
    <!-- Generator: Sketch 3.3.3 (12072) - http://www.bohemiancoding.com/sketch -->
    <title>colored</title>
    <desc>Created with Sketch.</desc>
    <defs>
        <path id="path-1" d="M26.6035713,6.20749998 L26.6847613,6.49166494 L26.1185633,7.24208331 L25.8226494,7.24208331 L23.8357653,0.284510416 L24.8299999,1.03458333 L2.06916666,1.03458333 L3.06340124,0.284510416 L1.07552327,7.24208331 L0.779791827,7.24208331 L0.214343986,6.49187936 L0.295595237,6.20749998 L26.6035713,6.20749998"></path>
        <path id="path-3" d="M2.06916666,0 L24.8299999,0 L26.8991666,7.24208331 L0,7.24208331 L2.06916666,0 L2.06916666,0 Z"></path>
        <path id="path-5" d="M0,1.03458333 L22.7608333,1.03458333 L21.7262499,0 L21.7262499,14.4841666 L22.7608333,13.4495833 L0,13.4495833 L1.03458333,14.4841666 L1.03458333,0 L0,1.03458333 L0,1.03458333 Z"></path>
        <path id="path-7" d="M0,0 L22.7608333,0 L22.7608333,14.4841666 L0,14.4841666 L0,0 L0,0 Z"></path>
        <path id="path-9" d="M2.06916666,0 L24.8299999,0 L26.8991666,7.24208331 L0,7.24208331 L2.06916666,0 L2.06916666,0 Z"></path>
        <path id="path-11" d="M0,1.03458333 L22.7608333,1.03458333 L21.7262499,0 L21.7262499,14.4841666 L22.7608333,13.4495833 L0,13.4495833 L1.03458333,14.4841666 L1.03458333,0 L0,1.03458333 L0,1.03458333 Z"></path>
        <path id="path-13" d="M0,0 L22.7608333,0 L22.7608333,14.4841666 L0,14.4841666 L0,0 L0,0 Z"></path>
    </defs>
    <g id="Page-1" stroke="none" stroke-width="1" fill="none" fill-rule="evenodd" sketch:type="MSPage">
        <g id="Network" sketch:type="MSLayerGroup" transform="translate(0.000000, 5.000000)">
            <g id="colored">
                <g id="Imported-Layers">
                    <path d="M28.9683332,41.3833332 C19.8412391,41.3833332 12.415,33.9570941 12.415,24.8299999 C12.415,24.2578753 12.8774587,23.7954166 13.4495833,23.7954166 C14.0217079,23.7954166 14.4841666,24.2578753 14.4841666,24.8299999 C14.4841666,32.8169832 20.9813499,39.3141665 28.9683332,39.3141665 C29.5404578,39.3141665 30.0029166,39.7766253 30.0029166,40.3487499 C30.0029166,40.9208745 29.5404578,41.3833332 28.9683332,41.3833332 L28.9683332,41.3833332 L28.9683332,41.3833332 Z M44.4870832,25.8645833 C43.9149586,25.8645833 43.4524999,25.4021245 43.4524999,24.8299999 C43.4524999,16.8430166 36.9553166,10.3458333 28.9683332,10.3458333 C28.3962087,10.3458333 27.9337499,9.88337455 27.9337499,9.31124997 C27.9337499,8.73912539 28.3962087,8.27666664 28.9683332,8.27666664 C38.0954274,8.27666664 45.5216665,15.7029058 45.5216665,24.8299999 C45.5216665,25.4021245 45.0592078,25.8645833 44.4870832,25.8645833 L44.4870832,25.8645833 L44.4870832,25.8645833 Z" id="Fill-2439" fill="#333333" sketch:type="MSShapeGroup"></path>
                    <g id="Group-2442" transform="translate(33.106667, 42.417917)">
                        <g id="mask-2" fill="#FFFFFF" sketch:type="MSShapeGroup">
                            <path d="M26.6035713,6.20749998 L26.6847613,6.49166494 L26.1185633,7.24208331 L25.8226494,7.24208331 L23.8357653,0.284510416 L24.8299999,1.03458333 L2.06916666,1.03458333 L3.06340124,0.284510416 L1.07552327,7.24208331 L0.779791827,7.24208331 L0.214343986,6.49187936 L0.295595237,6.20749998 L26.6035713,6.20749998" id="path-1"></path>
                        </g>
                        <g id="Fill-2440-Clipped">
                            <mask id="mask-2" sketch:name="path-1" fill="white">
                                <use xlink:href="#path-1"></use>
                            </mask>
                            <g id="path-1"></g>
                            <path d="M2.06916666,0 L24.8299999,0 L26.8991666,7.24208331 L0,7.24208331 L2.06916666,0" id="Fill-2440" fill="#F3F6F7" sketch:type="MSShapeGroup" mask="url(#mask-2)"></path>
                        </g>
                    </g>
                    <g id="Group-2445" transform="translate(33.106667, 42.417917)">
                        <g id="Fill-2443-Clipped">
                            <mask id="mask-4" sketch:name="path-3" fill="white">
                                <use xlink:href="#path-3"></use>
                            </mask>
                            <g id="path-3"></g>
                            <path d="M26.9188237,9.31124997 C26.9157199,9.31228455 26.9074433,9.31228455 26.8991666,9.31124997 L-4.4408921e-15,9.31124997 C-0.649718331,9.31124997 -1.26115708,9.00604789 -1.65222958,8.48772164 C-2.04330208,7.96939539 -2.16848666,7.29795081 -1.98950374,6.67306248 L0.0796629164,-0.569020832 C0.333135832,-1.45669333 1.14528375,-2.06916666 2.06916666,-2.06916666 L24.8299999,-2.06916666 C25.7538828,-2.06916666 26.5660308,-1.45669333 26.8195037,-0.569020832 L28.8110766,6.39993248 C28.9248807,6.65754373 28.9879903,6.94205415 28.9879903,7.24208331 C28.9879903,8.38426331 28.0630728,9.31124997 26.9188237,9.31124997 L26.9188237,9.31124997 L26.9188237,9.31124997 Z M2.74268041,5.17291665 L24.1564862,5.17291665 L23.2688137,2.06916666 L3.63035291,2.06916666 L2.74268041,5.17291665 L2.74268041,5.17291665 Z" id="Fill-2443" fill="#333333" sketch:type="MSShapeGroup" mask="url(#mask-4)"></path>
                        </g>
                    </g>
                    <g id="Group-2448" transform="translate(35.175833, 30.002917)">
                        <g id="mask-6" fill="#FFFFFF" sketch:type="MSShapeGroup">
                            <path d="M0,1.03458333 L22.7608333,1.03458333 L21.7262499,0 L21.7262499,14.4841666 L22.7608333,13.4495833 L0,13.4495833 L1.03458333,14.4841666 L1.03458333,0 L0,1.03458333 L0,1.03458333 Z" id="path-5"></path>
                        </g>
                        <g id="Fill-2446-Clipped">
                            <mask id="mask-6" sketch:name="path-5" fill="white">
                                <use xlink:href="#path-5"></use>
                            </mask>
                            <g id="path-5"></g>
                            <path d="M0,0 L22.7608333,0 L22.7608333,14.4841666 L0,14.4841666 L0,0 L0,0 Z" id="Fill-2446" fill="#009AE1" sketch:type="MSShapeGroup" mask="url(#mask-6)"></path>
                        </g>
                    </g>
                    <g id="Group-2451" transform="translate(35.175833, 30.002917)">
                        <g id="Fill-2449-Clipped">
                            <mask id="mask-8" sketch:name="path-7" fill="white">
                                <use xlink:href="#path-7"></use>
                            </mask>
                            <g id="path-7"></g>
                            <path d="M22.7608333,16.5533333 L4.4408921e-16,16.5533333 C-1.14218,16.5533333 -2.06916666,15.6263466 -2.06916666,14.4841666 L-2.06916666,4.4408921e-16 C-2.06916666,-1.14218 -1.14218,-2.06916666 4.4408921e-16,-2.06916666 L22.7608333,-2.06916666 C23.9030133,-2.06916666 24.8299999,-1.14218 24.8299999,4.4408921e-16 L24.8299999,14.4841666 C24.8299999,15.6263466 23.9030133,16.5533333 22.7608333,16.5533333 L22.7608333,16.5533333 L22.7608333,16.5533333 Z M2.06916666,12.415 L20.6916666,12.415 L20.6916666,2.06916666 L2.06916666,2.06916666 L2.06916666,12.415 L2.06916666,12.415 Z" id="Fill-2449" fill="#333333" sketch:type="MSShapeGroup" mask="url(#mask-8)"></path>
                        </g>
                    </g>
                    <g id="Group-2457" transform="translate(0.000000, 12.415000)">
                        <g id="Fill-2455-Clipped">
                            <mask id="mask-10" sketch:name="path-11" fill="white">
                                <use xlink:href="#path-9"></use>
                            </mask>
                            <use id="path-11" fill="#F3F6F7" sketch:type="MSShapeGroup" xlink:href="#path-9"></use>
                            <path d="M26.9188237,9.31124997 C26.9146853,9.31228455 26.9064087,9.31124997 26.8991666,9.31124997 L-1.33226763e-15,9.31124997 C-0.649718331,9.31124997 -1.26115708,9.00604789 -1.65222958,8.48772164 C-2.04330208,7.96939539 -2.16848666,7.29795081 -1.98950374,6.67306248 L0.0796629164,-0.569020832 C0.333135832,-1.45669333 1.14528375,-2.06916666 2.06916666,-2.06916666 L24.8299999,-2.06916666 C25.7538828,-2.06916666 26.5660308,-1.45669333 26.8195037,-0.569020832 L28.8110766,6.40096706 C28.9248807,6.65754373 28.9879903,6.94205415 28.9879903,7.24208331 C28.9879903,8.38426331 28.0630728,9.31124997 26.9188237,9.31124997 L26.9188237,9.31124997 L26.9188237,9.31124997 Z M2.74268041,5.17291665 L24.1564862,5.17291665 L23.2688137,2.06916666 L3.63035291,2.06916666 L2.74268041,5.17291665 L2.74268041,5.17291665 Z" id="Fill-2455" fill="#333333" sketch:type="MSShapeGroup" mask="url(#mask-10)"></path>
                        </g>
                    </g>
                    <g id="Group-2460" transform="translate(2.069167, 0.000000)">
                        <g id="mask-14" fill="#FFFFFF" sketch:type="MSShapeGroup">
                            <path d="M0,1.03458333 L22.7608333,1.03458333 L21.7262499,0 L21.7262499,14.4841666 L22.7608333,13.4495833 L0,13.4495833 L1.03458333,14.4841666 L1.03458333,0 L0,1.03458333 L0,1.03458333 Z" id="path-13"></path>
                        </g>
                        <g id="Fill-2458-Clipped">
                            <mask id="mask-12" sketch:name="path-13" fill="white">
                                <use xlink:href="#path-11"></use>
                            </mask>
                            <g id="path-13"></g>
                            <path d="M0,0 L22.7608333,0 L22.7608333,14.4841666 L0,14.4841666 L0,0 L0,0 Z" id="Fill-2458" fill="#A4D0F3" sketch:type="MSShapeGroup" mask="url(#mask-12)"></path>
                        </g>
                    </g>
                    <g id="Group-2463" transform="translate(2.069167, 0.000000)">
                        <g id="Fill-2461-Clipped">
                            <mask id="mask-14" sketch:name="path-15" fill="white">
                                <use xlink:href="#path-13"></use>
                            </mask>
                            <g id="path-15"></g>
                            <path d="M22.7608333,16.5533333 L4.4408921e-16,16.5533333 C-1.14218,16.5533333 -2.06916666,15.6263466 -2.06916666,14.4841666 L-2.06916666,4.4408921e-16 C-2.06916666,-1.14218 -1.14218,-2.06916666 4.4408921e-16,-2.06916666 L22.7608333,-2.06916666 C23.9030133,-2.06916666 24.8299999,-1.14218 24.8299999,4.4408921e-16 L24.8299999,14.4841666 C24.8299999,15.6263466 23.9030133,16.5533333 22.7608333,16.5533333 L22.7608333,16.5533333 L22.7608333,16.5533333 Z M2.06916666,12.415 L20.6916666,12.415 L20.6916666,2.06916666 L2.06916666,2.06916666 L2.06916666,12.415 L2.06916666,12.415 Z" id="Fill-2461" fill="#333333" sketch:type="MSShapeGroup" mask="url(#mask-14)"></path>
                        </g>
                    </g>
                </g>
            </g>
        </g>
    </g>
</svg>