<?xml version="1.0" encoding="UTF-8" standalone="no"?>
<svg width="58px" height="58px" viewBox="0 0 58 58" version="1.1" xmlns="http://www.w3.org/2000/svg" xmlns:xlink="http://www.w3.org/1999/xlink" xmlns:sketch="http://www.bohemiancoding.com/sketch/ns">
    <!-- Generator: Sketch 3.3.3 (12072) - http://www.bohemiancoding.com/sketch -->
    <title>Network</title>
    <desc>Created with Sketch.</desc>
    <defs>
        <path id="path-1" d="M25.7142857,6 L25.7927617,6.27466609 L25.2454902,7 L24.9594286,7 L23.038,0.275 L24,1 L2,1 L2.962,0.275 L1.04057143,7 L0.754509804,7 L0.207238259,6.27466609 L0.285714286,6 L25.7142857,6 L25.7142857,6 L25.7142857,6 Z"></path>
        <path id="path-3" d="M2,0 L24,0 L26,7 L0,7 L2,0 L2,0 Z"></path>
        <path id="path-5" d="M0,1 L22,1 L21,0 L21,14 L22,13 L0,13 L1,14 L1,0 L0,1 L0,1 Z"></path>
        <path id="path-7" d="M25.7142857,6 L25.7927617,6.27466609 L25.2454902,7 L24.9594286,7 L23.038,0.275 L24,1 L2,1 L2.962,0.275 L1.04057143,7 L0.754509804,7 L0.207238259,6.27466609 L0.285714286,6 L25.7142857,6 L25.7142857,6 Z"></path>
        <path id="path-9" d="M2,0 L24,0 L26,7 L0,7 L2,0 L2,0 Z"></path>
        <path id="path-11" d="M0,1 L22,1 L21,0 L21,14 L22,13 L0,13 L1,14 L1,0 L0,1 L0,1 Z"></path>
    </defs>
    <g id="Page-1" stroke="none" stroke-width="1" fill="none" fill-rule="evenodd" sketch:type="MSPage">
        <g id="Network" sketch:type="MSLayerGroup" transform="translate(0.000000, 5.000000)">
            <path d="M13,24 C13,32.284 19.716,39 28,39 M43,24 C43,15.716 36.284,9 28,9" id="Stroke-1" stroke="#2F4E55" stroke-width="2" stroke-linecap="round" stroke-linejoin="round" sketch:type="MSShapeGroup"></path>
            <g id="Group-4" transform="translate(32.000000, 41.000000)">
                <mask id="mask-2" sketch:name="Clip 3" fill="white">
                    <use xlink:href="#path-1"></use>
                </mask>
                <g id="Clip-3"></g>
                <path d="M2,0 L24,0 L26,7 L0,7 L2,0 L2,0 Z" id="Fill-2" fill="#D8D8D9" sketch:type="MSShapeGroup" mask="url(#mask-2)"></path>
            </g>
            <g id="Group-7" transform="translate(32.000000, 41.000000)">
                <mask id="mask-4" sketch:name="Clip 6" fill="white">
                    <use xlink:href="#path-3"></use>
                </mask>
                <g id="Clip-6"></g>
                <path d="M2,0 L24,0 L26,7 L0,7 L2,0 L2,0 Z" id="Stroke-5" stroke="#2F4E55" stroke-width="4" stroke-linecap="round" stroke-linejoin="round" sketch:type="MSShapeGroup" mask="url(#mask-4)"></path>
            </g>
            <g id="Group-10" transform="translate(34.000000, 29.000000)">
                <mask id="mask-6" sketch:name="Clip 9" fill="white">
                    <use xlink:href="#path-5"></use>
                </mask>
                <g id="Clip-9"></g>
                <path d="M0,0 L22,0 L22,14 L0,14 L0,0 Z" id="Fill-8" fill="#ACD0F1" sketch:type="MSShapeGroup" mask="url(#mask-6)"></path>
            </g>
            <path d="M34,29 L56,29 L56,43 L34,43 L34,29 Z" id="Stroke-11" stroke="#2F4E55" stroke-width="2" stroke-linecap="round" stroke-linejoin="round" sketch:type="MSShapeGroup"></path>
            <g id="Group-15" transform="translate(0.000000, 12.000000)">
                <mask id="mask-8" sketch:name="Clip 14" fill="white">
                    <use xlink:href="#path-7"></use>
                </mask>
                <g id="Clip-14"></g>
                <path d="M2,0 L24,0 L26,7 L0,7 L2,0 L2,0 Z" id="Fill-13" fill="#D8D8D9" sketch:type="MSShapeGroup" mask="url(#mask-8)"></path>
            </g>
            <g id="Group-18" transform="translate(0.000000, 12.000000)">
                <mask id="mask-10" sketch:name="Clip 17" fill="white">
                    <use xlink:href="#path-9"></use>
                </mask>
                <g id="Clip-17"></g>
                <path d="M2,0 L24,0 L26,7 L0,7 L2,0 L2,0 Z" id="Stroke-16" stroke="#2F4E55" stroke-width="4" stroke-linecap="round" stroke-linejoin="round" sketch:type="MSShapeGroup" mask="url(#mask-10)"></path>
            </g>
            <g id="Group-21" transform="translate(2.000000, 0.000000)">
                <mask id="mask-12" sketch:name="Clip 20" fill="white">
                    <use xlink:href="#path-11"></use>
                </mask>
                <g id="Clip-20"></g>
                <path d="M0,0 L22,0 L22,14 L0,14 L0,0 Z" id="Fill-19" fill="#009CDE" sketch:type="MSShapeGroup" mask="url(#mask-12)"></path>
            </g>
            <path d="M2,0 L24,0 L24,14 L2,14 L2,0 Z" id="Stroke-22" stroke="#2F4E55" stroke-width="2" stroke-linecap="round" stroke-linejoin="round" sketch:type="MSShapeGroup"></path>
        </g>
    </g>
</svg>