<?xml version="1.0" encoding="UTF-8" standalone="no"?>
<svg width="175px" height="26px" viewBox="0 0 175 26" version="1.1" xmlns="http://www.w3.org/2000/svg" xmlns:xlink="http://www.w3.org/1999/xlink" xmlns:sketch="http://www.bohemiancoding.com/sketch/ns">
    <!-- Generator: Sketch 3.3.3 (12072) - http://www.bohemiancoding.com/sketch -->
    <title>Homepage-v2</title>
    <desc>Created with Sketch.</desc>
    <defs></defs>
    <g id="Page-1" stroke="none" stroke-width="1" fill="none" fill-rule="evenodd" sketch:type="MSPage">
        <g id="pfit-logo" sketch:type="MSLayerGroup" fill="#FFFFFF">
            <g id="Homepage-v2" sketch:type="MSShapeGroup">
                <g id="Page">
                    <g id="Nav-Copy">
                        <g id="pfit-logo">
                            <g id="Group">
                                <path d="M56.9961027,22.9173333 L56.7665399,21.104 C54.98327,22.516 53.6318441,23.2046667 51.3308935,23.2046667 C49.0026616,23.2046667 47.2207224,21.766 47.2207224,19.2886667 C47.2207224,15.1993333 50.5563688,14.45 56.7951521,13.0693333 L56.7951521,12.0306667 C56.7951521,10.0426667 55.9327947,9.03533333 53.3736692,9.03533333 C51.5923954,9.03533333 50.1258555,10.014 49.0319392,11.742 L47.8827947,11.0526667 C49.1769962,8.63266667 51.0181559,7.65266667 53.4322243,7.65266667 C56.8244297,7.65266667 58.4326996,9.03533333 58.4326996,12.3473333 L58.4326996,20.182 C58.4326996,20.9306667 58.4925856,21.91 58.6642586,22.9173333 L56.9961027,22.9173333 L56.9961027,22.9173333 Z M56.7093156,14.4506667 C49.865019,15.9493333 48.9447719,17.358 48.9447719,19.2606667 C48.9447719,20.9033333 50.0659696,21.8246667 51.618346,21.8246667 C53.229943,21.8246667 55.2141635,20.8733333 56.7093156,19.3493333 L56.7093156,14.4506667 L56.7093156,14.4506667 Z" id="Shape"></path>
                                <path d="M67.9419202,22.9173333 L67.9419202,2.122 L69.6653042,2.122 L69.6653042,9.962 C70.9362167,8.568 72.0281369,7.52333333 74.4901141,7.61533333 C77.5942015,7.73333333 79.2091255,9.88266667 79.2104563,12.694 L79.2104563,22.9173333 L77.4870722,22.9173333 L77.4870722,12.864 C77.4165399,10.9253333 76.1369772,9.09733333 73.7595057,9.01933333 C71.356749,8.93933333 69.7351711,10.9346667 69.6646388,12.5606667 L69.6646388,22.9173333 L67.9419202,22.9173333 L67.9419202,22.9173333 Z" id="Shape"></path>
                                <path d="M33.963308,23.0006667 L33.963308,2.20133333 L40.2293726,2.20133333 C45.1772814,2.20133333 47.2440114,4.508 47.2440114,7.99333333 C47.2440114,11.478 45.1772814,13.78 40.2293726,13.78 L35.8596958,13.78 L35.8596958,23.0006667 L33.963308,23.0006667 L33.963308,23.0006667 Z M35.8596958,12.2253333 L40.2293726,12.2253333 C43.8231939,12.2253333 45.3469582,10.7286667 45.3469582,7.99333333 C45.3469582,5.256 43.8231939,3.75733333 40.2293726,3.75733333 L35.8596958,3.75733333 L35.8596958,12.2253333 L35.8596958,12.2253333 Z" id="Shape"></path>
                                <path d="M87.7348859,22.9173333 L87.7348859,2.12066667 L100.962357,2.12066667 L100.962357,5.46266667 L91.7046578,5.46266667 L91.7046578,10.4166667 L98.6327947,10.4166667 L98.6327947,13.76 L91.7046578,13.76 L91.7046578,22.918 L87.7348859,22.918 L87.7348859,22.9173333 L87.7348859,22.9173333 Z" id="Shape"></path>
                                <g id="Shape">
                                    <path d="M5.67452471,2.28666667 C4.47946768,3.1 3.42880228,4.106 2.56444867,5.264 L10.2238593,12.938 L2.50922053,20.6626667 C3.36425856,21.826 4.40960076,22.8393333 5.5980038,23.66 L16.2996198,12.9373333 L5.67452471,2.28666667 L5.67452471,2.28666667 Z"></path>
                                    <path d="M12.9147338,0.062 C11.6877376,0.062 10.5019962,0.238666667 9.37813688,0.559333333 L21.729943,12.9373333 L9.2736692,25.414 C10.4307985,25.7506667 11.6498099,25.938 12.9147338,25.938 C20.0444867,25.938 25.8261407,20.146 25.8261407,13.002 C25.8254753,5.85666667 20.0444867,0.062 12.9147338,0.062"></path>
                                    <path d="M0.690684411,8.82333333 C0.24486692,10.1353333 0,11.54 0,13.002 C0,14.428 0.233555133,15.7973333 0.658745247,17.0786667 L4.79353612,12.9373333 L0.690684411,8.82333333 L0.690684411,8.82333333 Z"></path>
                                </g>
                                <path d="M99.6455323,15.43 C99.6455323,14.2373333 99.7945817,13.1653333 100.09135,12.2026667 C100.386787,11.2433333 100.813308,10.4273333 101.370247,9.75533333 C101.926521,9.082 102.605894,8.564 103.411692,8.19866667 C104.21749,7.83466667 105.126426,7.65066667 106.14249,7.65066667 C107.15789,7.65066667 108.069487,7.83466667 108.873289,8.19866667 C109.679087,8.564 110.361122,9.082 110.917395,9.75533333 C111.473004,10.4273333 111.898194,11.2426667 112.195627,12.2026667 C112.49173,13.1646667 112.641445,14.2373333 112.641445,15.43 C112.641445,16.622 112.49173,17.6953333 112.195627,18.6553333 C111.898194,19.6153333 111.473004,20.4333333 110.917395,21.1046667 C110.361122,21.778 109.679087,22.296 108.873289,22.6606667 C108.069487,23.0246667 107.158555,23.2053333 106.14249,23.2053333 C105.126426,23.2053333 104.216825,23.0246667 103.411692,22.6606667 C102.605894,22.296 101.926521,21.778 101.370247,21.1046667 C100.813308,20.4333333 100.386787,19.616 100.09135,18.6553333 C99.7945817,17.6953333 99.6455323,16.622 99.6455323,15.43 L99.6455323,15.43 L99.6455323,15.43 Z M109.077567,15.43 C109.077567,13.7393333 108.836692,12.5006667 108.358935,11.714 C107.878517,10.9253333 107.139259,10.5313333 106.143156,10.5313333 C105.146388,10.5313333 104.407795,10.926 103.930038,11.714 C103.450285,12.5013333 103.210741,13.7393333 103.210741,15.43 C103.210741,17.12 103.450285,18.3593333 103.930038,19.1453333 C104.407795,19.9333333 105.146388,20.326 106.143156,20.326 C107.139259,20.326 107.878517,19.9326667 108.358935,19.1453333 C108.836027,18.3586667 109.077567,17.12 109.077567,15.43 L109.077567,15.43 L109.077567,15.43 Z" id="Shape"></path>
                                <path d="M122.157319,7.93933333 L125.549525,7.93933333 L127.591635,17.272 L127.648859,17.272 L129.805418,7.93933333 L133.109125,7.93933333 L135.179848,17.272 L135.237738,17.272 L137.365684,7.93933333 L140.757224,7.93933333 L136.905894,22.9173333 L133.686692,22.9173333 L131.472243,13.586 L131.41635,13.586 L129.229848,22.9173333 L126.009981,22.9173333 L122.157319,7.93933333 L122.157319,7.93933333 Z" id="Shape"></path>
                                <path d="M149.373479,22.9173333 L149.146578,21.6233333 C148.414639,22.122 147.693346,22.5113333 146.972053,22.7886667 C146.255418,23.0666667 145.425,23.2053333 144.486787,23.2053333 C143.81673,23.2053333 143.227852,23.0953333 142.720817,22.876 C142.210456,22.6533333 141.788593,22.3593333 141.454563,21.9833333 C141.117205,21.6086667 140.865019,21.1853333 140.692015,20.714 C140.520342,20.244 140.433175,19.7506667 140.433175,19.232 C140.433175,17.5233333 141.133175,16.204 142.533175,15.2706667 C143.931179,14.3406667 146.087072,13.7013333 149.001521,13.3553333 L149.001521,12.0893333 C149.001521,11.5126667 148.795247,11.0706667 148.382034,10.7633333 C147.969487,10.4566667 147.447814,10.3013333 146.815684,10.3013333 C145.970627,10.3013333 145.299905,10.4893333 144.802852,10.8633333 C144.303802,11.2386667 143.881939,11.6666667 143.536597,12.148 L141.238973,10.3906667 C141.468536,9.98666667 141.78327,9.61466667 142.187167,9.28133333 C142.589734,8.94466667 143.044202,8.65066667 143.552567,8.40133333 C144.061597,8.15133333 144.592586,7.96133333 145.147529,7.826 C145.703137,7.69133333 146.258745,7.63466667 146.81635,7.652 C147.812452,7.672 148.67481,7.78866667 149.402757,7.99866667 C150.13403,8.21066667 150.731559,8.55066667 151.202662,9.02133333 C151.672433,9.49333333 152.015779,10.1126667 152.236027,10.8793333 C152.456274,11.648 152.566065,12.588 152.566065,13.702 L152.566065,20.76 C152.566065,21.142 152.586027,21.5166667 152.625951,21.882 C152.663878,22.248 152.740399,22.5926667 152.853517,22.918 L149.373479,22.918 L149.373479,22.9173333 L149.373479,22.9173333 Z M149.002186,15.7453333 C148.407985,15.8606667 147.813118,15.9873333 147.218916,16.1206667 C146.622719,16.2533333 146.087738,16.4326667 145.609316,16.6526667 C145.128897,16.8733333 144.74097,17.1553333 144.443536,17.5033333 C144.146103,17.8493333 143.999049,18.2786667 143.999049,18.8006667 C143.999049,19.356 144.160741,19.7853333 144.486787,20.0946667 C144.813498,20.4026667 145.224049,20.554 145.722433,20.554 C146.013878,20.554 146.30865,20.504 146.615399,20.3973333 C146.920817,20.292 147.218251,20.1626667 147.505703,20.006 C147.793821,19.8546667 148.066635,19.6813333 148.32481,19.49 C148.584316,19.2986667 148.809221,19.124 149.001521,18.9706667 L149.001521,15.7453333 L149.002186,15.7453333 L149.002186,15.7453333 Z" id="Shape"></path>
                                <path d="M175,22.9173333 L171.982414,22.9173333 L171.810076,21.3046667 C171.175285,21.922 170.543821,22.392 169.911027,22.716 C169.278897,23.042 168.560932,23.2046667 167.753802,23.2046667 C166.7577,23.2046667 165.88403,23 165.138783,22.5853333 C164.388878,22.1753333 163.76673,21.6033333 163.267681,20.8726667 C162.767966,20.1433333 162.394677,19.2786667 162.148479,18.2786667 C161.896293,17.282 161.771863,16.198 161.771863,15.0246667 C161.771863,14.1046667 161.900951,13.2 162.161122,12.3166667 C162.421958,11.4346667 162.803232,10.6446667 163.312928,9.95266667 C163.818631,9.26333333 164.446103,8.70733333 165.195342,8.28266667 C165.943251,7.862 166.794962,7.64933333 167.753137,7.64933333 C168.058555,7.64933333 168.385932,7.69333333 168.730608,7.78066667 C169.07462,7.86733333 169.4173,7.98133333 169.751996,8.12733333 C170.086027,8.26933333 170.40076,8.44666667 170.684886,8.65866667 C170.973004,8.86933333 171.205228,9.09066667 171.377567,9.31866667 L171.434791,9.31866667 L171.434791,2.12066667 L175,2.12066667 L175,22.9173333 L175,22.9173333 Z M171.436122,12.922 C171.228517,11.2406667 169.248289,10.5306667 168.67538,10.5306667 C167.602757,10.5306667 166.778327,10.95 166.202091,11.786 C165.626521,12.6206667 165.340399,13.8353333 165.340399,15.43 C165.340399,17.024 165.626521,18.2373333 166.202091,19.0733333 C166.778327,19.9086667 167.632034,20.4186667 168.704658,20.4186667 C169.503137,20.4186667 170.207129,20.146 170.849905,19.4826667 C171.054183,19.2726667 171.359601,18.778 171.436787,18.4793333 L171.436787,12.922 L171.436122,12.922 L171.436122,12.922 Z" id="Shape"></path>
                                <path d="M118.715875,8.42933333 C118.073764,8.90933333 117.53346,9.602 117.0923,10.502 L117.035076,10.502 L117.035076,7.93933333 L113.757985,7.93933333 L113.757985,22.9173333 L117.321863,22.9173333 L117.321863,14.1653333 C117.321863,14.1093333 117.375095,13.936 117.446958,13.74 C117.898099,12.3586667 119.182319,11.3526667 120.716065,11.3526667 C120.913688,11.3526667 121.101996,11.3786667 121.289639,11.4126667 L121.289639,7.65 C120.21635,7.68933333 119.357319,7.95 118.715875,8.42933333 L118.715875,8.42933333 L118.715875,8.42933333 Z" id="Shape"></path>
                                <path d="M159.052376,8.42933333 C158.412928,8.90933333 157.871293,9.602 157.429468,10.502 L157.372909,10.502 L157.372909,7.93933333 L154.095152,7.93933333 L154.095152,22.9173333 L157.661027,22.9173333 L157.661027,14.1653333 C157.661027,14.1093333 157.713593,13.936 157.784125,13.74 C158.235932,12.3586667 159.520817,11.3526667 161.053232,11.3526667 C161.250856,11.3526667 161.439829,11.3786667 161.627471,11.4126667 L161.627471,7.65 C160.552186,7.68933333 159.696483,7.95 159.052376,8.42933333 L159.052376,8.42933333 L159.052376,8.42933333 Z" id="Shape"></path>
                                <path d="M62.996673,7.94066667 L62.996673,3.042 L61.2719582,3.042 L61.2719582,7.94066667 L59.0295627,7.94066667 L59.0295627,9.32133333 L61.2719582,9.32133333 L61.2719582,20.5853333 C61.2719582,22.3993333 62.8103612,22.9706667 64.5457224,22.9333333 C65.1219582,22.92 66.1040875,22.9113333 66.1040875,22.9113333 L66.2864068,21.5346667 C63.9475285,21.8813333 63.2621673,21.274 63.1117871,20.6873333 C63.0904943,20.6073333 63.0026616,20.6046667 63.0026616,19.4373333 L62.9960076,9.32066667 L66.2331749,9.32066667 L66.2331749,7.94 L62.996673,7.94 L62.996673,7.94066667 L62.996673,7.94066667 Z" id="Shape"></path>
                            </g>
                        </g>
                    </g>
                </g>
            </g>
        </g>
    </g>
</svg>