<?xml version="1.0" encoding="utf-8"?>
<!-- Generator: Adobe Illustrator 15.0.0, SVG Export Plug-In . SVG Version: 6.00 Build 0)  -->
<!DOCTYPE svg PUBLIC "-//W3C//DTD SVG 1.1 Tiny//EN" "http://www.w3.org/Graphics/SVG/1.1/DTD/svg11-tiny.dtd">
<svg version="1.1" baseProfile="tiny" id="Layer_1" xmlns="http://www.w3.org/2000/svg" xmlns:xlink="http://www.w3.org/1999/xlink"
	 x="0px" y="0px" width="78.661px" height="78.663px" viewBox="0 0 78.661 78.663" overflow="inherit" xml:space="preserve">
<g>
	<path fill="#56B0E5" d="M7.644,62.626c2.604,3.537,5.789,6.615,9.407,9.111l32.595-32.597L17.283,6.763
		c-3.639,2.474-6.838,5.532-9.472,9.05L31.14,39.141L7.644,62.626z"/>
	<path fill="#009CDE" d="M39.334,0c-3.737,0-7.349,0.537-10.772,1.512l37.622,37.628L28.246,77.07
		c3.524,1.023,7.236,1.593,11.089,1.593c21.716,0,39.326-17.606,39.326-39.325C78.661,17.617,61.05,0,39.334,0z"/>
	<path fill="#ACD0F1" d="M0,39.338c0,4.333,0.712,8.497,2.006,12.394l12.595-12.591L2.104,26.636C0.746,30.622,0,34.891,0,39.338z"
		/>
</g>
</svg>
