<?xml version="1.0" encoding="UTF-8" standalone="no"?>
<svg width="60px" height="60px" viewBox="0 0 60 60" version="1.1" xmlns="http://www.w3.org/2000/svg" xmlns:xlink="http://www.w3.org/1999/xlink" xmlns:sketch="http://www.bohemiancoding.com/sketch/ns">
    <!-- Generator: Sketch 3.3.3 (12072) - http://www.bohemiancoding.com/sketch -->
    <title>Shakinghands</title>
    <desc>Created with Sketch.</desc>
    <defs>
        <path id="path-1" d="M21.293,17.749 L17.757,21.284 L0.787,4.314 L4.322,0.778 L21.293,17.749"></path>
        <path id="path-3" d="M25.146,16.813 L22.381,22.365 L0.167,7.469 L14.76,0.29 L26.82,15.303 L25.146,16.813"></path>
        <path id="path-5" d="M31.192,11.464 C35.435,15.707 42.506,25.607 42.506,25.607 L25.536,42.577 C25.536,42.577 15.636,35.506 11.393,31.263 C7.151,27.021 0.08,17.121 0.08,17.121 L17.05,0.151 C17.05,0.151 19.069,1.604 22.038,3.872 L31.192,11.464"></path>
        <path id="path-7" d="M10.263,10.849 L0.364,0.95 L10.263,10.849"></path>
        <path id="path-9" d="M10.021,10.092 L0.121,0.192 L10.021,10.092"></path>
        <path id="path-11" d="M10.778,10.335 L0.879,0.435 L10.778,10.335"></path>
        <path id="path-13" d="M19.106,0.781 C19.884,0.003 21.142,7.77156117e-16 21.928,0.785 L24.759,3.617 C25.539,4.397 25.537,5.664 24.763,6.438 L6.367,24.834 C5.589,25.612 4.331,25.616 3.545,24.83 L0.714,21.999 C-0.066,21.218 -0.064,19.951 0.71,19.178 L19.106,0.781"></path>
        <path id="path-15" d="M25.29,19.178 C26.068,19.955 26.071,21.213 25.286,21.999 L22.455,24.83 C21.674,25.61 20.407,25.608 19.633,24.834 L1.237,6.438 C0.459,5.66 0.455,4.402 1.241,3.617 L4.072,0.785 C4.853,0.005 6.12,0.007 6.894,0.781 L25.29,19.178"></path>
        <path id="path-17" d="M0.029,2.556 L2.151,0.435 L0.029,2.556"></path>
        <path id="path-19" d="M0.272,2.799 L2.393,0.678 L0.272,2.799"></path>
        <path id="path-21" d="M0.515,3.042 L2.636,0.92 L0.515,3.042"></path>
    </defs>
    <g id="Page-1" stroke="none" stroke-width="1" fill="none" fill-rule="evenodd" sketch:type="MSPage">
        <g id="Shakinghands" sketch:type="MSLayerGroup" transform="translate(1.000000, 5.000000)">
            <g id="Group-3" transform="translate(7.000000, 29.000000)">
                <mask id="mask-2" sketch:name="Clip 2" fill="white">
                    <use xlink:href="#path-1"></use>
                </mask>
                <g id="Clip-2"></g>
                <path d="M-6.284,4.314 L4.322,-6.293 L28.364,17.749 L17.757,28.355" id="Fill-1" fill="#EBE7D1" sketch:type="MSShapeGroup" mask="url(#mask-2)"></path>
            </g>
            <path d="M28.293,46.749 L24.757,50.284 L7.787,33.314 L11.322,29.778" id="Stroke-4" stroke="#2F4E55" stroke-width="2" stroke-linecap="round" stroke-linejoin="round" sketch:type="MSShapeGroup"></path>
            <g id="Group-8" transform="translate(24.000000, 6.000000)">
                <mask id="mask-4" sketch:name="Clip 7" fill="white">
                    <use xlink:href="#path-3"></use>
                </mask>
                <g id="Clip-7"></g>
                <path d="M11.053,-10.488 L36.679,15.138 L18.722,33.095 L-6.904,7.469" id="Fill-6" fill="#EBE7D1" sketch:type="MSShapeGroup" mask="url(#mask-4)"></path>
            </g>
            <path d="M49.146,22.813 L46.381,28.365 L24.167,13.469 L38.76,6.29 L50.82,21.303" id="Stroke-9" stroke="#2F4E55" stroke-width="2" stroke-linecap="round" stroke-linejoin="round" sketch:type="MSShapeGroup"></path>
            <g id="Group-13" transform="translate(7.000000, 7.000000)">
                <mask id="mask-6" sketch:name="Clip 12" fill="white">
                    <use xlink:href="#path-5"></use>
                </mask>
                <g id="Clip-12"></g>
                <path d="M18.464,-8.335 L50.991,24.192 L24.121,51.062 L-8.406,18.536" id="Fill-11" fill="#EBE7D1" sketch:type="MSShapeGroup" mask="url(#mask-6)"></path>
            </g>
            <path d="M38.192,18.464 C42.435,22.707 49.506,32.607 49.506,32.607 L32.536,49.577 C32.536,49.577 22.636,42.506 18.393,38.263 C14.151,34.021 7.08,24.121 7.08,24.121 L24.05,7.151 C24.05,7.151 26.069,8.604 29.038,10.872" id="Stroke-14" stroke="#2F4E55" stroke-width="2" stroke-linecap="round" stroke-linejoin="round" sketch:type="MSShapeGroup"></path>
            <g id="Group-18" transform="translate(35.000000, 26.000000)">
                <mask id="mask-8" sketch:name="Clip 17" fill="white">
                    <use xlink:href="#path-7"></use>
                </mask>
                <g id="Clip-17"></g>
                <path d="M0.364,-6.121 L17.335,10.849 L10.263,17.92 L-6.707,0.95" id="Fill-16" fill="#D8D8D9" sketch:type="MSShapeGroup" mask="url(#mask-8)"></path>
            </g>
            <path d="M45.263,36.849 L35.364,26.95" id="Stroke-19" stroke="#2F4E55" stroke-width="2" stroke-linecap="round" stroke-linejoin="round" sketch:type="MSShapeGroup"></path>
            <g id="Group-23" transform="translate(31.000000, 31.000000)">
                <mask id="mask-10" sketch:name="Clip 22" fill="white">
                    <use xlink:href="#path-9"></use>
                </mask>
                <g id="Clip-22"></g>
                <path d="M0.121,-6.879 L17.092,10.092 L10.021,17.163 L-6.95,0.192" id="Fill-21" fill="#D8D8D9" sketch:type="MSShapeGroup" mask="url(#mask-10)"></path>
            </g>
            <path d="M41.021,41.092 L31.121,31.192" id="Stroke-24" stroke="#2F4E55" stroke-width="2" stroke-linecap="round" stroke-linejoin="round" sketch:type="MSShapeGroup"></path>
            <g id="Group-28" transform="translate(26.000000, 35.000000)">
                <mask id="mask-12" sketch:name="Clip 27" fill="white">
                    <use xlink:href="#path-11"></use>
                </mask>
                <g id="Clip-27"></g>
                <path d="M0.879,-6.636 L17.849,10.335 L10.778,17.406 L-6.192,0.435" id="Fill-26" fill="#D8D8D9" sketch:type="MSShapeGroup" mask="url(#mask-12)"></path>
            </g>
            <path d="M36.778,45.335 L26.879,35.435" id="Stroke-29" stroke="#2F4E55" stroke-width="2" stroke-linecap="round" stroke-linejoin="round" sketch:type="MSShapeGroup"></path>
            <g id="Group-33">
                <mask id="mask-14" sketch:name="Clip 32" fill="white">
                    <use xlink:href="#path-13"></use>
                </mask>
                <g id="Clip-32"></g>
                <path d="M20.515,-7.698 L33.243,5.029 L4.958,33.314 L-7.77,20.586" id="Fill-31" fill="#ACD0F1" sketch:type="MSShapeGroup" mask="url(#mask-14)"></path>
            </g>
            <path d="M19.106,0.781 C19.884,0.003 21.142,7.77156117e-16 21.928,0.785 L24.759,3.617 C25.539,4.397 25.537,5.664 24.763,6.438 L6.367,24.834 C5.589,25.612 4.331,25.616 3.545,24.83 L0.714,21.999 C-0.066,21.218 -0.064,19.951 0.71,19.177 L19.106,0.781 L19.106,0.781 Z" id="Stroke-34" stroke="#2F4E55" stroke-width="2" stroke-linecap="round" stroke-linejoin="round" sketch:type="MSShapeGroup"></path>
            <g id="Group-38" transform="translate(32.000000, 0.000000)">
                <mask id="mask-16" sketch:name="Clip 37" fill="white">
                    <use xlink:href="#path-15"></use>
                </mask>
                <g id="Clip-37"></g>
                <path d="M33.77,20.586 L21.042,33.314 L-7.243,5.029 L5.485,-7.698" id="Fill-36" fill="#009CDE" sketch:type="MSShapeGroup" mask="url(#mask-16)"></path>
            </g>
            <path d="M57.29,19.177 C58.068,19.955 58.071,21.213 57.286,21.999 L54.455,24.83 C53.674,25.61 52.407,25.608 51.633,24.834 L33.237,6.438 C32.459,5.66 32.455,4.402 33.241,3.617 L36.072,0.785 C36.853,0.005 38.12,0.007 38.894,0.781 L57.29,19.177 L57.29,19.177 Z" id="Stroke-39" stroke="#2F4E55" stroke-width="2" stroke-linecap="round" stroke-linejoin="round" sketch:type="MSShapeGroup"></path>
            <g id="Group-43" transform="translate(12.000000, 35.000000)">
                <mask id="mask-18" sketch:name="Clip 42" fill="white">
                    <use xlink:href="#path-17"></use>
                </mask>
                <g id="Clip-42"></g>
                <path d="M2.151,-6.636 L9.222,0.435 L0.029,9.627 L-7.042,2.556" id="Fill-41" fill="#D8D8D9" sketch:type="MSShapeGroup" mask="url(#mask-18)"></path>
            </g>
            <path d="M12.029,37.556 L14.151,35.435" id="Stroke-44" stroke="#2F4E55" stroke-width="2" stroke-linecap="square" stroke-linejoin="round" sketch:type="MSShapeGroup"></path>
            <g id="Group-48" transform="translate(16.000000, 39.000000)">
                <mask id="mask-20" sketch:name="Clip 47" fill="white">
                    <use xlink:href="#path-19"></use>
                </mask>
                <g id="Clip-47"></g>
                <path d="M2.393,-6.393 L9.464,0.678 L0.272,9.87 L-6.799,2.799" id="Fill-46" fill="#D8D8D9" sketch:type="MSShapeGroup" mask="url(#mask-20)"></path>
            </g>
            <path d="M16.272,41.799 L18.393,39.678" id="Stroke-49" stroke="#2F4E55" stroke-width="2" stroke-linecap="square" stroke-linejoin="round" sketch:type="MSShapeGroup"></path>
            <g id="Group-53" transform="translate(20.000000, 43.000000)">
                <mask id="mask-22" sketch:name="Clip 52" fill="white">
                    <use xlink:href="#path-21"></use>
                </mask>
                <g id="Clip-52"></g>
                <path d="M2.636,-6.151 L9.707,0.92 L0.515,10.113 L-6.556,3.042" id="Fill-51" fill="#D8D8D9" sketch:type="MSShapeGroup" mask="url(#mask-22)"></path>
            </g>
            <path d="M20.515,46.042 L22.636,43.92" id="Stroke-54" stroke="#2F4E55" stroke-width="2" stroke-linecap="square" stroke-linejoin="round" sketch:type="MSShapeGroup"></path>
            <path d="M35.19,8.376 C35.19,8.376 28.58,10.367 23.425,15.522 C18.27,20.677 17.756,22.004 18.131,22.378 C18.505,22.752 22.049,23.085 22.049,23.085 C22.049,23.085 27.683,20.437 29.963,20.699 C32.243,20.96 36.273,18.457 37.521,17.786" id="Stroke-56" stroke="#2F4E55" stroke-width="2" stroke-linecap="round" stroke-linejoin="round" sketch:type="MSShapeGroup"></path>
        </g>
    </g>
</svg>