<?xml version="1.0" encoding="UTF-8" standalone="no"?>
<svg width="60px" height="60px" viewBox="0 0 60 60" version="1.1" xmlns="http://www.w3.org/2000/svg" xmlns:xlink="http://www.w3.org/1999/xlink" xmlns:sketch="http://www.bohemiancoding.com/sketch/ns">
    <!-- Generator: Sketch 3.3.3 (12072) - http://www.bohemiancoding.com/sketch -->
    <title>Page-1</title>
    <desc>Created with Sketch.</desc>
    <defs>
        <path id="path-1" d="M20.9439344,17.4580328 L17.4659016,20.935082 L0.774098361,4.24327869 L4.25114754,0.765245902"></path>
        <path id="path-3" d="M24.7337705,16.537377 L22.0140984,21.9983607 L0.164262295,7.34655738 L14.5180328,0.285245902 L26.3803279,15.0521311"></path>
        <path id="path-5" d="M30.6806557,11.2760656 C34.8540984,15.4495082 41.8091803,25.1872131 41.8091803,25.1872131 L25.117377,41.8790164 C25.117377,41.8790164 15.3796721,34.9239344 11.2062295,30.7504918 C7.03377049,26.5780328 0.0786885246,16.8403279 0.0786885246,16.8403279 L16.7704918,0.14852459 C16.7704918,0.14852459 18.7563934,1.57770492 21.6777049,3.80852459"></path>
        <path id="path-7" d="M18.7927869,0.768196721 C19.5580328,0.00295081967 20.7954098,-1.27675648e-15 21.5685246,0.773114754 L24.3531148,3.55770492 C25.1203279,4.32491803 25.1183607,5.57114754 24.3570492,6.33245902 L6.26262295,24.4268852 C5.49737705,25.1921311 4.26,25.1960656 3.48786885,24.4229508 L0.702295082,21.6383607 C-0.0649180328,20.8701639 -0.0629508197,19.6239344 0.698360656,18.862623 L18.7927869,0.768196721"></path>
        <path id="path-9" d="M24.8754098,18.862623 C25.6406557,19.6278689 25.6445902,20.8652459 24.8714754,21.6383607 L22.0859016,24.4229508 C21.3186885,25.1901639 20.072459,25.1881967 19.3111475,24.4268852 L1.21672131,6.33245902 C0.45147541,5.56721311 0.447540984,4.32983607 1.22065574,3.55770492 L4.0052459,0.773114754 C4.77344262,0.00491803279 6.01967213,0.00786885246 6.78098361,0.768196721 L24.8754098,18.862623"></path>
    </defs>
    <g id="Page-1" stroke="none" stroke-width="1" fill="none" fill-rule="evenodd" sketch:type="MSPage">
        <g id="Shakinghands" sketch:type="MSLayerGroup" transform="translate(0.000000, 4.000000)">
            <g id="Page-1">
                <g id="Shakinghands">
                    <g id="outlined">
                        <g id="Imported-Layers">
                            <g id="Group-1544" transform="translate(7.868852, 29.508197)">
                                <g id="mask-2" fill="#FFFFFF" sketch:type="MSShapeGroup">
                                    <path d="M20.9439344,17.4580328 L17.4659016,20.935082 L0.774098361,4.24327869 L4.25114754,0.765245902" id="path-1"></path>
                                </g>
                                <g id="Fill-1542-Clipped">
                                    <g id="mask-2" fill="#FFFFFF" sketch:type="MSShapeGroup">
                                        <path d="M20.9439344,17.4580328 L17.4659016,20.935082 L0.774098361,4.24327869 L4.25114754,0.765245902" id="path-1"></path>
                                    </g>
                                    <g>
                                        <mask id="mask-2" sketch:name="path-1" fill="white">
                                            <use xlink:href="#path-1"></use>
                                        </mask>
                                        <g id="path-1"></g>
                                        <path d="M-6.18098361,4.24327869 L4.25114754,-6.18983607 L27.8990164,17.4580328 L17.4659016,27.8901639 L-6.18098361,4.24327869" id="Fill-1542" fill="#E9E7DF" sketch:type="MSShapeGroup" mask="url(#mask-2)"></path>
                                    </g>
                                </g>
                            </g>
                            <path d="M25.3347541,51.4268852 C25.0829508,51.4268852 24.8321311,51.3314754 24.6393443,51.1386885 L7.94754098,34.4468852 C7.76262295,34.2619672 7.65934426,34.0121311 7.65934426,33.7504918 C7.65934426,33.4898361 7.76262295,33.24 7.94754098,33.055082 L11.4245902,29.5780328 C11.8091803,29.1944262 12.4318033,29.1944262 12.8154098,29.5780328 C13.2,29.962623 13.2,30.5852459 12.8154098,30.9688525 L10.0337705,33.7504918 L25.3347541,49.052459 L28.117377,46.2708197 C28.5019672,45.8862295 29.1236066,45.8862295 29.5081967,46.2708197 C29.8927869,46.6554098 29.8927869,47.2770492 29.5081967,47.6616393 L26.0301639,51.1386885 C25.8383607,51.3314754 25.5865574,51.4268852 25.3347541,51.4268852" id="Fill-1545" fill="#333333" sketch:type="MSShapeGroup"></path>
                            <g id="Group-1548" transform="translate(24.590164, 6.885246)">
                                <g id="mask-4" fill="#FFFFFF" sketch:type="MSShapeGroup">
                                    <path d="M24.7337705,16.537377 L22.0140984,21.9983607 L0.164262295,7.34655738 L14.5180328,0.285245902 L26.3803279,15.0521311" id="path-3"></path>
                                </g>
                                <g id="Fill-1546-Clipped">
                                    <g id="mask-4" fill="#FFFFFF" sketch:type="MSShapeGroup">
                                        <path d="M24.7337705,16.537377 L22.0140984,21.9983607 L0.164262295,7.34655738 L14.5180328,0.285245902 L26.3803279,15.0521311" id="path-3"></path>
                                    </g>
                                    <g>
                                        <mask id="mask-4" sketch:name="path-3" fill="white">
                                            <use xlink:href="#path-3"></use>
                                        </mask>
                                        <g id="path-3"></g>
                                        <path d="M10.8718033,-10.3160656 L36.0777049,14.8898361 L18.415082,32.552459 L-6.79081967,7.34655738 L10.8718033,-10.3160656" id="Fill-1546" fill="#E9E7DF" sketch:type="MSShapeGroup" mask="url(#mask-4)"></path>
                                    </g>
                                </g>
                            </g>
                            <path d="M46.6042623,29.8672131 C46.4114754,29.8672131 46.2206557,29.8111475 46.0563934,29.7 L24.2065574,15.0481967 C23.9154098,14.8534426 23.7501639,14.5170492 23.7727869,14.1659016 C23.7963934,13.8157377 24.004918,13.5039344 24.3206557,13.3485246 L38.6744262,6.28819672 C39.0885246,6.08360656 39.5862295,6.1947541 39.8754098,6.5547541 L51.7377049,21.3216393 C52.0780328,21.7445902 52.0101639,22.3632787 51.5872131,22.7036066 C51.1632787,23.0439344 50.5445902,22.9770492 50.2042623,22.5531148 L38.8347541,8.40098361 L26.7157377,14.362623 L46.222623,27.4436066 L48.4436066,22.9839344 C48.6845902,22.4970492 49.2737705,22.2983607 49.762623,22.5413115 C50.2485246,22.7832787 50.4462295,23.3744262 50.2042623,23.8603279 L47.4845902,29.3213115 C47.3586885,29.575082 47.1295082,29.7619672 46.8570492,29.8347541 C46.7734426,29.8563934 46.6888525,29.8672131 46.6042623,29.8672131" id="Fill-1549" fill="#333333" sketch:type="MSShapeGroup"></path>
                            <g id="Group-1552" transform="translate(7.868852, 7.868852)">
                                <g id="mask-6" fill="#FFFFFF" sketch:type="MSShapeGroup">
                                    <path d="M30.6806557,11.2760656 C34.8540984,15.4495082 41.8091803,25.1872131 41.8091803,25.1872131 L25.117377,41.8790164 C25.117377,41.8790164 15.3796721,34.9239344 11.2062295,30.7504918 C7.03377049,26.5780328 0.0786885246,16.8403279 0.0786885246,16.8403279 L16.7704918,0.14852459 C16.7704918,0.14852459 18.7563934,1.57770492 21.6777049,3.80852459" id="path-5"></path>
                                </g>
                                <g id="Fill-1550-Clipped">
                                    <g id="mask-6" fill="#FFFFFF" sketch:type="MSShapeGroup">
                                        <path d="M30.6806557,11.2760656 C34.8540984,15.4495082 41.8091803,25.1872131 41.8091803,25.1872131 L25.117377,41.8790164 C25.117377,41.8790164 15.3796721,34.9239344 11.2062295,30.7504918 C7.03377049,26.5780328 0.0786885246,16.8403279 0.0786885246,16.8403279 L16.7704918,0.14852459 C16.7704918,0.14852459 18.7563934,1.57770492 21.6777049,3.80852459" id="path-5"></path>
                                    </g>
                                    <g>
                                        <mask id="mask-6" sketch:name="path-5" fill="white">
                                            <use xlink:href="#path-5"></use>
                                        </mask>
                                        <g id="path-5"></g>
                                        <path d="M18.1622951,-8.19836066 L50.155082,23.7954098 L23.7255738,50.224918 L-8.26819672,18.2321311 L18.1622951,-8.19836066" id="Fill-1550" fill="#E9E7DF" sketch:type="MSShapeGroup" mask="url(#mask-6)"></path>
                                    </g>
                                </g>
                            </g>
                            <path d="M32.9852459,50.7314754 C32.7865574,50.7314754 32.5859016,50.6714754 32.4147541,50.5485246 C32.0134426,50.2632787 22.5629508,43.4980328 18.3806557,39.3157377 C14.197377,35.132459 7.43311475,25.6809836 7.14688525,25.2806557 C6.86754098,24.8901639 6.91180328,24.3540984 7.25213115,24.0137705 L23.9439344,7.32098361 C24.2842623,6.98065574 24.8222951,6.93540984 25.2147541,7.21868852 C25.2344262,7.23344262 27.244918,8.68131148 30.1436066,10.8954098 C30.5754098,11.2259016 30.6580328,11.842623 30.327541,12.2744262 C29.9980328,12.7042623 29.3813115,12.7898361 28.9495082,12.4593443 C27.0619672,11.017377 25.5580328,9.90491803 24.7406557,9.30688525 L9.23508197,24.8134426 C10.8836066,27.082623 16.3337705,34.4872131 19.7714754,37.924918 C23.2091803,41.362623 30.6127869,46.8118033 32.8829508,48.4603279 L48.3904918,32.9518033 C46.7419672,30.6816393 41.2908197,23.2780328 37.8540984,19.8413115 C37.4704918,19.4567213 37.4704918,18.8340984 37.8540984,18.4504918 C38.2386885,18.0659016 38.8613115,18.0659016 39.244918,18.4504918 C43.4281967,22.6327869 50.192459,32.0832787 50.4786885,32.4836066 C50.7580328,32.875082 50.7137705,33.4111475 50.3734426,33.7504918 L33.6816393,50.4432787 C33.4908197,50.6331148 33.2390164,50.7314754 32.9852459,50.7314754" id="Fill-1553" fill="#333333" sketch:type="MSShapeGroup"></path>
                            <path d="M45.5055738,38.2131148 C45.2537705,38.2131148 45.0019672,38.1167213 44.8101639,37.924918 L35.072459,28.1862295 C34.6888525,27.802623 34.6888525,27.18 35.072459,26.7954098 C35.4570492,26.4118033 36.0796721,26.4118033 36.4632787,26.7954098 L46.2009836,36.5340984 C46.5845902,36.9177049 46.5845902,37.5403279 46.2009836,37.924918 C46.0081967,38.1167213 45.757377,38.2131148 45.5055738,38.2131148" id="Fill-1557" fill="#333333" sketch:type="MSShapeGroup"></path>
                            <path d="M41.3321311,42.3855738 C41.0803279,42.3855738 40.8285246,42.2891803 40.6367213,42.097377 L30.8990164,32.3596721 C30.5144262,31.9760656 30.5144262,31.3534426 30.8990164,30.9688525 C31.2836066,30.5852459 31.9062295,30.5852459 32.2898361,30.9688525 L42.027541,40.7065574 C42.4121311,41.0901639 42.4121311,41.7127869 42.027541,42.097377 C41.8357377,42.2891803 41.5839344,42.3855738 41.3321311,42.3855738" id="Fill-1561" fill="#333333" sketch:type="MSShapeGroup"></path>
                            <path d="M37.1586885,46.5590164 C36.9068852,46.5590164 36.6560656,46.462623 36.4632787,46.2708197 L26.7265574,36.5331148 C26.3419672,36.1485246 26.3419672,35.5259016 26.7265574,35.1413115 C27.1111475,34.7577049 27.7327869,34.7577049 28.117377,35.1413115 L37.8540984,44.88 C38.2386885,45.2645902 38.2386885,45.8862295 37.8540984,46.2708197 C37.6622951,46.462623 37.4104918,46.5590164 37.1586885,46.5590164" id="Fill-1565" fill="#333333" sketch:type="MSShapeGroup"></path>
                            <g id="Group-1568" transform="translate(0.983607, 0.983607)">
                                <g id="mask-14" fill="#FFFFFF" sketch:type="MSShapeGroup">
                                    <path d="M18.7927869,0.768196721 C19.5580328,0.00295081967 20.7954098,-1.27675648e-15 21.5685246,0.773114754 L24.3531148,3.55770492 C25.1203279,4.32491803 25.1183607,5.57114754 24.3570492,6.33245902 L6.26262295,24.4268852 C5.49737705,25.1921311 4.26,25.1960656 3.48786885,24.4229508 L0.702295082,21.6383607 C-0.0649180328,20.8701639 -0.0629508197,19.6239344 0.698360656,18.862623 L18.7927869,0.768196721" id="path-13"></path>
                                </g>
                                <g id="Fill-1566-Clipped">
                                    <g id="mask-8" fill="#FFFFFF" sketch:type="MSShapeGroup">
                                        <path d="M18.7927869,0.768196721 C19.5580328,0.00295081967 20.7954098,-1.27675648e-15 21.5685246,0.773114754 L24.3531148,3.55770492 C25.1203279,4.32491803 25.1183607,5.57114754 24.3570492,6.33245902 L6.26262295,24.4268852 C5.49737705,25.1921311 4.26,25.1960656 3.48786885,24.4229508 L0.702295082,21.6383607 C-0.0649180328,20.8701639 -0.0629508197,19.6239344 0.698360656,18.862623 L18.7927869,0.768196721" id="path-7"></path>
                                    </g>
                                    <g id="path-13"></g>
                                    <g>
                                        <mask id="mask-8" sketch:name="path-7" fill="white">
                                            <use xlink:href="#path-7"></use>
                                        </mask>
                                        <g id="path-7"></g>
                                        <path d="M20.1786885,-7.57180328 L32.6980328,4.94655738 L4.87672131,32.7678689 L-7.64262295,20.2485246 L20.1786885,-7.57180328" id="Fill-1566" fill="#009AE1" sketch:type="MSShapeGroup" mask="url(#mask-8)"></path>
                                    </g>
                                </g>
                            </g>
                            <path d="M5.86229508,26.9685246 C5.07639344,26.9685246 4.3347541,26.6616393 3.77606557,26.1029508 L0.990491803,23.317377 C-0.159344262,22.167541 -0.161311475,20.2986885 0.986557377,19.1518033 L19.0809836,1.05639344 C20.1934426,-0.0570491803 22.1281967,-0.0570491803 23.2465574,1.05934426 L26.0321311,3.84491803 C27.1819672,4.9947541 27.1839344,6.86459016 26.0360656,8.0104918 L7.94163934,26.1059016 C7.38491803,26.6616393 6.64721311,26.9685246 5.86229508,26.9685246 L5.86229508,26.9685246 L5.86229508,26.9685246 Z M21.1613115,2.16098361 C20.9016393,2.16098361 20.6567213,2.26327869 20.4727869,2.44721311 L2.37737705,20.542623 C1.99672131,20.9222951 1.99868852,21.5429508 2.38131148,21.9265574 L5.16590164,24.7111475 C5.54065574,25.0859016 6.18098361,25.0859016 6.54983607,24.715082 L24.6452459,6.62065574 C25.0259016,6.24 25.0239344,5.61934426 24.6413115,5.2357377 L21.8567213,2.45114754 C21.6688525,2.2642623 21.4219672,2.16098361 21.1613115,2.16098361 L21.1613115,2.16098361 L21.1613115,2.16098361 Z" id="Fill-1569" fill="#333333" sketch:type="MSShapeGroup"></path>
                            <g id="Group-1572" transform="translate(32.459016, 0.983607)">
                                <g id="Fill-1570-Clipped">
                                    <g id="mask-10" fill="#FFFFFF" sketch:type="MSShapeGroup">
                                        <path d="M24.8754098,18.862623 C25.6406557,19.6278689 25.6445902,20.8652459 24.8714754,21.6383607 L22.0859016,24.4229508 C21.3186885,25.1901639 20.072459,25.1881967 19.3111475,24.4268852 L1.21672131,6.33245902 C0.45147541,5.56721311 0.447540984,4.32983607 1.22065574,3.55770492 L4.0052459,0.773114754 C4.77344262,0.00491803279 6.01967213,0.00786885246 6.78098361,0.768196721 L24.8754098,18.862623" id="path-9"></path>
                                    </g>
                                    <g>
                                        <mask id="mask-10" sketch:name="path-9" fill="white">
                                            <use xlink:href="#path-9"></use>
                                        </mask>
                                        <g id="path-9"></g>
                                        <path d="M33.2163934,20.2485246 L20.6970492,32.7678689 L-7.1242623,4.94655738 L5.39508197,-7.57180328 L33.2163934,20.2485246" id="Fill-1570" fill="#A4D0F3" sketch:type="MSShapeGroup" mask="url(#mask-10)"></path>
                                    </g>
                                </g>
                            </g>
                            <path d="M53.155082,26.9655738 C52.3681967,26.9655738 51.6295082,26.6596721 51.0747541,26.1059016 L32.9803279,8.0104918 C32.4236066,7.4547541 32.1167213,6.71606557 32.1177049,5.93114754 C32.1177049,5.1452459 32.4255738,4.40360656 32.9842623,3.84491803 L35.7688525,1.06032787 C36.8813115,-0.0531147541 38.8259016,-0.0531147541 39.9354098,1.05639344 L58.0298361,19.1518033 C58.5865574,19.707541 58.8934426,20.4462295 58.892459,21.2311475 C58.892459,22.0180328 58.5845902,22.7586885 58.0259016,23.317377 L55.2413115,26.1019672 C54.6845902,26.6586885 53.9439344,26.9655738 53.155082,26.9655738 L53.155082,26.9655738 L53.155082,26.9655738 Z M37.855082,2.16393443 C37.5914754,2.16393443 37.3445902,2.26622951 37.1596721,2.45114754 L34.375082,5.2357377 C34.1881967,5.42360656 34.084918,5.6704918 34.084918,5.93114754 C34.084918,6.19081967 34.1862295,6.4357377 34.3711475,6.62065574 L52.4655738,24.715082 C52.8314754,25.08 53.4806557,25.08 53.8504918,24.7111475 L56.635082,21.9265574 C56.8219672,21.7396721 56.9252459,21.4927869 56.9252459,21.2311475 C56.9252459,20.9714754 56.8239344,20.7265574 56.6390164,20.542623 L38.5436066,2.44721311 C38.3616393,2.2652459 38.1167213,2.16393443 37.855082,2.16393443 L37.855082,2.16393443 L37.855082,2.16393443 Z" id="Fill-1573" fill="#333333" sketch:type="MSShapeGroup"></path>
                            <path d="M12.8154098,39.3157377 L11.4245902,37.924918 L14.902623,34.4468852 L16.2934426,35.8377049 L12.8154098,39.3157377" id="Fill-1577" fill="#333333" sketch:type="MSShapeGroup"></path>
                            <path d="M16.9888525,43.4881967 L15.5980328,42.097377 L19.0760656,38.6203279 L20.4668852,40.0111475 L16.9888525,43.4881967" id="Fill-1581" fill="#333333" sketch:type="MSShapeGroup"></path>
                            <path d="M21.1622951,47.6616393 L19.7714754,46.2708197 L23.247541,42.7927869 L24.6393443,44.1836066 L21.1622951,47.6616393" id="Fill-1585" fill="#333333" sketch:type="MSShapeGroup"></path>
                            <path d="M22.6711475,24.6737705 C22.6406557,24.6737705 22.6091803,24.6727869 22.5786885,24.6698361 C18.7406557,24.3088525 18.3383607,23.9065574 18.1219672,23.6901639 C17.1963934,22.7655738 18.1652459,21.4003279 18.5793443,20.8170492 C19.4213115,19.6308197 20.9744262,17.9095082 23.3291803,15.5557377 C28.5147541,10.3701639 35.0380328,8.36360656 35.3134426,8.28098361 C35.8347541,8.12360656 36.3816393,8.41868852 36.5380328,8.93803279 C36.6954098,9.45737705 36.4013115,10.0062295 35.8809836,10.1636066 C35.8190164,10.1822951 29.5445902,12.1219672 24.72,16.9465574 C21.4986885,20.1678689 20.3390164,21.6580328 19.924918,22.3278689 C20.5622951,22.4537705 21.5803279,22.5914754 22.5,22.684918 C23.7206557,22.1272131 28.3229508,20.1078689 30.567541,20.3665574 C32.2062295,20.5495082 35.4314754,18.7337705 36.807541,17.9547541 C37.052459,17.8160656 37.2609836,17.6990164 37.4232787,17.6114754 C37.9013115,17.3547541 38.4983607,17.5337705 38.755082,18.0127869 C39.0127869,18.4908197 38.8327869,19.0868852 38.3547541,19.3445902 C38.2022951,19.4262295 38.0055738,19.537377 37.7754098,19.6681967 C35.972459,20.6852459 32.6095082,22.5747541 30.3432787,22.32 C28.9219672,22.1636066 25.135082,23.6203279 23.0891803,24.5803279 C22.9583607,24.6422951 22.8147541,24.6737705 22.6711475,24.6737705" id="Fill-1586" fill="#333333" sketch:type="MSShapeGroup"></path>
                        </g>
                    </g>
                </g>
            </g>
        </g>
    </g>
</svg>