<?xml version="1.0" encoding="UTF-8" standalone="no"?>
<svg width="60px" height="60px" viewBox="0 0 60 60" version="1.1" xmlns="http://www.w3.org/2000/svg" xmlns:xlink="http://www.w3.org/1999/xlink" xmlns:sketch="http://www.bohemiancoding.com/sketch/ns">
    <!-- Generator: Sketch 3.3.3 (12081) - http://www.bohemiancoding.com/sketch -->
    <title>Tie</title>
    <desc>Created with Sketch.</desc>
    <defs>
        <path id="path-1" d="M2,8 C0.898,8 0,7.101 0,6 L0,2 C0,0.898 0.899,0 2,0 L6,0 C7.102,0 8,0.899 8,2 L8,6 C8,7.102 7.101,8 6,8 L2,8"></path>
        <path id="path-3" d="M3,10 C1.343,10 0,8.651 0,7 L0,3 C0,1.343 1.349,0 3,0 L7,0 C8.657,0 10,1.349 10,3 L10,7 C10,8.657 8.651,10 7,10 L3,10 L3,10 Z"></path>
        <path id="path-5" d="M4.446,0.485 L11.446,0.485 L15.485,35.943 L7.985,42.665 L0.485,35.943 L4.446,0.485 L4.446,0.485 Z"></path>
        <path id="path-7" d="M1.24660332,0.274969777 L1.47597735,0.359970992 L0.812,6.117 L0.138,5.054 L14.5486026,9.90313431 L14.6007899,10.3670211 L14.0683437,10.7968711 L13.6257949,10.6479544 L13.003,5.112 L13.649,5.938 L0.392191428,1.02493985 L0.420149014,0.782182223 L1.24660332,0.274969777"></path>
        <path id="path-9" d="M1.51,0.002 L14.997,5 L15.672,11 L0.819,6.002 L1.51,0.002 L1.51,0.002 Z"></path>
        <path id="path-11" d="M1.28089662,0.894092899 L1.52887918,0.988985878 L0.93,6.611 L0.268,5.562 L12.4177689,9.84189008 L12.4833113,10.343331 L11.9827662,10.7486062 L11.5054339,10.5804607 L10.781,5.039 L11.415,5.843 L0.452588204,1.64775053 L0.480617368,1.38420475 L1.28089662,0.894092899"></path>
        <path id="path-13" d="M1.562,0.619 L12.773,4.909 L13.563,10.953 L0.936,6.505 L1.562,0.619 L1.562,0.619 Z"></path>
    </defs>
    <g id="colored" stroke="none" stroke-width="1" fill="none" fill-rule="evenodd" sketch:type="MSPage">
        <g id="Care_sliced" sketch:type="MSLayerGroup" transform="translate(-120.000000, 0.000000)"></g>
        <g id="Imported-Layers" sketch:type="MSLayerGroup" transform="translate(-118.000000, 1.000000)">
            <g id="Group-30" transform="translate(145.000000, 3.000000)">
                <mask id="mask-2" sketch:name="Clip 29" fill="white">
                    <use xlink:href="#path-1"></use>
                </mask>
                <g id="Clip-29"></g>
                <path d="M2,9 C0.343,9 -1,7.651 -1,6 L-1,2 C-1,0.343 0.349,-1 2,-1 L6,-1 C7.657,-1 9,0.349 9,2 L9,6 C9,7.657 7.651,9 6,9 L2,9" id="Fill-28" fill="#73C9C9" sketch:type="MSShapeGroup" mask="url(#mask-2)"></path>
            </g>
            <g id="Group-33" transform="translate(144.000000, 2.000000)">
                <mask id="mask-4" sketch:name="Clip 32" fill="white">
                    <use xlink:href="#path-3"></use>
                </mask>
                <g id="Clip-32"></g>
                <path d="M6.999,12 L3.001,12 C0.243,12 -2,9.757 -2,7 L-2,3 C-2,0.243 0.243,-2 3.001,-2 L6.999,-2 C9.757,-2 12,0.243 12,3 L12,7 C12,9.757 9.757,12 6.999,12 L6.999,12 Z M3.001,2 C2.449,2 2,2.449 2,3 L2,7 C2,7.551 2.449,8 3.001,8 L6.999,8 C7.551,8 8,7.551 8,7 L8,3 C8,2.449 7.551,2 6.999,2 L3.001,2 L3.001,2 Z" id="Fill-31" fill="#314E55" sketch:type="MSShapeGroup" mask="url(#mask-4)"></path>
            </g>
            <g id="Group-36" transform="translate(141.000000, 14.000000)">
                <mask id="mask-6" sketch:name="Clip 35" fill="white">
                    <use xlink:href="#path-5"></use>
                </mask>
                <g id="Clip-35"></g>
                <path d="M0.485,0.485 L15.485,0.485 L15.485,42.665 L0.485,42.665 L0.485,0.485 Z" id="Fill-34" fill="#73C9C9" sketch:type="MSShapeGroup" mask="url(#mask-6)"></path>
            </g>
            <path d="M148.985,57.665 C148.747,57.665 148.508,57.58 148.318,57.41 L140.818,50.688 C140.577,50.472 140.456,50.153 140.492,49.832 L144.452,14.374 C144.508,13.868 144.936,13.485 145.446,13.485 L152.446,13.485 C152.954,13.485 153.382,13.867 153.44,14.372 L157.479,49.83 C157.516,50.151 157.394,50.471 157.153,50.688 L149.653,57.41 C149.463,57.58 149.224,57.665 148.985,57.665 L148.985,57.665 Z M142.536,49.542 L148.985,55.322 L155.433,49.543 L151.553,15.485 L146.34,15.485 L142.536,49.542 L142.536,49.542 Z" id="Fill-37" fill="#314E55" sketch:type="MSShapeGroup"></path>
            <g id="Group-40" transform="translate(142.000000, 32.000000)">
                <mask id="mask-8" sketch:name="Clip 39" fill="white">
                    <use xlink:href="#path-7"></use>
                </mask>
                <g id="Clip-39"></g>
                <path d="M0.51,0.002 L13.997,5 L14.672,11 L-0.181,6.002 L0.51,0.002" id="Fill-38" fill="#81A4E3" sketch:type="MSShapeGroup" mask="url(#mask-8)"></path>
            </g>
            <g id="Group-43" transform="translate(141.000000, 32.000000)">
                <mask id="mask-10" sketch:name="Clip 42" fill="white">
                    <use xlink:href="#path-9"></use>
                </mask>
                <g id="Clip-42"></g>
                <path d="M15.672,13 C15.458,13 15.243,12.965 15.034,12.895 L0.181,7.897 C-0.714,7.597 -1.276,6.711 -1.168,5.773 L-0.477,-0.227 C-0.406,-0.837 -0.06,-1.381 0.464,-1.703 C0.988,-2.023 1.629,-2.087 2.205,-1.874 L15.691,3.124 C16.399,3.387 16.899,4.025 16.984,4.776 L17.628,10.495 C17.669,10.656 17.692,10.825 17.692,11 C17.692,12.104 16.796,13 15.692,13 C15.685,12.999 15.677,12.999 15.672,13 L15.672,13 Z M2.991,4.623 L13.333,8.103 L13.147,6.447 L3.205,2.763 L2.991,4.623 L2.991,4.623 Z" id="Fill-41" fill="#314E55" sketch:type="MSShapeGroup" mask="url(#mask-10)"></path>
            </g>
            <g id="Group-46" transform="translate(143.000000, 22.000000)">
                <mask id="mask-12" sketch:name="Clip 45" fill="white">
                    <use xlink:href="#path-11"></use>
                </mask>
                <g id="Clip-45"></g>
                <path d="M0.562,0.619 L11.773,4.909 L12.563,10.953 L-0.064,6.505 L0.562,0.619" id="Fill-44" fill="#81A4E3" sketch:type="MSShapeGroup" mask="url(#mask-12)"></path>
            </g>
            <g id="Group-49" transform="translate(142.000000, 22.000000)">
                <mask id="mask-14" sketch:name="Clip 48" fill="white">
                    <use xlink:href="#path-13"></use>
                </mask>
                <g id="Clip-48"></g>
                <path d="M13.563,12.952 C13.34,12.952 13.115,12.915 12.898,12.838 L0.272,8.391 C-0.603,8.083 -1.151,7.215 -1.053,6.293 L-0.426,0.407 C-0.36,-0.21 -0.012,-0.762 0.518,-1.086 C1.047,-1.41 1.696,-1.471 2.277,-1.249 L13.488,3.041 C14.174,3.303 14.661,3.921 14.756,4.649 L15.51,10.414 C15.558,10.585 15.583,10.766 15.583,10.952 C15.583,12.057 14.688,12.952 13.583,12.952 L13.563,12.952 L13.563,12.952 Z M3.092,5.144 L11.158,7.985 L10.944,6.351 L3.276,3.416 L3.092,5.144 L3.092,5.144 Z" id="Fill-47" fill="#314E55" sketch:type="MSShapeGroup" mask="url(#mask-14)"></path>
            </g>
        </g>
    </g>
</svg>