<?xml version="1.0" encoding="UTF-8" standalone="no"?>
<svg width="60px" height="60px" viewBox="0 0 60 60" version="1.1" xmlns="http://www.w3.org/2000/svg" xmlns:xlink="http://www.w3.org/1999/xlink" xmlns:sketch="http://www.bohemiancoding.com/sketch/ns">
    <!-- Generator: Sketch 3.3.3 (12081) - http://www.bohemiancoding.com/sketch -->
    <title>Windows</title>
    <desc>Created with Sketch.</desc>
    <defs>
        <path id="path-1" d="M0,1.006 C0,0.45 0.439,0 1.003,0 L21.997,0 C22.551,0 23,0.442 23,1.006 L23,31.994 C23,32.55 22.561,33 21.997,33 L1.003,33 C0.449,33 0,32.558 0,31.994 L0,1.006 L0,1.006 Z"></path>
        <path id="path-3" d="M0,1.006 C0,0.45 0.439,0 1.003,0 L21.997,0 C22.551,0 23,0.442 23,1.006 L23,31.994 C23,32.55 22.561,33 21.997,33 L1.003,33 C0.449,33 0,32.558 0,31.994 L0,1.006 L0,1.006 Z"></path>
    </defs>
    <g id="filled" stroke="none" stroke-width="1" fill="none" fill-rule="evenodd" sketch:type="MSPage">
        <g id="Household_sliced" sketch:type="MSLayerGroup" transform="translate(-240.000000, -600.000000)"></g>
        <g id="Imported-Layers" sketch:type="MSLayerGroup" transform="translate(-239.000000, -598.000000)">
            <path d="M295.999,650 L243.002,650 C241.898,650 241,649.101 241,647.997 L241,611.003 C241,609.899 241.898,609 243.002,609 L295.999,609 C297.102,609 298,609.899 298,611.003 L298,647.997 C298,649.101 297.102,650 295.999,650 L295.999,650 Z M243.002,611 L243,647.997 L295.999,648 L296.002,648 L296,611.003 L243.002,611 L243.002,611 Z" id="Fill-623" fill="#314E55" sketch:type="MSShapeGroup"></path>
            <g id="Group-626" transform="translate(245.000000, 613.000000)">
                <mask id="mask-2" sketch:name="Clip 625" fill="white">
                    <use xlink:href="#path-1"></use>
                </mask>
                <g id="Clip-625"></g>
                <path d="M0,0 L23,0 L23,33 L0,33 L0,0 Z" id="Fill-624" fill="#73C9C9" sketch:type="MSShapeGroup" mask="url(#mask-2)"></path>
            </g>
            <path d="M266.997,647 L246.003,647 C244.898,647 244,646.1 244,644.994 L244,614.006 C244,612.9 244.898,612 246.003,612 L266.997,612 C268.102,612 269,612.9 269,614.006 L269,644.994 C269,646.1 268.102,647 266.997,647 L266.997,647 Z M246.003,614 L246,644.994 L266.997,645 L267.003,645 L267,614.006 L246.003,614 L246.003,614 Z" id="Fill-627" fill="#314E55" sketch:type="MSShapeGroup"></path>
            <g id="Group-630" transform="translate(271.000000, 613.000000)">
                <mask id="mask-4" sketch:name="Clip 629" fill="white">
                    <use xlink:href="#path-3"></use>
                </mask>
                <g id="Clip-629"></g>
                <path d="M0,0 L23,0 L23,33 L0,33 L0,0 Z" id="Fill-628" fill="#73C9C9" sketch:type="MSShapeGroup" mask="url(#mask-4)"></path>
            </g>
            <path d="M292.997,647 L272.003,647 C270.898,647 270,646.1 270,644.994 L270,614.006 C270,612.9 270.898,612 272.003,612 L292.997,612 C294.102,612 295,612.9 295,614.006 L295,644.994 C295,646.1 294.102,647 292.997,647 L292.997,647 Z M272.003,614 L272,644.994 L292.997,645 L293.003,645 L293,614.006 L272.003,614 L272.003,614 Z" id="Fill-631" fill="#314E55" sketch:type="MSShapeGroup"></path>
            <path d="M249,621 C248.744,621 248.488,620.902 248.293,620.707 C247.902,620.316 247.902,619.684 248.293,619.293 L251.293,616.293 C251.684,615.902 252.316,615.902 252.707,616.293 C253.098,616.684 253.098,617.316 252.707,617.707 L249.707,620.707 C249.512,620.902 249.256,621 249,621" id="Fill-632" fill="#314E55" sketch:type="MSShapeGroup"></path>
            <path d="M289,641 C288.744,641 288.488,640.902 288.293,640.707 C287.902,640.316 287.902,639.684 288.293,639.293 L289.293,638.293 C289.684,637.902 290.316,637.902 290.707,638.293 C291.098,638.684 291.098,639.316 290.707,639.707 L289.707,640.707 C289.512,640.902 289.256,641 289,641" id="Fill-633" fill="#314E55" sketch:type="MSShapeGroup"></path>
            <path d="M282,643 C281.744,643 281.488,642.902 281.293,642.707 C280.902,642.316 280.902,641.684 281.293,641.293 L288.293,634.293 C288.684,633.902 289.316,633.902 289.707,634.293 C290.098,634.684 290.098,635.316 289.707,635.707 L282.707,642.707 C282.512,642.902 282.256,643 282,643" id="Fill-634" fill="#314E55" sketch:type="MSShapeGroup"></path>
            <path d="M287,643 C286.74,643 286.48,642.89 286.29,642.71 C286.11,642.52 286,642.26 286,642 C286,641.74 286.11,641.48 286.29,641.29 C286.66,640.92 287.34,640.92 287.71,641.29 C287.89,641.48 288,641.74 288,642 C288,642.26 287.89,642.52 287.71,642.71 C287.52,642.89 287.26,643 287,643" id="Fill-635" fill="#314E55" sketch:type="MSShapeGroup"></path>
            <path d="M250,626 C249.744,626 249.488,625.902 249.293,625.707 C248.902,625.316 248.902,624.684 249.293,624.293 L250.293,623.293 C250.684,622.902 251.316,622.902 251.707,623.293 C252.098,623.684 252.098,624.316 251.707,624.707 L250.707,625.707 C250.512,625.902 250.256,626 250,626" id="Fill-636" fill="#314E55" sketch:type="MSShapeGroup"></path>
            <path d="M253.472,622.528 C253.216,622.528 252.96,622.43 252.765,622.235 C252.375,621.844 252.375,621.211 252.765,620.821 L257.293,616.293 C257.684,615.902 258.316,615.902 258.707,616.293 C259.098,616.684 259.098,617.316 258.707,617.707 L254.179,622.235 C253.984,622.43 253.728,622.528 253.472,622.528" id="Fill-637" fill="#314E55" sketch:type="MSShapeGroup"></path>
        </g>
    </g>
</svg>