<?xml version="1.0" encoding="UTF-8" standalone="no"?>
<svg width="52px" height="52px" viewBox="0 0 52 52" version="1.1" xmlns="http://www.w3.org/2000/svg" xmlns:xlink="http://www.w3.org/1999/xlink" xmlns:sketch="http://www.bohemiancoding.com/sketch/ns">
    <!-- Generator: Sketch 3.3.3 (12072) - http://www.bohemiancoding.com/sketch -->
    <title>outlined</title>
    <desc>Created with Sketch.</desc>
    <defs>
        <path id="path-1" d="M0,0 L16,0 L16,6 L0,6 L0,0 L0,0 Z"></path>
    </defs>
    <g id="Page-1" stroke="none" stroke-width="1" fill="none" fill-rule="evenodd" sketch:type="MSPage">
        <g id="Billpaid" sketch:type="MSLayerGroup" transform="translate(-593.000000, -1165.000000)">
            <g id="outlined">
                <g id="Imported-Layers" transform="translate(600.000000, 1165.000000)">
                    <path d="M39,52 L1,52 C0.447,52 0,51.553 0,51 L0,7 C0,6.489 0.384,6.067 0.878,6.008 L3.606,0.553 C3.945,-0.125 5.055,-0.125 5.394,0.553 L7.5,4.764 L9.606,0.553 C9.945,-0.125 11.055,-0.125 11.394,0.553 L13.5,4.764 L15.606,0.553 C15.945,-0.125 17.055,-0.125 17.394,0.553 L20,5.764 L22.606,0.553 C22.945,-0.125 24.055,-0.125 24.395,0.553 L26.5,4.764 L28.606,0.553 C28.945,-0.125 30.055,-0.125 30.395,0.553 L32.5,4.764 L34.606,0.553 C34.945,-0.125 36.055,-0.125 36.394,0.553 L39.122,6.008 C39.616,6.067 40,6.489 40,7 L40,51 C40,51.553 39.553,52 39,52 L39,52 L39,52 Z M2,50 L38,50 L38,7.866 C37.833,7.769 37.695,7.626 37.606,7.447 L35.5,3.236 L33.395,7.447 C33.055,8.125 31.945,8.125 31.606,7.447 L29.5,3.236 L27.395,7.447 C27.055,8.125 25.945,8.125 25.606,7.447 L23.5,3.236 L21.395,7.447 C21.225,7.786 20.879,8 20.5,8 L19.5,8 C19.121,8 18.775,7.786 18.606,7.447 L16.5,3.236 L14.394,7.447 C14.055,8.125 12.945,8.125 12.606,7.447 L10.5,3.236 L8.394,7.447 C8.055,8.125 6.945,8.125 6.606,7.447 L4.5,3.236 L2.394,7.447 C2.305,7.626 2.167,7.769 2,7.866 L2,50 L2,50 Z" id="Fill-895" fill="#535353" sketch:type="MSShapeGroup"></path>
                    <path d="M33,20 L19,20 C18.447,20 18,19.553 18,19 C18,18.447 18.447,18 19,18 L33,18 C33.553,18 34,18.447 34,19 C34,19.553 33.553,20 33,20" id="Fill-896" fill="#535353" sketch:type="MSShapeGroup"></path>
                    <path d="M33,25 L19,25 C18.447,25 18,24.553 18,24 C18,23.447 18.447,23 19,23 L33,23 C33.553,23 34,23.447 34,24 C34,24.553 33.553,25 33,25" id="Fill-897" fill="#535353" sketch:type="MSShapeGroup"></path>
                    <path d="M33,30 L19,30 C18.447,30 18,29.553 18,29 C18,28.447 18.447,28 19,28 L33,28 C33.553,28 34,28.447 34,29 C34,29.553 33.553,30 33,30" id="Fill-898" fill="#535353" sketch:type="MSShapeGroup"></path>
                    <path d="M33,35 L19,35 C18.447,35 18,34.553 18,34 C18,33.447 18.447,33 19,33 L33,33 C33.553,33 34,33.447 34,34 C34,34.553 33.553,35 33,35" id="Fill-899" fill="#535353" sketch:type="MSShapeGroup"></path>
                    <path d="M10.07,34.557 C9.923,34.557 9.774,34.523 9.639,34.459 L5.375,32.418 C4.877,32.179 4.666,31.582 4.904,31.084 C5.143,30.585 5.738,30.375 6.238,30.613 L9.507,32.178 L13.393,21.462 C13.581,20.943 14.155,20.677 14.674,20.862 C15.193,21.051 15.461,21.624 15.273,22.144 L11.011,33.897 C10.914,34.163 10.71,34.375 10.449,34.482 C10.327,34.532 10.199,34.557 10.07,34.557" id="Fill-900" fill="#535353" sketch:type="MSShapeGroup"></path>
                    <g id="Group-903" transform="translate(18.000000, 38.000000)">
                        <g id="mask-2" fill="#FFFFFF" sketch:type="MSShapeGroup">
                            <path d="M0,0 L16,0 L16,6 L0,6 L0,0 L0,0 Z" id="path-1"></path>
                        </g>
                        <g id="Clip-902"></g>
                        <g id="Fill-901-Clipped">
                            <mask id="mask-2" sketch:name="path-1" fill="white">
                                <use xlink:href="#path-1"></use>
                            </mask>
                            <g id="path-1"></g>
                            <path d="M16,8 L0,8 C-1.104,8 -2,7.104 -2,6 L-2,0 C-2,-1.105 -1.104,-2 0,-2 L16,-2 C17.104,-2 18,-1.105 18,0 L18,6 C18,7.104 17.104,8 16,8 L16,8 L16,8 Z M2,4 L14,4 L14,2 L2,2 L2,4 L2,4 Z" id="Fill-901" fill="#535353" sketch:type="MSShapeGroup" mask="url(#mask-2)"></path>
                        </g>
                    </g>
                </g>
            </g>
        </g>
    </g>
</svg>