<?xml version="1.0" encoding="UTF-8" standalone="no"?>
<svg width="60px" height="60px" viewBox="0 0 60 60" version="1.1" xmlns="http://www.w3.org/2000/svg" xmlns:xlink="http://www.w3.org/1999/xlink" xmlns:sketch="http://www.bohemiancoding.com/sketch/ns">
    <!-- Generator: Sketch 3.3.3 (12081) - http://www.bohemiancoding.com/sketch -->
    <title>Browsertool</title>
    <desc>Created with Sketch.</desc>
    <defs></defs>
    <g id="colored" stroke="none" stroke-width="1" fill="none" fill-rule="evenodd" sketch:type="MSPage">
        <g id="Tech_sliced" sketch:type="MSLayerGroup" transform="translate(-720.000000, -840.000000)"></g>
        <g id="Imported-Layers" sketch:type="MSLayerGroup" transform="translate(-719.000000, -838.000000)" fill="#535353">
            <path d="M720,852 L778,852 L778,892 L720,892 L720,852 Z M722,890 L776,890 L776,854 L722,854 L722,890 Z" id="Fill-481" sketch:type="MSShapeGroup"></path>
            <path d="M720,844 L778,844 L778,854 L720,854 L720,844 Z M722,852 L776,852 L776,846 L722,846 L722,852 Z" id="Fill-482" sketch:type="MSShapeGroup"></path>
            <path d="M725,851 C723.898,851 723,850.103 723,849 C723,847.897 723.898,847 725,847 C726.102,847 727,847.897 727,849 C727,850.103 726.102,851 725,851" id="Fill-483" sketch:type="MSShapeGroup"></path>
            <path d="M730,851 C728.897,851 728,850.103 728,849 C728,847.897 728.897,847 730,847 C731.102,847 732,847.897 732,849 C732,850.103 731.102,851 730,851" id="Fill-484" sketch:type="MSShapeGroup"></path>
            <path d="M735,851 C733.898,851 733,850.103 733,849 C733,847.897 733.898,847 735,847 C736.102,847 737,847.897 737,849 C737,850.103 736.102,851 735,851" id="Fill-485" sketch:type="MSShapeGroup"></path>
            <path d="M738.619,887.573 C738.354,887.573 738.1,887.468 737.912,887.28 L733.723,883.091 C733.528,882.896 733.422,882.63 733.43,882.355 C733.437,882.08 733.559,881.821 733.764,881.638 L746.567,870.219 C744.754,866.75 745.379,862.405 748.193,859.59 C749.908,857.875 752.188,856.931 754.612,856.931 C755.523,856.931 756.426,857.067 757.295,857.335 C757.63,857.438 757.886,857.709 757.971,858.05 C758.055,858.39 757.955,858.75 757.707,858.998 L752.6,864.105 L756.517,868.022 L761.624,862.915 C761.872,862.667 762.234,862.567 762.571,862.651 C762.912,862.735 763.184,862.992 763.286,863.327 C764.282,866.554 763.418,870.042 761.031,872.428 C759.317,874.143 757.037,875.087 754.612,875.087 C753.333,875.087 752.066,874.816 750.906,874.298 L739.365,887.238 C739.183,887.444 738.923,887.564 738.647,887.572 C738.638,887.573 738.629,887.573 738.619,887.573 L738.619,887.573 Z M735.886,882.425 L738.577,885.117 L749.923,872.396 C750.236,872.046 750.75,871.961 751.157,872.189 C752.207,872.776 753.401,873.087 754.612,873.087 C756.503,873.087 758.28,872.351 759.617,871.014 C761.048,869.583 761.777,867.646 761.685,865.682 L757.224,870.144 C756.849,870.519 756.185,870.519 755.81,870.144 L750.479,864.812 C750.088,864.421 750.088,863.789 750.479,863.398 L754.938,858.939 C752.938,858.839 751.021,859.591 749.607,861.004 C747.253,863.36 746.863,867.09 748.681,869.874 C748.951,870.288 748.879,870.837 748.51,871.167 L735.886,882.425 L735.886,882.425 Z" id="Fill-486" sketch:type="MSShapeGroup"></path>
        </g>
    </g>
</svg>