<?xml version="1.0" encoding="UTF-8" standalone="no"?>
<svg width="60px" height="60px" viewBox="0 0 60 60" version="1.1" xmlns="http://www.w3.org/2000/svg" xmlns:xlink="http://www.w3.org/1999/xlink" xmlns:sketch="http://www.bohemiancoding.com/sketch/ns">
    <!-- Generator: Sketch 3.3.3 (12081) - http://www.bohemiancoding.com/sketch -->
    <title>Businessman</title>
    <desc>Created with Sketch.</desc>
    <defs></defs>
    <g id="outlined" stroke="none" stroke-width="1" fill="none" fill-rule="evenodd" sketch:type="MSPage">
        <g id="Marketing_sliced" sketch:type="MSLayerGroup" transform="translate(-120.000000, -960.000000)"></g>
        <g id="Imported-Layers" sketch:type="MSLayerGroup" transform="translate(-118.000000, -951.000000)" fill="#535353">
            <path d="M134,979 C129.324,979 125.231,975.717 123.657,970.769 C122.085,970.212 121,968.716 121,967 C121,965.413 121.94,963.993 123.351,963.355 C124.595,957.9 128.994,954 134,954 C139.006,954 143.405,957.9 144.649,963.355 C146.06,963.993 147,965.413 147,967 C147,968.716 145.915,970.212 144.343,970.769 C142.769,975.717 138.676,979 134,979 L134,979 Z M134,956 C129.787,956 126.086,959.484 125.201,964.285 C125.131,964.664 124.849,964.969 124.477,965.069 C123.607,965.303 123,966.098 123,967 C123,967.967 123.689,968.794 124.637,968.968 C125.016,969.036 125.321,969.316 125.423,969.688 C126.618,974.062 130.065,977 134,977 C137.935,977 141.382,974.062 142.577,969.688 C142.679,969.316 142.984,969.036 143.363,968.968 C144.311,968.794 145,967.967 145,967 C145,966.098 144.393,965.303 143.523,965.069 C143.15,964.969 142.869,964.664 142.799,964.285 C141.914,959.484 138.214,956 134,956 L134,956 Z" id="Fill-664" sketch:type="MSShapeGroup"></path>
            <path d="M163,998 C158.324,998 154.231,994.717 152.657,989.769 C151.085,989.212 150,987.716 150,986 C150,984.413 150.94,982.993 152.351,982.356 C153.595,976.9 157.994,973 163,973 C168.006,973 172.405,976.9 173.649,982.356 C175.06,982.993 176,984.413 176,986 C176,987.716 174.915,989.212 173.343,989.769 C171.769,994.717 167.676,998 163,998 L163,998 Z M163,975 C158.787,975 155.086,978.484 154.201,983.285 C154.131,983.664 153.849,983.969 153.477,984.069 C152.607,984.303 152,985.098 152,986 C152,986.967 152.689,987.794 153.637,987.968 C154.016,988.036 154.321,988.316 154.423,988.688 C155.618,993.062 159.065,996 163,996 C166.935,996 170.382,993.062 171.577,988.688 C171.679,988.316 171.984,988.036 172.363,987.968 C173.312,987.794 174,986.967 174,986 C174,985.098 173.393,984.303 172.522,984.069 C172.15,983.969 171.869,983.664 171.799,983.285 C170.914,978.484 167.214,975 163,975 L163,975 Z" id="Fill-665" sketch:type="MSShapeGroup"></path>
            <path d="M145,990 L123,990 C122.448,990 122,989.553 122,989 C122,982.383 127.383,977 134,977 C140.617,977 146,982.383 146,989 C146,989.553 145.552,990 145,990 L145,990 Z M124.05,988 L143.95,988 C143.447,982.954 139.176,979 134,979 C128.824,979 124.553,982.954 124.05,988 L124.05,988 Z" id="Fill-666" sketch:type="MSShapeGroup"></path>
            <path d="M174,1009 L152,1009 C151.448,1009 151,1008.553 151,1008 C151,1001.383 156.383,996 163,996 C169.617,996 175,1001.383 175,1008 C175,1008.553 174.552,1009 174,1009 L174,1009 Z M153.05,1007 L172.95,1007 C172.447,1001.954 168.176,998 163,998 C157.824,998 153.553,1001.954 153.05,1007 L153.05,1007 Z" id="Fill-667" sketch:type="MSShapeGroup"></path>
            <path d="M147,957 L164.033,957 L164.033,959 L147,959 L147,957 Z" id="Fill-668" sketch:type="MSShapeGroup"></path>
            <path d="M162,957 L164,957 L164,970.045 L162,970.045 L162,957 Z" id="Fill-669" sketch:type="MSShapeGroup"></path>
        </g>
    </g>
</svg>