<?xml version="1.0" encoding="UTF-8" standalone="no"?>
<svg width="52px" height="50px" viewBox="0 0 52 50" version="1.1" xmlns="http://www.w3.org/2000/svg" xmlns:xlink="http://www.w3.org/1999/xlink" xmlns:sketch="http://www.bohemiancoding.com/sketch/ns">
    <!-- Generator: Sketch 3.3.3 (12072) - http://www.bohemiancoding.com/sketch -->
    <title>Imported-Layers</title>
    <desc>Created with Sketch.</desc>
    <defs></defs>
    <g id="Page-1" stroke="none" stroke-width="1" fill="none" fill-rule="evenodd" sketch:type="MSPage">
        <g id="Chart" sketch:type="MSLayerGroup" transform="translate(-124.000000, -1206.000000)" fill="#535353">
            <g id="outlined" sketch:type="MSShapeGroup">
                <g id="Imported-Layers" transform="translate(124.000000, 1206.000000)">
                    <path d="M0,42 L2,42 L2,48 L0,48 L0,42 L0,42 Z M0,34 L2,34 L2,40 L0,40 L0,34 L0,34 Z M0,26 L2,26 L2,32 L0,32 L0,26 L0,26 Z M0,18 L2,18 L2,24 L0,24 L0,18 L0,18 Z M0,10 L2,10 L2,16 L0,16 L0,10 L0,10 Z M0,2 L2,2 L2,8 L0,8 L0,2 L0,2 Z" id="Fill-833"></path>
                    <path d="M3,48 L52,48 L52,50 L3,50 L3,48 L3,48 Z" id="Fill-834"></path>
                    <path d="M3,0 L52,0 L52,2 L3,2 L3,0 L3,0 Z" id="Fill-835"></path>
                    <path d="M15,45 L9,45 C8.448,45 8,44.553 8,44 L8,29 C8,28.447 8.448,28 9,28 L15,28 C15.552,28 16,28.447 16,29 L16,44 C16,44.553 15.552,45 15,45 L15,45 L15,45 Z M10,43 L14,43 L14,30 L10,30 L10,43 L10,43 Z" id="Fill-836"></path>
                    <path d="M35,45 L29,45 C28.448,45 28,44.553 28,44 L28,22 C28,21.447 28.448,21 29,21 L35,21 C35.552,21 36,21.447 36,22 L36,44 C36,44.553 35.552,45 35,45 L35,45 L35,45 Z M30,43 L34,43 L34,23 L30,23 L30,43 L30,43 Z" id="Fill-837"></path>
                    <path d="M25,45 L19,45 C18.448,45 18,44.553 18,44 L18,12 C18,11.447 18.448,11 19,11 L25,11 C25.552,11 26,11.447 26,12 L26,44 C26,44.553 25.552,45 25,45 L25,45 L25,45 Z M20,43 L24,43 L24,13 L20,13 L20,43 L20,43 Z" id="Fill-838"></path>
                    <path d="M45,45 L39,45 C38.448,45 38,44.553 38,44 L38,37 C38,36.447 38.448,36 39,36 L45,36 C45.552,36 46,36.447 46,37 L46,44 C46,44.553 45.552,45 45,45 L45,45 L45,45 Z M40,43 L44,43 L44,38 L40,38 L40,43 L40,43 Z" id="Fill-839"></path>
                </g>
            </g>
        </g>
    </g>
</svg>