<?xml version="1.0" encoding="UTF-8" standalone="no"?>
<svg width="60px" height="60px" viewBox="0 0 60 60" version="1.1" xmlns="http://www.w3.org/2000/svg" xmlns:xlink="http://www.w3.org/1999/xlink" xmlns:sketch="http://www.bohemiancoding.com/sketch/ns">
    <!-- Generator: Sketch 3.3.3 (12081) - http://www.bohemiancoding.com/sketch -->
    <title>Circuitboard</title>
    <desc>Created with Sketch.</desc>
    <defs></defs>
    <g id="colored" stroke="none" stroke-width="1" fill="none" fill-rule="evenodd" sketch:type="MSPage">
        <g id="Tech_sliced" sketch:type="MSLayerGroup"></g>
        <g id="Imported-Layers" sketch:type="MSLayerGroup" transform="translate(1.000000, 2.000000)" fill="#535353">
            <path d="M14,23 C10.691,23 8,20.309 8,17 C8,13.691 10.691,11 14,11 C17.309,11 20,13.691 20,17 C20,20.309 17.309,23 14,23 L14,23 Z M14,13 C11.794,13 10,14.794 10,17 C10,19.206 11.794,21 14,21 C16.206,21 18,19.206 18,17 C18,14.794 16.206,13 14,13 L14,13 Z" id="Fill-1" sketch:type="MSShapeGroup"></path>
            <path d="M51,30 C47.691,30 45,27.309 45,24 C45,20.691 47.691,18 51,18 C54.309,18 57,20.691 57,24 C57,27.309 54.309,30 51,30 L51,30 Z M51,20 C48.794,20 47,21.794 47,24 C47,26.206 48.794,28 51,28 C53.206,28 55,26.206 55,24 C55,21.794 53.206,20 51,20 L51,20 Z" id="Fill-2" sketch:type="MSShapeGroup"></path>
            <path d="M51,44 C47.691,44 45,41.309 45,38 C45,34.691 47.691,32 51,32 C54.309,32 57,34.691 57,38 C57,41.309 54.309,44 51,44 L51,44 Z M51,34 C48.794,34 47,35.794 47,38 C47,40.206 48.794,42 51,42 C53.206,42 55,40.206 55,38 C55,35.794 53.206,34 51,34 L51,34 Z" id="Fill-3" sketch:type="MSShapeGroup"></path>
            <path d="M7,39 C3.691,39 1,36.309 1,33 C1,29.691 3.691,27 7,27 C10.309,27 13,29.691 13,33 C13,36.309 10.309,39 7,39 L7,39 Z M7,29 C4.794,29 3,30.794 3,33 C3,35.206 4.794,37 7,37 C9.206,37 11,35.206 11,33 C11,30.794 9.206,29 7,29 L7,29 Z" id="Fill-4" sketch:type="MSShapeGroup"></path>
            <path d="M30,54 L28,54 L28,23.006 C28,20.797 26.206,19 24,19 L19,19 L19,17 L24,17 C27.309,17 30,19.694 30,23.006 L30,54" id="Fill-5" sketch:type="MSShapeGroup"></path>
            <path d="M23,54 L21,54 L21,38.003 C21,35.796 19.206,34 17,34 L12,34 L12,32 L17,32 C20.309,32 23,34.693 23,38.003 L23,54" id="Fill-6" sketch:type="MSShapeGroup"></path>
            <path d="M37,54 L35,54 L35,42.997 C35,39.69 37.691,37 41,37 L46,37 L46,39 L41,39 C38.794,39 37,40.793 37,42.997 L37,54" id="Fill-7" sketch:type="MSShapeGroup"></path>
            <path d="M45.72,25 L41.865,25 C39.188,25 37.01,22.821 37.01,20.144 L37.01,5 L39.01,5 L39.01,20.144 C39.01,21.719 40.291,23 41.865,23 L45.72,23 L45.72,25" id="Fill-8" sketch:type="MSShapeGroup"></path>
        </g>
    </g>
</svg>