<?xml version="1.0" encoding="UTF-8" standalone="no"?>
<svg width="60px" height="60px" viewBox="0 0 60 60" version="1.1" xmlns="http://www.w3.org/2000/svg" xmlns:xlink="http://www.w3.org/1999/xlink" xmlns:sketch="http://www.bohemiancoding.com/sketch/ns">
    <!-- Generator: Sketch 3.3.3 (12081) - http://www.bohemiancoding.com/sketch -->
    <title>Classicphone</title>
    <desc>Created with Sketch.</desc>
    <defs>
        <path id="path-1" d="M19.914,9.463 L10.823,0.372 L4.486,6.075 C0.177,9.954 -0.388,16.763 3.228,21.282 C3.228,21.282 4.813,24.06 15.773,35.02 C26.733,45.98 29.498,47.554 29.498,47.554 C33.974,51.223 40.838,50.617 44.718,46.307 L50.421,39.97 L41.33,30.879 L34.795,35.709 C33.464,36.693 31.439,36.544 30.27,35.375 L15.417,20.523 C14.249,19.354 14.102,17.325 15.084,15.998 L19.914,9.463"></path>
    </defs>
    <g id="outlined" stroke="none" stroke-width="1" fill="none" fill-rule="evenodd" sketch:type="MSPage">
        <g id="Marketing_sliced" sketch:type="MSLayerGroup" transform="translate(0.000000, -1680.000000)"></g>
        <g id="Imported-Layers" sketch:type="MSLayerGroup" transform="translate(2.000000, -1671.000000)">
            <g id="Group-1934" transform="translate(2.000000, 1676.000000)">
                <mask id="mask-2" sketch:name="Clip 1933" fill="white">
                    <use xlink:href="#path-1"></use>
                </mask>
                <g id="Clip-1933"></g>
                <path d="M10.496,-7.026 L57.819,40.297 L35.899,62.217 L-11.425,14.894 L10.496,-7.026" id="Fill-1932" fill="#D8D8D8" sketch:type="MSShapeGroup" mask="url(#mask-2)"></path>
            </g>
            <path d="M38.372,1726.963 C35.627,1726.963 32.982,1726.043 30.917,1724.371 C30.362,1724.019 27.105,1721.767 17.066,1711.727 C6.988,1701.649 4.749,1698.396 4.408,1697.857 C0.516,1692.939 1.142,1685.539 5.817,1681.332 L12.154,1675.629 C12.548,1675.271 13.154,1675.289 13.53,1675.665 L22.621,1684.756 C22.971,1685.105 23.013,1685.659 22.718,1686.058 L17.888,1692.593 C17.2,1693.523 17.308,1694.999 18.125,1695.815 L32.978,1710.669 C33.764,1711.453 35.302,1711.569 36.201,1710.905 L42.736,1706.075 C43.134,1705.778 43.688,1705.822 44.037,1706.172 L53.128,1715.263 C53.504,1715.639 53.52,1716.243 53.164,1716.639 L47.461,1722.976 C45.181,1725.51 41.868,1726.963 38.372,1726.963 L38.372,1726.963 Z M12.787,1677.75 L7.155,1682.818 C3.238,1686.344 2.723,1692.551 6.008,1696.656 C6.041,1696.697 6.07,1696.74 6.096,1696.786 C6.16,1696.893 7.897,1699.729 18.48,1710.314 C29.061,1720.894 31.887,1722.622 32.001,1722.69 C32.045,1722.716 32.094,1722.749 32.132,1722.781 C33.849,1724.188 36.065,1724.963 38.372,1724.963 C41.302,1724.963 44.073,1723.751 45.975,1721.638 L51.043,1716.006 L43.232,1708.195 L37.39,1712.513 C36.652,1713.059 35.713,1713.359 34.747,1713.359 C33.536,1713.359 32.375,1712.894 31.564,1712.083 L16.71,1697.229 C15.183,1695.702 14.993,1693.144 16.279,1691.403 L20.598,1685.561 L12.787,1677.75 L12.787,1677.75 Z" id="Fill-1935" fill="#535353" sketch:type="MSShapeGroup"></path>
        </g>
    </g>
</svg>