<?xml version="1.0" encoding="UTF-8" standalone="no"?>
<svg width="60px" height="60px" viewBox="0 0 60 60" version="1.1" xmlns="http://www.w3.org/2000/svg" xmlns:xlink="http://www.w3.org/1999/xlink" xmlns:sketch="http://www.bohemiancoding.com/sketch/ns">
    <!-- Generator: Sketch 3.3.3 (12081) - http://www.bohemiancoding.com/sketch -->
    <title>Effects</title>
    <desc>Created with Sketch.</desc>
    <defs></defs>
    <g id="colored" stroke="none" stroke-width="1" fill="none" fill-rule="evenodd" sketch:type="MSPage">
        <g id="Photo_sliced" sketch:type="MSLayerGroup" transform="translate(-360.000000, -720.000000)"></g>
        <g id="Imported-Layers" sketch:type="MSLayerGroup" transform="translate(-360.000000, -718.000000)" fill="#535353">
            <path d="M400,775 C390.626,775 383,767.374 383,758 C383,748.626 390.626,741 400,741 C409.374,741 417,748.626 417,758 C417,767.374 409.374,775 400,775 L400,775 Z M400,743 C391.729,743 385,749.728 385,758 C385,766.271 391.729,773 400,773 C408.271,773 415,766.271 415,758 C415,749.728 408.271,743 400,743 L400,743 Z" id="Fill-325" sketch:type="MSShapeGroup"></path>
            <path d="M374.989,743.55 C374.582,743.55 374.2,743.301 374.051,742.896 C373.353,741.012 373,739.027 373,737 C373,727.626 380.626,720 390,720 C399.374,720 407,727.626 407,737 C407,738.794 406.722,740.561 406.173,742.252 C406.003,742.777 405.439,743.066 404.913,742.894 C404.388,742.724 404.1,742.16 404.27,741.635 C404.754,740.144 405,738.584 405,737 C405,728.728 398.271,722 390,722 C381.729,722 375,728.728 375,737 C375,738.79 375.312,740.54 375.927,742.203 C376.118,742.721 375.853,743.296 375.335,743.487 C375.221,743.53 375.104,743.55 374.989,743.55" id="Fill-326" sketch:type="MSShapeGroup"></path>
            <path d="M380,775 C370.626,775 363,767.374 363,758 C363,748.626 370.626,741 380,741 C383.901,741 387.57,742.285 390.61,744.717 C391.042,745.062 391.112,745.691 390.767,746.123 C390.422,746.554 389.791,746.623 389.361,746.279 C386.679,744.134 383.442,743 380,743 C371.729,743 365,749.728 365,758 C365,766.271 371.729,773 380,773 C383.447,773 386.813,771.803 389.478,769.628 C389.906,769.279 390.536,769.344 390.885,769.77 C391.234,770.198 391.17,770.828 390.742,771.177 C387.721,773.643 383.906,775 380,775" id="Fill-327" sketch:type="MSShapeGroup"></path>
        </g>
    </g>
</svg>