<?xml version="1.0" encoding="UTF-8" standalone="no"?>
<svg width="60px" height="60px" viewBox="0 0 60 60" version="1.1" xmlns="http://www.w3.org/2000/svg" xmlns:xlink="http://www.w3.org/1999/xlink" xmlns:sketch="http://www.bohemiancoding.com/sketch/ns">
    <!-- Generator: Sketch 3.3.3 (12081) - http://www.bohemiancoding.com/sketch -->
    <title>Headset</title>
    <desc>Created with Sketch.</desc>
    <defs>
        <path id="path-1" d="M0,22 L0,11 C0,4.925 4.922,0 11.002,0 L23.998,0 C30.074,0 35,4.923 35,11 L35,22"></path>
    </defs>
    <g id="outlined" stroke="none" stroke-width="1" fill="none" fill-rule="evenodd" sketch:type="MSPage">
        <g id="Marketing_sliced" sketch:type="MSLayerGroup" transform="translate(-240.000000, -1680.000000)"></g>
        <g id="Imported-Layers" sketch:type="MSLayerGroup" transform="translate(-238.000000, -1671.000000)">
            <path d="M256,1719 L251,1719 C247.691,1719 245,1716.31 245,1713.005 L245,1702.995 C245,1699.689 247.691,1697 251,1697 L256,1697 C256.552,1697 257,1697.447 257,1698 L257,1718 C257,1718.553 256.552,1719 256,1719 L256,1719 Z M251,1699 C248.794,1699 247,1700.792 247,1702.995 L247,1713.005 C247,1715.208 248.794,1717 251,1717 L255,1717 L255,1699 L251,1699 L251,1699 Z" id="Fill-1191" fill="#535353" sketch:type="MSShapeGroup"></path>
            <path d="M288,1719 L283,1719 C282.448,1719 282,1718.553 282,1718 L282,1698 C282,1697.447 282.448,1697 283,1697 L288,1697 C291.309,1697 294,1699.689 294,1702.995 L294,1713.005 C294,1716.31 291.309,1719 288,1719 L288,1719 Z M284,1717 L288,1717 C290.206,1717 292,1715.208 292,1713.005 L292,1702.995 C292,1700.792 290.206,1699 288,1699 L284,1699 L284,1717 L284,1717 Z" id="Fill-1192" fill="#535353" sketch:type="MSShapeGroup"></path>
            <g id="Group-1195" transform="translate(252.000000, 1676.000000)">
                <mask id="mask-2" sketch:name="Clip 1194" fill="white">
                    <use xlink:href="#path-1"></use>
                </mask>
                <g id="Clip-1194"></g>
                <path d="M35,24 C33.896,24 33,23.104 33,22 L33,11 C33,6.037 28.962,2 23.998,2 L11.002,2 C6.038,2 2,6.037 2,11 L2,22 C2,23.104 1.104,24 0,24 C-1.104,24 -2,23.104 -2,22 L-2,11 C-2,3.832 3.833,-2 11.002,-2 L23.998,-2 C31.168,-2 37,3.832 37,11 L37,22 C37,23.104 36.104,24 35,24" id="Fill-1193" fill="#535353" sketch:type="MSShapeGroup" mask="url(#mask-2)"></path>
            </g>
            <path d="M272.5,1727.5 C271.948,1727.5 271.5,1727.053 271.5,1726.5 C271.5,1725.947 271.948,1725.5 272.5,1725.5 C277.978,1725.5 281.873,1724.309 283.765,1722.054 C285.32,1720.2 285.019,1718.193 285.015,1718.174 C284.919,1717.63 285.282,1717.111 285.826,1717.016 C286.369,1716.913 286.889,1717.282 286.985,1717.826 C287.006,1717.944 287.47,1720.749 285.297,1723.339 C282.981,1726.1 278.675,1727.5 272.5,1727.5" id="Fill-1196" fill="#535353" sketch:type="MSShapeGroup"></path>
            <path d="M270.002,1729 L267.998,1729 C266.345,1729 265,1727.654 265,1726 C265,1724.346 266.345,1723 267.998,1723 L270.002,1723 C271.655,1723 273,1724.346 273,1726 C273,1727.654 271.655,1729 270.002,1729 L270.002,1729 Z M267.998,1725 C267.448,1725 267,1725.448 267,1726 C267,1726.56 267.439,1727 267.998,1727 L270.002,1727 C270.552,1727 271,1726.552 271,1726 C271,1725.44 270.562,1725 270.002,1725 L267.998,1725 L267.998,1725 Z" id="Fill-1197" fill="#535353" sketch:type="MSShapeGroup"></path>
        </g>
    </g>
</svg>