<?xml version="1.0" encoding="UTF-8" standalone="no"?>
<svg width="60px" height="60px" viewBox="0 0 60 60" version="1.1" xmlns="http://www.w3.org/2000/svg" xmlns:xlink="http://www.w3.org/1999/xlink" xmlns:sketch="http://www.bohemiancoding.com/sketch/ns">
    <!-- Generator: Sketch 3.3.3 (12081) - http://www.bohemiancoding.com/sketch -->
    <title>Heartarrow</title>
    <desc>Created with Sketch.</desc>
    <defs></defs>
    <g id="colored" stroke="none" stroke-width="1" fill="none" fill-rule="evenodd" sketch:type="MSPage">
        <g id="Love_sliced" sketch:type="MSLayerGroup" transform="translate(-480.000000, -240.000000)"></g>
        <g id="Imported-Layers" sketch:type="MSLayerGroup" transform="translate(-480.000000, -239.000000)" fill="#535353">
            <path d="M511.521,288 L511.477,288 C508.949,288 491.449,272.184 491.449,264.689 C491.449,257.339 496.388,252.4 503.738,252.4 C506.589,252.4 509.312,253.374 511.5,255.16 C513.689,253.374 516.411,252.4 519.262,252.4 C526.612,252.4 531.551,257.339 531.551,264.689 C531.551,272.177 514.051,287.997 511.523,288 L511.521,288 L511.521,288 Z M503.738,254.4 C496.631,254.4 493.449,259.568 493.449,264.689 C493.449,267.364 496.463,272.036 501.717,277.507 C506.102,282.073 510.423,285.486 511.495,285.97 C514.037,284.848 529.551,270.941 529.551,264.689 C529.551,259.568 526.369,254.4 519.262,254.4 C516.618,254.4 514.106,255.4 512.187,257.217 C511.803,257.583 511.197,257.583 510.813,257.217 C508.894,255.4 506.382,254.4 503.738,254.4 L503.738,254.4 Z" id="Fill-112" sketch:type="MSShapeGroup"></path>
            <path d="M527.509,285.923 L511.586,270 L513,268.586 L528.923,284.509 L527.509,285.923" id="Fill-113" sketch:type="MSShapeGroup"></path>
            <path d="M497.512,255.926 L492.586,251 L494,249.586 L498.926,254.512 L497.512,255.926" id="Fill-114" sketch:type="MSShapeGroup"></path>
            <path d="M532.975,290.975 C532.869,290.975 532.762,290.958 532.658,290.923 L525.233,288.449 C524.905,288.339 524.656,288.067 524.576,287.73 C524.497,287.393 524.598,287.038 524.843,286.793 L529.793,281.843 C530.038,281.598 530.393,281.499 530.729,281.577 C531.067,281.657 531.339,281.905 531.448,282.234 L533.863,289.479 C533.947,289.625 533.994,289.794 533.994,289.975 C533.994,290.527 533.547,290.975 532.994,290.975 C532.989,290.975 532.981,290.974 532.975,290.975 L532.975,290.975 Z M527.401,287.063 L531.394,288.394 L530.062,284.401 L527.401,287.063 L527.401,287.063 Z" id="Fill-115" sketch:type="MSShapeGroup"></path>
            <path d="M491,253.243 C490.734,253.243 490.481,253.137 490.293,252.95 L485.344,248 L486.758,246.586 L491,250.829 L493.828,248 L489.586,243.757 L491,242.343 L495.949,247.293 C496.34,247.684 496.34,248.316 495.949,248.707 L491.707,252.95 C491.52,253.137 491.266,253.243 491,253.243" id="Fill-116" sketch:type="MSShapeGroup"></path>
        </g>
    </g>
</svg>