<?xml version="1.0" encoding="UTF-8" standalone="no"?>
<svg width="60px" height="60px" viewBox="0 0 60 60" version="1.1" xmlns="http://www.w3.org/2000/svg" xmlns:xlink="http://www.w3.org/1999/xlink" xmlns:sketch="http://www.bohemiancoding.com/sketch/ns">
    <!-- Generator: Sketch 3.3.3 (12081) - http://www.bohemiancoding.com/sketch -->
    <title>Lovetarget</title>
    <desc>Created with Sketch.</desc>
    <defs></defs>
    <g id="colored" stroke="none" stroke-width="1" fill="none" fill-rule="evenodd" sketch:type="MSPage">
        <g id="Love_sliced" sketch:type="MSLayerGroup" transform="translate(-720.000000, -240.000000)"></g>
        <g id="Imported-Layers" sketch:type="MSLayerGroup" transform="translate(-720.000000, -239.000000)" fill="#535353">
            <path d="M750,295 C735.663,295 724,283.336 724,269 C724,254.664 735.663,243 750,243 C764.337,243 776,254.664 776,269 C776,283.336 764.337,295 750,295 L750,295 Z M750,245 C736.767,245 726,255.767 726,269 C726,282.233 736.767,293 750,293 C763.233,293 774,282.233 774,269 C774,255.767 763.233,245 750,245 L750,245 Z" id="Fill-120" sketch:type="MSShapeGroup"></path>
            <path d="M749,291 L751,291 L751,299 L749,299 L749,291 Z M772,268 L780,268 L780,270 L772,270 L772,268 Z M720,268 L728,268 L728,270 L720,270 L720,268 Z M749,239 L751,239 L751,247 L749,247 L749,239 Z" id="Fill-121" sketch:type="MSShapeGroup"></path>
            <path d="M750.015,282.65 C750.003,282.649 749.992,282.649 749.984,282.65 C749.964,282.65 749.942,282.649 749.92,282.646 C749.914,282.646 749.908,282.645 749.902,282.645 C747.805,282.351 735.789,271.627 735.789,266.179 C735.789,260.98 739.42,257.35 744.618,257.35 C746.582,257.35 748.462,257.994 750,259.179 C751.537,257.994 753.417,257.35 755.382,257.35 C760.58,257.35 764.211,260.98 764.211,266.179 C764.211,271.627 752.171,282.37 750.091,282.645 L750.092,282.645 C750.087,282.646 750.083,282.646 750.078,282.646 C750.057,282.649 750.035,282.65 750.016,282.65 C750.016,282.65 750.016,282.65 750.015,282.65 L750.015,282.65 Z M744.618,259.35 C740.47,259.35 737.789,262.03 737.789,266.179 C737.789,270.277 747.984,279.486 749.991,280.589 C750.902,280.071 753.744,277.769 756.624,274.764 C760.175,271.062 762.211,267.933 762.211,266.179 C762.211,262.03 759.53,259.35 755.382,259.35 C753.627,259.35 751.96,260.014 750.687,261.22 C750.303,261.585 749.697,261.585 749.312,261.22 C748.039,260.014 746.372,259.35 744.618,259.35 L744.618,259.35 Z" id="Fill-122" sketch:type="MSShapeGroup"></path>
        </g>
    </g>
</svg>