<?xml version="1.0" encoding="UTF-8" standalone="no"?>
<svg width="60px" height="60px" viewBox="0 0 60 60" version="1.1" xmlns="http://www.w3.org/2000/svg" xmlns:xlink="http://www.w3.org/1999/xlink" xmlns:sketch="http://www.bohemiancoding.com/sketch/ns">
    <!-- Generator: Sketch 3.3.3 (12081) - http://www.bohemiancoding.com/sketch -->
    <title>Message</title>
    <desc>Created with Sketch.</desc>
    <defs></defs>
    <g id="colored" stroke="none" stroke-width="1" fill="none" fill-rule="evenodd" sketch:type="MSPage">
        <g id="Tech_sliced" sketch:type="MSLayerGroup" transform="translate(-120.000000, -480.000000)"></g>
        <g id="Imported-Layers" sketch:type="MSLayerGroup" transform="translate(-119.000000, -478.000000)" fill="#535353">
            <path d="M148.397,529.16 C148.255,529.16 148.112,529.13 147.978,529.068 C147.624,528.905 147.397,528.55 147.397,528.16 L147.397,518 L128.006,518 C126.349,518 125,516.658 125,515.008 L125,488.992 C125,487.342 126.349,486 128.006,486 L169.994,486 C171.651,486 173,487.342 173,488.992 L173,515.008 C173,516.658 171.651,518 169.994,518 L161.85,518 L149.046,528.921 C148.861,529.079 148.63,529.16 148.397,529.16 L148.397,529.16 Z M128.006,488 C127.452,488 127,488.445 127,488.992 L127,515.008 C127,515.555 127.452,516 128.006,516 L148.397,516 C148.949,516 149.397,516.448 149.397,517 L149.397,525.993 L160.832,516.239 C161.013,516.085 161.243,516 161.481,516 L169.994,516 C170.548,516 171,515.555 171,515.008 L171,488.992 C171,488.445 170.548,488 169.994,488 L128.006,488 L128.006,488 Z" id="Fill-255" sketch:type="MSShapeGroup"></path>
            <path d="M131.5,491 L162,491 L162,493 L131.5,493 L131.5,491 Z" id="Fill-256" sketch:type="MSShapeGroup"></path>
            <path d="M131.5,496 L155.5,496 L155.5,498 L131.5,498 L131.5,496 Z" id="Fill-257" sketch:type="MSShapeGroup"></path>
            <path d="M131.5,501 L167,501 L167,503 L131.5,503 L131.5,501 Z" id="Fill-258" sketch:type="MSShapeGroup"></path>
            <path d="M131.5,506 L155.5,506 L155.5,508 L131.5,508 L131.5,506 Z" id="Fill-259" sketch:type="MSShapeGroup"></path>
            <path d="M131.5,511 L155.5,511 L155.5,513 L131.5,513 L131.5,511 Z" id="Fill-260" sketch:type="MSShapeGroup"></path>
        </g>
    </g>
</svg>