<?xml version="1.0" encoding="UTF-8" standalone="no"?>
<svg width="57px" height="51px" viewBox="0 0 57 51" version="1.1" xmlns="http://www.w3.org/2000/svg" xmlns:xlink="http://www.w3.org/1999/xlink" xmlns:sketch="http://www.bohemiancoding.com/sketch/ns">
    <!-- Generator: Sketch 3.3.3 (12072) - http://www.bohemiancoding.com/sketch -->
    <title>Imported-Layers</title>
    <desc>Created with Sketch.</desc>
    <defs></defs>
    <g id="Page-1" stroke="none" stroke-width="1" fill="none" fill-rule="evenodd" sketch:type="MSPage">
        <g id="Paperdesk" sketch:type="MSLayerGroup" transform="translate(-482.000000, -485.000000)" fill="#535353">
            <g id="outlined" sketch:type="MSShapeGroup">
                <g id="Imported-Layers" transform="translate(481.000000, 485.000000)">
                    <path d="M57,51 L2,51 C1.447,51 1,50.552 1,50 L1,30 C1,29.448 1.447,29 2,29 L57,29 C57.553,29 58,29.448 58,30 L58,50 C58,50.552 57.553,51 57,51 L57,51 L57,51 Z M3,49 L56,49 L56,31 L3,31 L3,49 L3,49 Z" id="Fill-326"></path>
                    <path d="M21,34 L38,34 L38,36 L21,36 L21,34 L21,34 Z" id="Fill-327"></path>
                    <path d="M36,31 L12,31 C11.447,31 11,30.552 11,30 L11,10 C11,9.448 11.447,9 12,9 L36,9 C36.553,9 37,9.448 37,10 L37,30 C37,30.552 36.553,31 36,31 L36,31 L36,31 Z M13,29 L35,29 L35,11 L13,11 L13,29 L13,29 Z" id="Fill-328"></path>
                    <path d="M39,30.827 C38.447,30.827 38,30.379 38,29.827 L38,8 L15,8 C14.447,8 14,7.553 14,7 C14,6.448 14.447,6 15,6 L39,6 C39.553,6 40,6.448 40,7 L40,29.827 C40,30.379 39.553,30.827 39,30.827" id="Fill-329"></path>
                    <path d="M42,30.91 C41.447,30.91 41,30.462 41,29.91 L41,5 L18,5 C17.447,5 17,4.552 17,4 C17,3.448 17.447,3 18,3 L42,3 C42.553,3 43,3.448 43,4 L43,29.91 C43,30.462 42.553,30.91 42,30.91" id="Fill-330"></path>
                    <path d="M45,30.864 C44.447,30.864 44,30.416 44,29.864 L44,2 L21,2 C20.447,2 20,1.552 20,1 C20,0.448 20.447,0 21,0 L45,0 C45.553,0 46,0.448 46,1 L46,29.864 C46,30.416 45.553,30.864 45,30.864" id="Fill-331"></path>
                    <path d="M56.909,30.893 C56.544,30.893 56.191,30.692 56.016,30.344 L51.376,21.157 C51.127,20.664 51.325,20.062 51.817,19.813 C52.31,19.562 52.912,19.762 53.161,20.255 L57.801,29.442 C58.05,29.935 57.852,30.537 57.359,30.786 C57.215,30.859 57.061,30.893 56.909,30.893" id="Fill-332"></path>
                    <path d="M1.999,30.893 C1.848,30.893 1.693,30.859 1.549,30.786 C1.057,30.537 0.858,29.935 1.107,29.442 L5.747,20.255 C5.996,19.763 6.598,19.563 7.091,19.813 C7.583,20.062 7.781,20.664 7.532,21.157 L2.893,30.344 C2.717,30.692 2.364,30.893 1.999,30.893" id="Fill-333"></path>
                </g>
            </g>
        </g>
    </g>
</svg>