<?xml version="1.0" encoding="UTF-8" standalone="no"?>
<svg width="60px" height="60px" viewBox="0 0 60 60" version="1.1" xmlns="http://www.w3.org/2000/svg" xmlns:xlink="http://www.w3.org/1999/xlink" xmlns:sketch="http://www.bohemiancoding.com/sketch/ns">
    <!-- Generator: Sketch 3.3.3 (12081) - http://www.bohemiancoding.com/sketch -->
    <title>Phonesignal</title>
    <desc>Created with Sketch.</desc>
    <defs></defs>
    <g id="outlined" stroke="none" stroke-width="1" fill="none" fill-rule="evenodd" sketch:type="MSPage">
        <g id="Marketing_sliced" sketch:type="MSLayerGroup" transform="translate(-120.000000, -1680.000000)"></g>
        <g id="Imported-Layers" sketch:type="MSLayerGroup" transform="translate(-118.000000, -1671.000000)" fill="#535353">
            <path d="M151.198,1726.583 C149.047,1726.583 146.973,1725.863 145.35,1724.555 C144.846,1724.237 142.358,1722.492 134.708,1714.843 C127.027,1707.162 125.294,1704.679 124.985,1704.186 C121.94,1700.324 122.431,1694.526 126.094,1691.229 L130.956,1686.854 C131.35,1686.497 131.955,1686.515 132.332,1686.891 L139.295,1693.853 C139.645,1694.203 139.686,1694.757 139.392,1695.155 L137.74,1697.39 C136.141,1699.553 136.388,1702.862 138.292,1704.767 L144.785,1711.26 C145.801,1712.275 147.278,1712.858 148.838,1712.858 C150.068,1712.858 151.249,1712.486 152.162,1711.811 L154.397,1710.159 C154.794,1709.864 155.348,1709.905 155.698,1710.257 L162.661,1717.22 C163.037,1717.596 163.053,1718.2 162.697,1718.596 L158.322,1723.458 C156.535,1725.444 153.938,1726.583 151.198,1726.583 L151.198,1726.583 Z M131.588,1688.976 L127.432,1692.716 C124.526,1695.331 124.147,1699.94 126.587,1702.988 C126.62,1703.029 126.649,1703.072 126.675,1703.117 C126.723,1703.196 128.071,1705.377 136.123,1713.429 C144.173,1721.479 146.346,1722.82 146.434,1722.873 C146.476,1722.898 146.525,1722.932 146.562,1722.963 C147.837,1724.008 149.483,1724.583 151.198,1724.583 C153.372,1724.583 155.427,1723.685 156.835,1722.12 L160.576,1717.963 L154.893,1712.28 L153.351,1713.42 C152.096,1714.347 150.494,1714.858 148.838,1714.858 C146.752,1714.858 144.759,1714.061 143.371,1712.674 L136.878,1706.181 C134.302,1703.605 133.968,1699.128 136.132,1696.2 L137.272,1694.658 L131.588,1688.976 L131.588,1688.976 Z" id="Fill-1187" sketch:type="MSShapeGroup"></path>
            <path d="M162.707,1700.293 C162.155,1700.293 161.707,1699.846 161.707,1699.293 C161.707,1696.087 160.459,1693.074 158.192,1690.808 C155.926,1688.541 152.912,1687.293 149.707,1687.293 C149.155,1687.293 148.707,1686.846 148.707,1686.293 C148.707,1685.74 149.155,1685.293 149.707,1685.293 C153.447,1685.293 156.962,1686.749 159.606,1689.394 C162.251,1692.037 163.707,1695.553 163.707,1699.293 C163.707,1699.846 163.259,1700.293 162.707,1700.293" id="Fill-1188" sketch:type="MSShapeGroup"></path>
            <path d="M169,1701 C168.448,1701 168,1700.553 168,1700 C168,1694.925 166.023,1690.153 162.435,1686.564 C158.846,1682.977 154.074,1681 149,1681 C148.448,1681 148,1680.553 148,1680 C148,1679.447 148.448,1679 149,1679 C154.608,1679 159.882,1681.185 163.849,1685.15 C167.815,1689.117 170,1694.391 170,1700 C170,1700.553 169.552,1701 169,1701" id="Fill-1189" sketch:type="MSShapeGroup"></path>
            <path d="M157,1701 C156.448,1701 156,1700.553 156,1700 C156,1698.13 155.272,1696.372 153.95,1695.05 C152.627,1693.729 150.87,1693 149,1693 C148.448,1693 148,1692.553 148,1692 C148,1691.447 148.448,1691 149,1691 C151.404,1691 153.664,1691.935 155.364,1693.636 C157.064,1695.336 158,1697.596 158,1700 C158,1700.553 157.552,1701 157,1701" id="Fill-1190" sketch:type="MSShapeGroup"></path>
        </g>
    </g>
</svg>