<?xml version="1.0" encoding="UTF-8" standalone="no"?>
<svg width="60px" height="60px" viewBox="0 0 60 60" version="1.1" xmlns="http://www.w3.org/2000/svg" xmlns:xlink="http://www.w3.org/1999/xlink" xmlns:sketch="http://www.bohemiancoding.com/sketch/ns">
    <!-- Generator: Sketch 3.3.3 (12081) - http://www.bohemiancoding.com/sketch -->
    <title>Pulley</title>
    <desc>Created with Sketch.</desc>
    <defs></defs>
    <g id="outlined" stroke="none" stroke-width="1" fill="none" fill-rule="evenodd" sketch:type="MSPage">
        <g id="Science_sliced" sketch:type="MSLayerGroup" transform="translate(-240.000000, -1080.000000)"></g>
        <g id="Imported-Layers" sketch:type="MSLayerGroup" transform="translate(-239.000000, -1079.000000)" fill="#535353">
            <path d="M256,1127 C252.14,1127 249,1123.859 249,1120 C249,1116.141 252.14,1113 256,1113 C259.86,1113 263,1116.141 263,1120 C263,1123.859 259.86,1127 256,1127 L256,1127 Z M256,1115 C253.243,1115 251,1117.243 251,1120 C251,1122.757 253.243,1125 256,1125 C258.757,1125 261,1122.757 261,1120 C261,1117.243 258.757,1115 256,1115 L256,1115 Z" id="Fill-672" sketch:type="MSShapeGroup"></path>
            <path d="M283,1114 C276.935,1114 272,1109.065 272,1103 C272,1096.935 276.935,1092 283,1092 C289.065,1092 294,1096.935 294,1103 C294,1109.065 289.065,1114 283,1114 L283,1114 Z M283,1094 C278.038,1094 274,1098.037 274,1103 C274,1107.963 278.038,1112 283,1112 C287.962,1112 292,1107.963 292,1103 C292,1098.037 287.962,1094 283,1094 L283,1094 Z" id="Fill-673" sketch:type="MSShapeGroup"></path>
            <path d="M295.001,1090 L247.999,1090 C246.345,1090 245,1088.652 245,1086.995 L245,1086.005 C245,1084.348 246.345,1083 247.999,1083 L295.001,1083 C296.655,1083 298,1084.348 298,1086.005 L298,1086.995 C298,1088.652 296.655,1090 295.001,1090 L295.001,1090 Z M247.999,1085 C247.448,1085 247,1085.451 247,1086.005 L247,1086.995 C247,1087.549 247.448,1088 247.999,1088 L295.001,1088 C295.552,1088 296,1087.549 296,1086.995 L296,1086.005 C296,1085.451 295.552,1085 295.001,1085 L247.999,1085 L247.999,1085 Z" id="Fill-674" sketch:type="MSShapeGroup"></path>
            <path d="M278,1127 L288,1127 L288,1137 L278,1137 L278,1127 Z M280,1135 L286,1135 L286,1129 L280,1129 L280,1135 Z" id="Fill-675" sketch:type="MSShapeGroup"></path>
            <path d="M282,1112.5 L284,1112.5 L284,1129 L282,1129 L282,1112.5 Z" id="Fill-676" sketch:type="MSShapeGroup"></path>
            <path d="M249,1089.5 L251,1089.5 L251,1120 L249,1120 L249,1089.5 Z" id="Fill-677" sketch:type="MSShapeGroup"></path>
            <path d="M292,1089.5 L294,1089.5 L294,1104 L292,1104 L292,1089.5 Z" id="Fill-678" sketch:type="MSShapeGroup"></path>
            <path d="M262.879,1121.477 L261.121,1120.523 L274.121,1096.523 L275.879,1097.477 L262.879,1121.477" id="Fill-679" sketch:type="MSShapeGroup"></path>
        </g>
    </g>
</svg>