<?xml version="1.0" encoding="UTF-8" standalone="no"?>
<svg width="60px" height="60px" viewBox="0 0 60 60" version="1.1" xmlns="http://www.w3.org/2000/svg" xmlns:xlink="http://www.w3.org/1999/xlink" xmlns:sketch="http://www.bohemiancoding.com/sketch/ns">
    <!-- Generator: Sketch 3.3.3 (12081) - http://www.bohemiancoding.com/sketch -->
    <title>Send</title>
    <desc>Created with Sketch.</desc>
    <defs></defs>
    <g id="outlined" stroke="none" stroke-width="1" fill="none" fill-rule="evenodd" sketch:type="MSPage">
        <g id="Interface_sliced" sketch:type="MSLayerGroup" transform="translate(-600.000000, -2400.000000)"></g>
        <g id="Imported-Layers" sketch:type="MSLayerGroup" transform="translate(-598.000000, -2396.000000)" fill="#535353">
            <path d="M621.973,2430.955 C621.87,2430.955 621.768,2430.939 621.668,2430.907 L601.646,2424.505 C601.224,2424.37 600.941,2423.975 600.95,2423.532 C600.96,2423.09 601.259,2422.706 601.686,2422.589 L654.685,2408.036 C655.159,2407.904 655.664,2408.141 655.864,2408.595 C656.065,2409.048 655.904,2409.578 655.486,2409.844 L622.509,2430.799 C622.347,2430.902 622.16,2430.955 621.973,2430.955 L621.973,2430.955 Z M605.462,2423.626 L621.831,2428.86 L648.793,2411.727 L605.462,2423.626 L605.462,2423.626 Z" id="Fill-1002" sketch:type="MSShapeGroup"></path>
            <path d="M634.34,2449 C634.011,2449 633.702,2448.838 633.515,2448.565 L621.148,2430.521 C620.836,2430.064 620.952,2429.442 621.407,2429.13 C621.863,2428.818 622.484,2428.935 622.798,2429.39 L634.229,2446.069 L654.066,2408.533 C654.323,2408.045 654.93,2407.856 655.417,2408.116 C655.905,2408.374 656.093,2408.979 655.834,2409.467 L635.224,2448.467 C635.061,2448.776 634.747,2448.978 634.398,2448.998 C634.378,2448.999 634.358,2449 634.34,2449" id="Fill-1003" sketch:type="MSShapeGroup"></path>
            <path d="M619.617,2444.344 C619.407,2444.344 619.198,2444.277 619.023,2444.147 C618.705,2443.913 618.556,2443.515 618.641,2443.129 L621.585,2429.74 C621.703,2429.2 622.237,2428.862 622.776,2428.979 C623.315,2429.097 623.657,2429.631 623.538,2430.17 L621.075,2441.372 L627.369,2437.815 C627.849,2437.547 628.459,2437.713 628.732,2438.194 C629.004,2438.676 628.834,2439.285 628.354,2439.558 L620.109,2444.215 C619.956,2444.301 619.786,2444.344 619.617,2444.344" id="Fill-1004" sketch:type="MSShapeGroup"></path>
        </g>
    </g>
</svg>