<?xml version="1.0" encoding="UTF-8" standalone="no"?>
<svg width="60px" height="60px" viewBox="0 0 60 60" version="1.1" xmlns="http://www.w3.org/2000/svg" xmlns:xlink="http://www.w3.org/1999/xlink" xmlns:sketch="http://www.bohemiancoding.com/sketch/ns">
    <!-- Generator: Sketch 3.3.3 (12081) - http://www.bohemiancoding.com/sketch -->
    <title>Statsincrease</title>
    <desc>Created with Sketch.</desc>
    <defs>
        <path id="path-1" d="M0,19 L47,0 L47,34 L0,34 L0,19 L0,19 Z"></path>
    </defs>
    <g id="outlined" stroke="none" stroke-width="1" fill="none" fill-rule="evenodd" sketch:type="MSPage">
        <g id="Marketing_sliced" sketch:type="MSLayerGroup" transform="translate(-720.000000, -480.000000)"></g>
        <g id="Imported-Layers" sketch:type="MSLayerGroup" transform="translate(-718.000000, -471.000000)">
            <g id="Group-350" transform="translate(725.000000, 494.000000)">
                <mask id="mask-2" sketch:name="Clip 349" fill="white">
                    <use xlink:href="#path-1"></use>
                </mask>
                <g id="Clip-349"></g>
                <path d="M47,36 L0,36 C-1.104,36 -2,35.104 -2,34 L-2,19 C-2,18.185 -1.505,17.451 -0.75,17.146 L46.25,-1.854 C46.866,-2.103 47.566,-2.031 48.118,-1.658 C48.67,-1.287 49,-0.665 49,-8.8817842e-16 L49,34 C49,35.104 48.104,36 47,36 L47,36 Z M2,32 L45,32 L45,2.966 L2,20.349 L2,32 L2,32 Z" id="Fill-348" fill="#535353" sketch:type="MSShapeGroup" mask="url(#mask-2)"></path>
            </g>
            <path d="M761,506.974 L763,506.974 L763,528 L761,528 L761,506.974 Z" id="Fill-351" fill="#535353" sketch:type="MSShapeGroup"></path>
            <path d="M752,512 L754,512 L754,528 L752,528 L752,512 Z" id="Fill-352" fill="#535353" sketch:type="MSShapeGroup"></path>
            <path d="M763.215,490.459 C763.079,490.459 762.941,490.431 762.809,490.373 C762.305,490.148 762.077,489.557 762.303,489.052 L764.743,483.571 L759.262,481.13 C758.758,480.906 758.53,480.314 758.756,479.81 C758.979,479.305 759.569,479.079 760.076,479.303 L766.471,482.15 C766.713,482.258 766.902,482.458 766.997,482.706 C767.092,482.953 767.085,483.229 766.977,483.471 L764.129,489.866 C763.964,490.238 763.598,490.459 763.215,490.459" id="Fill-353" fill="#535353" sketch:type="MSShapeGroup"></path>
            <path d="M728.821,500.419 C728.435,500.419 728.069,500.196 727.904,499.821 C727.683,499.315 727.913,498.725 728.419,498.503 L765.066,482.431 C765.575,482.209 766.161,482.44 766.384,482.945 C766.606,483.451 766.375,484.041 765.869,484.263 L729.222,500.335 C729.091,500.392 728.955,500.419 728.821,500.419" id="Fill-354" fill="#535353" sketch:type="MSShapeGroup"></path>
        </g>
    </g>
</svg>