<?xml version="1.0" encoding="UTF-8" standalone="no"?>
<svg width="60px" height="60px" viewBox="0 0 60 60" version="1.1" xmlns="http://www.w3.org/2000/svg" xmlns:xlink="http://www.w3.org/1999/xlink" xmlns:sketch="http://www.bohemiancoding.com/sketch/ns">
    <!-- Generator: Sketch 3.3.3 (12081) - http://www.bohemiancoding.com/sketch -->
    <title>Timer</title>
    <desc>Created with Sketch.</desc>
    <defs>
        <path id="path-1" d="M0,0 L16,0 L16,7 L0,7 L0,0 Z"></path>
    </defs>
    <g id="outlined" stroke="none" stroke-width="1" fill="none" fill-rule="evenodd" sketch:type="MSPage">
        <g id="Marketing_sliced" sketch:type="MSLayerGroup" transform="translate(-600.000000, -1320.000000)"></g>
        <g id="Imported-Layers" sketch:type="MSLayerGroup" transform="translate(-598.000000, -1311.000000)">
            <path d="M629,1367 C617.421,1367 608,1357.579 608,1346 C608,1334.421 617.421,1325 629,1325 C640.579,1325 650,1334.421 650,1346 C650,1357.579 640.579,1367 629,1367 L629,1367 Z M629,1327 C618.523,1327 610,1335.523 610,1346 C610,1356.477 618.523,1365 629,1365 C639.477,1365 648,1356.477 648,1346 C648,1335.523 639.477,1327 629,1327 L629,1327 Z" id="Fill-1043" fill="#535353" sketch:type="MSShapeGroup"></path>
            <path d="M629,1371 C615.215,1371 604,1359.785 604,1346 C604,1332.215 615.215,1321 629,1321 C642.785,1321 654,1332.215 654,1346 C654,1359.785 642.785,1371 629,1371 L629,1371 Z M629,1323 C616.317,1323 606,1333.317 606,1346 C606,1358.683 616.317,1369 629,1369 C641.683,1369 652,1358.683 652,1346 C652,1333.317 641.683,1323 629,1323 L629,1323 Z" id="Fill-1044" fill="#535353" sketch:type="MSShapeGroup"></path>
            <path d="M628,1347 C627.723,1347 627.447,1346.886 627.249,1346.661 L617.459,1335.54 C617.095,1335.125 617.135,1334.493 617.549,1334.128 C617.964,1333.765 618.595,1333.803 618.961,1334.218 L628.751,1345.339 C629.115,1345.754 629.075,1346.386 628.661,1346.751 C628.471,1346.918 628.235,1347 628,1347" id="Fill-1045" fill="#535353" sketch:type="MSShapeGroup"></path>
            <g id="Group-1048" transform="translate(621.000000, 1312.000000)">
                <mask id="mask-2" sketch:name="Clip 1047" fill="white">
                    <use xlink:href="#path-1"></use>
                </mask>
                <g id="Clip-1047"></g>
                <path d="M16,9 L0,9 C-1.104,9 -2,8.104 -2,7 L-2,0 C-2,-1.105 -1.104,-2 0,-2 L16,-2 C17.104,-2 18,-1.105 18,0 L18,7 C18,8.104 17.104,9 16,9 L16,9 Z M2,5 L14,5 L14,2 L2,2 L2,5 Z" id="Fill-1046" fill="#535353" sketch:type="MSShapeGroup" mask="url(#mask-2)"></path>
            </g>
            <path d="M628,1318 L630,1318 L630,1323 L628,1323 L628,1318 Z" id="Fill-1049" fill="#535353" sketch:type="MSShapeGroup"></path>
        </g>
    </g>
</svg>